<svg width="400" height="150" viewBox="0 0 400 150" fill="none" xmlns="http://www.w3.org/2000/svg">
<path d="M82.5732 48.0566C86.7297 48.0567 90.0996 51.4276 90.0996 55.584V66.6514C90.0996 70.8078 86.7297 74.1776 82.5732 74.1777H51.584C38.6256 74.1777 28.1211 84.6822 28.1211 97.6406C28.1211 110.599 38.6255 121.104 51.584 121.104H82.5732C86.7296 121.104 90.0995 124.474 90.0996 128.63V139.697C90.0996 143.854 86.7297 147.225 82.5732 147.225H51.584C24.2001 147.225 2 125.025 2 97.6406C2.00004 70.2568 24.2001 48.0566 51.584 48.0566H82.5732ZM326.061 30.3486C328.995 30.3486 331.374 32.7281 331.374 35.6621V141.911C331.374 144.845 328.995 147.225 326.061 147.225H308.353C305.419 147.225 303.039 144.845 303.039 141.911V35.6621C303.039 32.7281 305.419 30.3486 308.353 30.3486H326.061ZM246.49 48.0566C268.956 48.0568 287.103 65.7352 287.104 87.459V141.911C287.104 144.845 284.724 147.225 281.79 147.225H267.228C264.294 147.224 261.914 144.845 261.914 141.911V94.1973L261.884 92.9609C261.222 80.2731 250.427 70.2441 237.286 70.2441H226.406V141.911C226.406 144.845 224.027 147.224 221.094 147.225H206.53C203.596 147.225 201.217 144.845 201.217 141.911V55.584C201.217 51.4275 204.588 48.0566 208.744 48.0566H246.49ZM177.755 48.0566C180.689 48.0568 183.067 50.4363 183.067 53.3701V141.911C183.067 144.845 180.689 147.224 177.755 147.225H160.046C157.112 147.224 154.733 144.845 154.733 141.911V53.3701C154.733 50.4363 157.112 48.0569 160.046 48.0566H177.755ZM131.271 6C134.204 6 136.584 8.37949 136.584 11.3135V141.911C136.584 144.845 134.204 147.225 131.271 147.225H113.562C110.629 147.225 108.249 144.845 108.249 141.911V11.3135C108.249 8.37949 110.629 6 113.562 6H131.271ZM176.647 6C179.581 6 181.961 8.37949 181.961 11.3135V27.915C181.961 30.8489 179.581 33.2285 176.647 33.2285H160.046C157.112 33.2283 154.734 30.8487 154.733 27.915V11.3135C154.733 8.37965 157.112 6.00025 160.046 6H176.647Z" fill="black" style="fill:black;fill-opacity:1;"/>
<path d="M384.722 54.0336C390.982 54.0336 394.113 54.0333 396.058 55.9779C398.003 57.9229 398.003 61.054 398.003 67.3148V71.7416C398.003 78.0023 398.003 81.1326 396.058 83.0775C394.113 85.0224 390.982 85.0228 384.722 85.0228H380.295C379.667 85.0228 379.071 85.0226 378.504 85.0204C375.816 85.0097 373.199 86.1058 371.449 88.147C369.881 89.9767 369.17 92.3917 369.21 94.8012C369.227 95.8462 369.228 97.0081 369.228 98.3041V102.731C369.228 104.186 369.227 105.473 369.202 106.614C369.163 108.414 369.567 110.214 370.51 111.747C372.191 114.477 375.311 116.026 378.518 116.014C379.08 116.012 379.672 116.012 380.295 116.012H384.722C390.982 116.012 394.113 116.012 396.058 117.956C398.003 119.901 398.003 123.033 398.003 129.293V133.72C398.003 139.981 398.003 143.111 396.058 145.056C394.113 147.001 390.982 147.001 384.722 147.001H380.295C374.034 147.001 370.904 147.001 368.959 145.056C367.014 143.111 367.014 139.981 367.014 133.72V129.293C367.014 128.197 367.014 127.197 367.025 126.282C367.055 123.644 366.214 121.009 364.431 119.064C362.608 117.075 359.986 116.005 357.287 116.011C356.857 116.012 356.41 116.012 355.946 116.012H351.519C345.258 116.012 342.128 116.012 340.183 114.067C338.238 112.122 338.238 108.991 338.238 102.731V98.3041C338.238 92.0433 338.238 88.9121 340.183 86.9672C342.128 85.0223 345.258 85.0228 351.519 85.0228H355.946C356.391 85.0228 356.82 85.0229 357.234 85.0237C360.738 85.0303 364.136 83.2488 365.854 80.1952C366.694 78.7012 367.063 76.9914 367.033 75.2776C367.014 74.224 367.014 73.0513 367.014 71.7416V67.3148C367.014 61.054 367.014 57.9229 368.959 55.9779C370.904 54.0333 374.035 54.0336 380.295 54.0336H384.722Z" fill="black" style="fill:black;fill-opacity:1;"/>
</svg>
