<svg width="53" height="82" viewBox="0 0 53 82" fill="none" xmlns="http://www.w3.org/2000/svg">
<path d="M40.6738 2.48308e-10C46.1516 2.48308e-10 48.8909 -0.000331153 50.5928 1.70117C52.2946 3.40303 52.2949 6.14291 52.2949 11.6211V15.4941C52.2949 20.9723 52.2946 23.7112 50.5928 25.4131C48.8909 27.1149 46.152 27.1152 40.6738 27.1152H36.7998C36.251 27.1152 35.7298 27.1151 35.2343 27.1132C32.8817 27.104 30.5913 28.0633 29.0603 29.8496C27.6879 31.4508 27.0656 33.5641 27.1008 35.6727C27.1161 36.5867 27.1162 37.6029 27.1162 38.7363V42.6104C27.1162 43.8831 27.1157 45.008 27.0938 46.0064C27.0593 47.5814 27.4131 49.1571 28.239 50.4986C29.7099 52.8879 32.4407 54.2434 35.2464 54.2333C35.7383 54.2315 36.2555 54.2314 36.7998 54.2314H40.6738C46.1517 54.2314 48.8909 54.231 50.5928 55.9326C52.2946 57.6344 52.2949 60.3737 52.2949 65.8516V69.7256C52.2949 75.2038 52.2946 77.9427 50.5928 79.6445C48.8909 81.3464 46.152 81.3467 40.6738 81.3467H36.7998C31.3219 81.3467 28.5827 81.3463 26.8809 79.6445C25.1793 77.9427 25.1797 75.2035 25.1797 69.7256V65.8516C25.1797 64.8929 25.1798 64.0182 25.189 63.2182C25.2156 60.9093 24.4791 58.6035 22.9187 56.9015C21.3233 55.1613 19.0289 54.2252 16.668 54.2305C16.2916 54.2313 15.9009 54.2314 15.4951 54.2314H11.6211C6.14314 54.2314 3.40397 54.2311 1.70215 52.5293C0.000344915 50.8275 6.43145e-10 48.0883 0 42.6104V38.7363C0 33.2583 0.000455493 30.5192 1.70215 28.8174C3.40397 27.1156 6.14314 27.1152 11.6211 27.1152H15.4951C15.885 27.1152 16.2609 27.1153 16.6236 27.116C19.6888 27.1217 22.6618 25.563 24.1645 22.8914C24.8996 21.5844 25.2221 20.0886 25.1961 18.5893C25.1801 17.6672 25.1797 16.6406 25.1797 15.4941V11.6211C25.1797 6.14291 25.179 3.40303 26.8809 1.70117C28.5827 -0.000566659 31.322 1.5963e-09 36.7998 2.48308e-10H40.6738Z" fill="white" style="fill:white;fill-opacity:1;"/>
</svg>
