<svg width="50" height="78" viewBox="0 0 50 78" fill="none" xmlns="http://www.w3.org/2000/svg">
<path d="M38.874 2.64494e-10C44.1097 2.64494e-10 46.7279 -0.00044564 48.3545 1.62598C49.981 3.25252 49.9814 5.87071 49.9814 11.1064V14.8086C49.9814 20.0444 49.981 22.6625 48.3545 24.2891C46.7279 25.9156 44.1098 25.916 38.874 25.916H35.1719C34.6471 25.916 34.1487 25.9158 33.675 25.9139C31.4266 25.9048 29.2378 26.8212 27.7746 28.5283C26.4629 30.0586 25.868 32.0786 25.9014 34.0939C25.9159 34.9676 25.916 35.939 25.916 37.0225V40.7246C25.916 41.9417 25.9156 43.0173 25.8948 43.9719C25.8619 45.4773 26.2 46.9834 26.9895 48.2656C28.3952 50.5486 31.0047 51.8432 33.6858 51.833C34.1563 51.8312 34.6511 51.8311 35.1719 51.8311H38.874C44.1098 51.8311 46.7279 51.8315 48.3545 53.458C49.981 55.0846 49.9814 57.7027 49.9814 62.9385V66.6406C49.9814 71.8763 49.981 74.4946 48.3545 76.1211C46.7279 77.7475 44.1096 77.7471 38.874 77.7471H35.1719C29.9362 77.7471 27.318 77.7476 25.6914 76.1211C24.0649 74.4946 24.0654 71.8763 24.0654 66.6406V62.9385C24.0654 62.0215 24.0655 61.1848 24.0743 60.4197C24.0998 58.2136 23.3962 56.0105 21.9054 54.3841C20.3808 52.721 18.1882 51.8258 15.9321 51.8303C15.5719 51.831 15.1979 51.8311 14.8096 51.8311H11.1074C5.87172 51.8311 3.25351 51.8315 1.62695 50.2051C0.000401258 48.5785 0 45.9604 0 40.7246V37.0225C0 31.7867 0.000401258 29.1685 1.62695 27.542C3.25351 25.9155 5.87169 25.916 11.1074 25.916H14.8096C15.1817 25.916 15.5406 25.916 15.8868 25.9167C18.8168 25.9221 21.6586 24.4319 23.095 21.8781C23.7977 20.6288 24.106 19.199 24.0812 17.7658C24.0659 16.8847 24.0654 15.9039 24.0654 14.8086V11.1064C24.0654 5.87071 24.0649 3.25252 25.6914 1.62598C27.318 -0.000559575 29.9361 2.93043e-10 35.1719 2.64494e-10H38.874Z" fill="white" style="fill:white;fill-opacity:1;"/>
</svg>
