<svg width="335" height="125" viewBox="0 0 335 125" fill="none" xmlns="http://www.w3.org/2000/svg">
<path d="M75.0124 45.9873C75.0124 54.7308 67.9237 61.8195 59.1802 61.8195H42.2179C31.1845 61.8195 22.2409 70.7631 22.2409 81.7965C22.2409 92.83 31.1845 101.774 42.2179 101.774H59.1802C67.9237 101.774 75.0124 108.862 75.0124 117.606V124.014H42.2179C18.902 124.014 0 105.112 0 81.7965C0 58.4806 18.902 39.5786 42.2179 39.5786H75.0124V45.9873Z" fill="white" style="fill:white;fill-opacity:1;"/>
<path d="M93.7986 0C105.081 0 114.212 8.99986 114.212 20.0783V124.014H110.5C99.2175 124.014 90.0863 115.015 90.0863 103.936V0H93.7986Z" fill="white" style="fill:white;fill-opacity:1;"/>
<path d="M132.019 39.5786C143.308 39.5786 152.432 48.5228 152.432 59.517V124.014H148.72C137.431 124.014 128.307 115.07 128.307 104.076V39.5786H132.019Z" fill="white" style="fill:white;fill-opacity:1;"/>
<path d="M206.286 39.5786C225.415 39.5787 240.866 54.6309 240.866 73.1277V124.014H233.365C225.663 124.014 219.418 117.769 219.418 110.067V78.8646L219.392 77.8118C218.828 67.0088 209.637 58.4697 198.449 58.4697H189.186V124.014H181.685C173.983 124.014 167.738 117.77 167.738 110.067V39.5786H206.286Z" fill="white" style="fill:white;fill-opacity:1;"/>
<path d="M334.513 123.293H323.47C315.404 123.293 308.068 118.649 304.627 111.377L304.608 111.337L304.586 111.3L299.827 102.996L314.218 80.6665L334.513 123.293Z" fill="white" style="fill:white;fill-opacity:1;"/>
<path d="M256.543 13.399C268.409 13.399 278.029 23.0178 278.029 34.8834V85.0432L301.213 47.6438C303.728 44.0304 307.87 41.8553 312.307 41.8553H329.7L315.515 63.9011L315.501 63.8919L284.282 112.456C280.587 118.21 274.35 123.291 267.877 123.291H254.846V13.399H256.543Z" fill="white" style="fill:white;fill-opacity:1;"/>
<path d="M140.069 0.204298C144.477 0.204315 147.983 1.50396 150.474 3.98841L150.928 4.46511C153.128 6.90204 154.265 10.1095 154.265 14.218C154.265 18.6031 152.969 21.9751 150.476 24.4477L150.474 24.4495C147.981 26.9358 144.553 28.2336 140.069 28.2336C135.596 28.2336 132.329 26.9419 129.88 24.4569C127.429 21.9687 126.161 18.5929 126.161 14.218C126.161 9.84364 127.429 6.46922 129.88 3.98105C132.327 1.49785 135.672 0.204298 140.069 0.204298Z" fill="white" style="fill:white;fill-opacity:1;"/>
</svg>
