<svg width="276" height="119" viewBox="0 0 276 119" fill="none" xmlns="http://www.w3.org/2000/svg">
<path d="M67.3818 35.1719C70.8578 35.1719 73.6766 37.9899 73.6768 41.4658V50.7217C73.6768 54.1977 70.8578 57.0166 67.3818 57.0166H41.4658C30.629 57.0167 21.8447 65.8009 21.8447 76.6377C21.8448 87.4745 30.629 96.2587 41.4658 96.2588H67.3818C70.8578 96.2588 73.6768 99.0777 73.6768 102.554V111.809C73.6768 115.285 70.8578 118.104 67.3818 118.104H41.4658C18.5653 118.103 6.65542e-05 99.5382 0 76.6377C0 53.7371 18.5653 35.172 41.4658 35.1719H67.3818ZM271.007 20.3623C273.46 20.3626 275.45 22.3523 275.45 24.8057V113.66C275.45 116.114 273.46 118.103 271.007 118.104H256.197C253.744 118.103 251.754 116.114 251.754 113.66V24.8057C251.754 22.3521 253.744 20.3623 256.197 20.3623H271.007ZM204.463 35.1719C223.251 35.172 238.427 49.9557 238.427 68.123V113.66C238.427 116.114 236.437 118.104 233.983 118.104H221.805C219.351 118.103 217.361 116.114 217.361 113.66V73.7578L217.336 72.7236C216.782 62.1131 207.755 53.7266 196.766 53.7266H187.668V113.66C187.668 116.114 185.677 118.103 183.224 118.104H171.045C168.591 118.103 166.602 116.114 166.602 113.66V41.4658C166.602 37.9899 169.421 35.1719 172.896 35.1719H204.463ZM146.98 35.1719C149.434 35.1719 151.424 37.1616 151.424 39.6152V113.66C151.424 116.114 149.434 118.104 146.98 118.104H132.172C129.718 118.104 127.729 116.114 127.729 113.66V39.6152C127.729 37.1616 129.718 35.1719 132.172 35.1719H146.98ZM108.106 0C110.56 2.38416e-07 112.55 1.98975 112.55 4.44336V113.66C112.55 116.114 110.56 118.104 108.106 118.104H93.2979C90.8442 118.104 88.8545 116.114 88.8545 113.66V4.44336C88.8545 1.98975 90.8442 0 93.2979 0H108.106ZM146.055 0C148.508 0 150.498 1.98975 150.498 4.44336V18.3271C150.498 20.7807 148.508 22.7705 146.055 22.7705H132.172C129.718 22.7705 127.729 20.7807 127.729 18.3271V4.44336C127.729 1.98975 129.718 0 132.172 0H146.055Z" fill="black" style="fill:black;fill-opacity:1;"/>
</svg>
