<svg width="330" height="142" viewBox="0 0 330 142" fill="none" xmlns="http://www.w3.org/2000/svg">
<path d="M80.5732 42.0566C84.7297 42.0567 88.0996 45.4276 88.0996 49.584V60.6514C88.0996 64.8078 84.7297 68.1776 80.5732 68.1777H49.584C36.6256 68.1777 26.1211 78.6822 26.1211 91.6406C26.1211 104.599 36.6255 115.104 49.584 115.104H80.5732C84.7296 115.104 88.0995 118.474 88.0996 122.63V133.697C88.0996 137.854 84.7297 141.225 80.5732 141.225H49.584C22.2001 141.225 0 119.025 0 91.6406C3.65357e-05 64.2568 22.2001 42.0566 49.584 42.0566H80.5732ZM324.061 24.3486C326.995 24.3486 329.374 26.7281 329.374 29.6621V135.911C329.374 138.845 326.995 141.225 324.061 141.225H306.353C303.419 141.225 301.039 138.845 301.039 135.911V29.6621C301.039 26.7281 303.419 24.3486 306.353 24.3486H324.061ZM244.49 42.0566C266.956 42.0568 285.103 59.7352 285.104 81.459V135.911C285.104 138.845 282.724 141.225 279.79 141.225H265.228C262.294 141.224 259.914 138.845 259.914 135.911V88.1973L259.884 86.9609C259.222 74.273 248.427 64.2441 235.286 64.2441H224.406V135.911C224.406 138.845 222.027 141.224 219.094 141.225H204.53C201.596 141.225 199.217 138.845 199.217 135.911V49.584C199.217 45.4275 202.588 42.0566 206.744 42.0566H244.49ZM175.755 42.0566C178.689 42.0568 181.067 44.4363 181.067 47.3701V135.911C181.067 138.845 178.689 141.224 175.755 141.225H158.046C155.112 141.224 152.733 138.845 152.733 135.911V47.3701C152.733 44.4363 155.112 42.0569 158.046 42.0566H175.755ZM129.271 0C132.204 2.38419e-07 134.584 2.37949 134.584 5.31348V135.911C134.584 138.845 132.204 141.225 129.271 141.225H111.562C108.629 141.225 106.249 138.845 106.249 135.911V5.31348C106.249 2.37949 108.629 0 111.562 0H129.271ZM174.647 0C177.581 0 179.961 2.37949 179.961 5.31348V21.915C179.961 24.8489 177.581 27.2285 174.647 27.2285H158.046C155.112 27.2283 152.734 24.8487 152.733 21.915V5.31348C152.733 2.37964 155.112 0.000251012 158.046 0H174.647Z" fill="black" style="fill:black;fill-opacity:1;"/>
</svg>
