<svg width="60" height="93" viewBox="0 0 60 93" fill="none" xmlns="http://www.w3.org/2000/svg">
<path d="M46.4834 0C52.7438 0 55.8743 -0.000309755 57.8193 1.94434C59.7643 3.88931 59.7646 7.02046 59.7646 13.2813V17.708C59.7646 23.9687 59.7643 27.099 57.8193 29.0439C55.8743 30.9888 52.744 30.9893 46.4834 30.9893H42.0566C41.4289 30.9893 40.8327 30.9891 40.2659 30.9868C37.5776 30.9762 34.9604 32.0722 33.2109 34.1134C31.6427 35.9432 30.9316 38.3582 30.9717 40.7676C30.9891 41.8126 30.9893 42.9745 30.9893 44.2705V48.6973C30.9893 50.1528 30.9887 51.4391 30.9637 52.5807C30.9243 54.3803 31.3283 56.1806 32.2719 57.7135C33.9526 60.4438 37.0731 61.9926 40.2793 61.9807C40.842 61.9786 41.4338 61.9785 42.0566 61.9785H46.4834C52.7438 61.9785 55.8743 61.9783 57.8193 63.9229C59.7643 65.8678 59.7646 68.999 59.7646 75.2598V79.6865C59.7646 85.9473 59.7643 89.0775 57.8193 91.0225C55.8744 92.9674 52.7441 92.9678 46.4834 92.9678H42.0566C35.796 92.9678 32.6657 92.9673 30.7207 91.0225C28.7757 89.0775 28.7754 85.9473 28.7754 79.6865V75.2598C28.7754 74.1635 28.7756 73.1631 28.7863 72.2483C28.8171 69.61 27.9758 66.9751 26.1929 65.0301C24.3696 63.041 21.7474 61.9712 19.0491 61.9774C18.6187 61.9784 18.172 61.9785 17.708 61.9785H13.2803C7.01976 61.9785 3.88927 61.9781 1.94434 60.0332C-0.000473202 58.0882 3.33482e-10 54.9578 2.91038e-10 48.6973V44.2705C2.91038e-10 38.0097 -0.000641226 34.8786 1.94434 32.9336C3.88928 30.9888 7.01986 30.9893 13.2803 30.9893H17.708C18.153 30.9893 18.5821 30.9893 18.9961 30.9901C22.4996 30.9967 25.8977 29.2152 27.6154 26.1616C28.4557 24.6676 28.8244 22.9578 28.7944 21.244C28.776 20.1905 28.7754 19.0178 28.7754 17.708V13.2813C28.7754 7.02047 28.7757 3.88931 30.7207 1.94434C32.6657 -0.000283232 35.7962 0 42.0566 0H46.4834Z" fill="black" style="fill:black;fill-opacity:1;"/>
</svg>
