<svg width="80" height="128" viewBox="0 0 80 128" fill="none" xmlns="http://www.w3.org/2000/svg">
<path d="M64.5371 0C71.8261 0 75.4709 0.000309373 77.7354 2.26465C79.9998 4.52907 80 8.17383 80 15.4629V26.0176C80 33.3065 79.9997 36.9514 77.7354 39.2158C75.4709 41.4802 71.8262 41.4805 64.5371 41.4805H53.9824C51.7757 41.4805 49.6714 42.4356 48.2352 44.1111L45.6741 47.099C42.875 50.3646 41.4773 54.6311 41.4803 58.9323C41.4804 59.2159 41.4805 59.5053 41.4805 59.8008V70.3555C41.4805 71.5132 41.4801 72.579 41.4707 73.562C41.4484 75.8783 42.0126 78.1796 43.2269 80.1523C45.4247 83.7227 49.4393 85.8181 53.632 85.8174C53.7478 85.8174 53.8647 85.8174 53.9824 85.8174H64.5371C71.8262 85.8174 75.4709 85.8176 77.7354 88.082C79.9998 90.3465 80 93.9912 80 101.28V111.835C80 119.124 79.9998 122.769 77.7354 125.033C75.4709 127.298 71.8262 127.298 64.5371 127.298H53.9824C46.6934 127.298 43.0486 127.298 40.7842 125.033C38.5198 122.769 38.5195 119.124 38.5195 111.835V101.28C38.5195 100.56 38.5197 99.8749 38.522 99.2234C38.5345 95.8017 37.3732 92.4227 35.0608 89.9006L34.8223 89.6405C32.5681 87.1818 29.3533 85.8184 26.0176 85.8184H15.4629C8.17406 85.8184 4.52909 85.8179 2.26465 83.5537C0.000226594 81.2893 0 77.6445 0 70.3555V59.8008C0 52.5117 0.000226594 48.867 2.26465 46.6025C4.52907 44.3381 8.17383 44.3379 15.4629 44.3379H26.0176C30.4268 44.3379 34.6299 42.032 36.7915 38.189L36.8912 38.0117C38.1394 35.7926 38.6104 33.2226 38.5513 30.6772C38.5197 29.3139 38.5195 27.7712 38.5195 26.0176V15.4629C38.5195 8.17383 38.5198 4.52907 40.7842 2.26465C43.0486 0.000324632 46.6935 0 53.9824 0H64.5371Z" fill="white" style="fill:white;fill-opacity:1;"/>
</svg>
