<svg width="289" height="124" viewBox="0 0 289 124" fill="none" xmlns="http://www.w3.org/2000/svg">
<path d="M70.501 36.7998C74.1379 36.7998 77.0879 39.7488 77.0879 43.3857V53.0703C77.0877 56.7071 74.1378 59.6562 70.501 59.6562H43.3857C32.0472 59.6563 22.8565 68.847 22.8564 80.1855C22.8564 91.5242 32.0471 100.715 43.3857 100.715H70.501C74.1377 100.715 77.0876 103.664 77.0879 107.301V116.985C77.0879 120.622 74.1379 123.571 70.501 123.571H43.3857C19.4249 123.571 0 104.146 0 80.1855C3.49892e-05 56.2247 19.4249 36.7998 43.3857 36.7998H70.501ZM283.553 21.3047C286.12 21.3047 288.202 23.387 288.202 25.9541V118.922C288.202 121.489 286.12 123.571 283.553 123.571H268.059C265.491 123.571 263.409 121.489 263.409 118.922V25.9541C263.409 23.387 265.491 21.3047 268.059 21.3047H283.553ZM213.929 36.7998C233.587 36.7999 249.466 52.2689 249.466 71.2773V118.922C249.466 121.489 247.384 123.571 244.816 123.571H232.074C229.507 123.571 227.425 121.489 227.425 118.922V77.1729L227.398 76.0908C226.819 64.9889 217.373 56.2139 205.875 56.2139H196.355V118.922C196.355 121.489 194.274 123.571 191.707 123.571H178.964C176.397 123.571 174.314 121.489 174.314 118.922V43.3857C174.314 39.7488 177.264 36.7998 180.901 36.7998H213.929ZM153.785 36.7998C156.352 36.7998 158.435 38.882 158.435 41.4492V118.922C158.435 121.489 156.352 123.571 153.785 123.571H138.291C135.724 123.571 133.642 121.489 133.642 118.922V41.4492C133.642 38.882 135.724 36.7998 138.291 36.7998H153.785ZM113.111 0C115.679 2.38419e-07 117.761 2.08218 117.761 4.64941V118.922C117.761 121.489 115.679 123.571 113.111 123.571H97.6172C95.0499 123.571 92.9678 121.489 92.9678 118.922V4.64941C92.9678 2.08218 95.0499 0 97.6172 0H113.111ZM152.816 0C155.384 0 157.466 2.08218 157.466 4.64941V19.1758C157.466 21.7428 155.384 23.8242 152.816 23.8242H138.291C135.724 23.8242 133.642 21.7428 133.642 19.1758V4.64941C133.642 2.08218 135.724 0 138.291 0H152.816Z" fill="white" style="fill:white;fill-opacity:1;"/>
</svg>
