<svg width="16" height="16" viewBox="0 0 16 16" fill="none" xmlns="http://www.w3.org/2000/svg">
<path fill-rule="evenodd" clip-rule="evenodd" d="M6.13634 2.12119C5.96825 2.17444 5.80225 2.23496 5.63882 2.30266C4.89064 2.61257 4.21083 3.0668 3.63821 3.63943C3.06558 4.21205 2.61135 4.89186 2.30144 5.64004C2.0555 6.2338 1.90428 6.86138 1.85233 7.49992H4.83932C4.86066 6.76932 4.92869 6.04932 5.04174 5.36697C5.18037 4.53031 5.38517 3.75934 5.64884 3.10018C5.79279 2.7403 5.95543 2.41086 6.13634 2.12119ZM7.9987 0.833252C7.05756 0.833252 6.12563 1.01862 5.25613 1.37878C4.38663 1.73894 3.59659 2.26683 2.9311 2.93232C2.26561 3.59781 1.73772 4.38785 1.37756 5.25735C1.0174 6.12685 0.832031 7.05878 0.832031 7.99992C0.832031 8.94106 1.0174 9.87298 1.37756 10.7425C1.73772 11.612 2.26561 12.402 2.9311 13.0675C3.59659 13.733 4.38663 14.2609 5.25613 14.6211C6.12563 14.9812 7.05756 15.1666 7.9987 15.1666C8.93984 15.1666 9.87176 14.9812 10.7413 14.6211C11.6108 14.2609 12.4008 13.733 13.0663 13.0675C13.7318 12.402 14.2597 11.612 14.6198 10.7425C14.98 9.87298 15.1654 8.94106 15.1654 7.99992C15.1654 7.05878 14.98 6.12685 14.6198 5.25735C14.2597 4.38786 13.7318 3.59781 13.0663 2.93232C12.4008 2.26683 11.6108 1.73894 10.7413 1.37878C9.87176 1.01862 8.93984 0.833252 7.9987 0.833252ZM7.9987 1.83325C7.82453 1.83325 7.59952 1.91711 7.33788 2.18805C7.07431 2.46099 6.81044 2.88876 6.57732 3.47157C6.34574 4.05051 6.1577 4.74941 6.02829 5.53042C5.92447 6.15704 5.86081 6.822 5.83977 7.49992L10.1576 7.49992C10.1366 6.822 10.0729 6.15705 9.9691 5.53043C9.8397 4.74941 9.65166 4.05052 9.42008 3.47157C9.18695 2.88876 8.92309 2.46099 8.65952 2.18805C8.39788 1.91711 8.17287 1.83325 7.9987 1.83325ZM11.1581 7.49992C11.1367 6.76932 11.0687 6.04932 10.9557 5.36697C10.817 4.53031 10.6122 3.75935 10.3486 3.10018C10.2046 2.7403 10.042 2.41086 9.86106 2.12119C10.0291 2.17444 10.1951 2.23496 10.3586 2.30266C11.1068 2.61257 11.7866 3.0668 12.3592 3.63943C12.9318 4.21206 13.3861 4.89186 13.696 5.64004C13.9419 6.2338 14.0931 6.86138 14.1451 7.49992H11.1581ZM10.1576 8.49992L5.83977 8.49992C5.86081 9.17783 5.92447 9.84279 6.02829 10.4694C6.1577 11.2504 6.34574 11.9493 6.57732 12.5283C6.81044 13.1111 7.07431 13.5388 7.33788 13.8118C7.59952 14.0827 7.82453 14.1666 7.9987 14.1666C8.17287 14.1666 8.39788 14.0827 8.65952 13.8118C8.92309 13.5388 9.18695 13.1111 9.42008 12.5283C9.65166 11.9493 9.8397 11.2504 9.9691 10.4694C10.0729 9.84279 10.1366 9.17783 10.1576 8.49992ZM9.86106 13.8786C10.042 13.589 10.2046 13.2595 10.3486 12.8997C10.6122 12.2405 10.817 11.4695 10.9557 10.6329C11.0687 9.95052 11.1367 9.23052 11.1581 8.49992H14.1451C14.0931 9.13845 13.9419 9.76604 13.696 10.3598C13.3861 11.108 12.9318 11.7878 12.3592 12.3604C11.7866 12.933 11.1068 13.3873 10.3586 13.6972C10.1951 13.7649 10.0291 13.8254 9.86106 13.8786ZM6.13634 13.8786C5.95543 13.589 5.79279 13.2595 5.64884 12.8997C5.38517 12.2405 5.18037 11.4695 5.04174 10.6329C4.92869 9.95052 4.86066 9.23052 4.83932 8.49992H1.85233C1.90428 9.13845 2.0555 9.76604 2.30144 10.3598C2.61134 11.108 3.06558 11.7878 3.63821 12.3604C4.21083 12.933 4.89064 13.3873 5.63882 13.6972C5.80225 13.7649 5.96825 13.8254 6.13634 13.8786Z" fill="var(--Text-secondary, #3F3F46)" style="fill:#3F3F46;fill:color(display-p3 0.2471 0.2471 0.2745);fill-opacity:1;"/>
</svg>
