<svg width="14" height="16" viewBox="0 0 14 16" fill="none" xmlns="http://www.w3.org/2000/svg">
<g clip-path="url(#clip0_117_27725)">
<path d="M11.3273 3.68C11.3273 5.66187 9.49831 8 6.73102 8H4.06542L3.93458 8.8256L3.31271 12.8H0L1.99289 0H7.36C9.16729 0 10.5892 1.00729 11.1129 2.40711C11.2639 2.8141 11.3367 3.24598 11.3273 3.68Z" fill="#002991" style="fill:#002991;fill:color(display-p3 0.0000 0.1608 0.5686);fill-opacity:1;"/>
<path d="M13.2364 7.36018C13.0595 8.43446 12.5062 9.41075 11.6753 10.1143C10.8445 10.8179 9.79033 11.2028 8.7016 11.2002H6.85058L6.08009 16.0002H2.78516L3.31244 12.8002L3.93467 8.82578L4.06516 8.00018H6.73076C9.49449 8.00018 11.327 5.66204 11.327 3.68018C12.687 4.38204 13.4799 5.80035 13.2364 7.36018Z" fill="#60CDFF" style="fill:#60CDFF;fill:color(display-p3 0.3765 0.8039 1.0000);fill-opacity:1;"/>
<path d="M11.3283 3.6802C10.758 3.38188 10.0664 3.2002 9.3137 3.2002H4.81947L4.06641 8.0002H6.73201C9.49574 8.0002 11.3283 5.66206 11.3283 3.6802Z" fill="#008CFF" style="fill:#008CFF;fill:color(display-p3 0.0000 0.5490 1.0000);fill-opacity:1;"/>
</g>
<defs>
<clipPath id="clip0_117_27725">
<rect width="13.2803" height="16" fill="white" style="fill:white;fill-opacity:1;"/>
</clipPath>
</defs>
</svg>
