<svg width="16" height="16" viewBox="0 0 16 16" fill="none" xmlns="http://www.w3.org/2000/svg">
<path opacity="0.3" d="M14.6654 6.66553V11.3322C14.6654 11.8626 14.4547 12.3713 14.0796 12.7464C13.7045 13.1215 13.1958 13.3322 12.6654 13.3322H3.33203C2.8016 13.3322 2.29289 13.1215 1.91782 12.7464C1.54274 12.3713 1.33203 11.8626 1.33203 11.3322V6.66553H14.6654Z" fill="black" style="fill:black;fill-opacity:1;"/>
<path d="M12.6654 2.66553C13.1958 2.66553 13.7045 2.87624 14.0796 3.25131C14.4547 3.62639 14.6654 4.13509 14.6654 4.66553V5.33219H1.33203V4.66553C1.33203 4.13509 1.54274 3.62639 1.91782 3.25131C2.29289 2.87624 2.8016 2.66553 3.33203 2.66553H12.6654ZM11.9987 9.33219H9.9987C9.82189 9.33219 9.65232 9.40243 9.52729 9.52746C9.40227 9.65248 9.33203 9.82205 9.33203 9.99886C9.33203 10.1757 9.40227 10.3452 9.52729 10.4703C9.65232 10.5953 9.82189 10.6655 9.9987 10.6655H11.9987C12.1755 10.6655 12.3451 10.5953 12.4701 10.4703C12.5951 10.3452 12.6654 10.1757 12.6654 9.99886C12.6654 9.82205 12.5951 9.65248 12.4701 9.52746C12.3451 9.40243 12.1755 9.33219 11.9987 9.33219Z" fill="#6B6B6B" style="fill:#6B6B6B;fill:color(display-p3 0.4185 0.4185 0.4185);fill-opacity:1;"/>
</svg>
