<svg width="10" height="6" viewBox="0 0 10 6" fill="none" xmlns="http://www.w3.org/2000/svg">
<g clip-path="url(#clip0_117_27752)">
<path d="M6.3523 0.64209H3.64844V5.35876H6.3523V0.64209Z" fill="#FF5F00" style="fill:#FF5F00;fill:color(display-p3 1.0000 0.3725 0.0000);fill-opacity:1;"/>
<path d="M3.82046 3.00021C3.82046 2.08354 4.25823 1.20854 4.99642 0.641872C3.65737 -0.383128 1.71745 -0.158128 0.661659 1.15021C-0.394135 2.45021 -0.162376 4.33354 1.18526 5.35854C2.30973 6.21687 3.88054 6.21687 5.00501 5.35854C4.25822 4.79187 3.82046 3.91687 3.82046 3.00021Z" fill="#EB001B" style="fill:#EB001B;fill:color(display-p3 0.9216 0.0000 0.1059);fill-opacity:1;"/>
<path d="M9.99961 3.00021C9.99961 4.65854 8.61764 6.00021 6.90949 6.00021C6.21421 6.00021 5.54468 5.77521 5.00391 5.35854C6.34296 4.33354 6.57472 2.45021 5.51893 1.14187C5.36442 0.958539 5.19275 0.783539 5.00391 0.641872C6.34296 -0.383128 8.29146 -0.158128 9.33867 1.15021C9.76785 1.67521 9.99961 2.32521 9.99961 3.00021Z" fill="#F79E1B" style="fill:#F79E1B;fill:color(display-p3 0.9686 0.6196 0.1059);fill-opacity:1;"/>
<path d="M9.70852 4.85837V4.75837H9.75144V4.7417H9.64844V4.75837H9.69136V4.85837H9.70852ZM9.90595 4.85837V4.7417H9.87161L9.83728 4.82503L9.80294 4.7417H9.76861V4.85837H9.79436V4.7667L9.82869 4.8417H9.85445L9.88878 4.7667V4.85837H9.90595Z" fill="#F79E1B" style="fill:#F79E1B;fill:color(display-p3 0.9686 0.6196 0.1059);fill-opacity:1;"/>
</g>
<defs>
<clipPath id="clip0_117_27752">
<rect width="10" height="6" fill="white" style="fill:white;fill-opacity:1;"/>
</clipPath>
</defs>
</svg>
