<svg width="12" height="12" viewBox="0 0 12 12" fill="none" xmlns="http://www.w3.org/2000/svg">
<g clip-path="url(#clip0_117_27762)">
<path d="M1 6C1 4.11438 1 3.17157 1.58579 2.58579C2.17157 2 3.11438 2 5 2H7C8.88562 2 9.82843 2 10.4142 2.58579C11 3.17157 11 4.11438 11 6V7C11 8.88562 11 9.82843 10.4142 10.4142C9.82843 11 8.88562 11 7 11H5C3.11438 11 2.17157 11 1.58579 10.4142C1 9.82843 1 8.88562 1 7V6Z" stroke="#71717A" style="stroke:#71717A;stroke:color(display-p3 0.4431 0.4431 0.4784);stroke-opacity:1;" stroke-width="0.75"/>
<path opacity="0.5" d="M3.5 2V1.25" stroke="#71717A" style="stroke:#71717A;stroke:color(display-p3 0.4431 0.4431 0.4784);stroke-opacity:1;" stroke-width="0.75" stroke-linecap="round"/>
<path opacity="0.5" d="M8.5 2V1.25" stroke="#71717A" style="stroke:#71717A;stroke:color(display-p3 0.4431 0.4431 0.4784);stroke-opacity:1;" stroke-width="0.75" stroke-linecap="round"/>
<path opacity="0.5" d="M1.25 4.5H10.75" stroke="#71717A" style="stroke:#71717A;stroke:color(display-p3 0.4431 0.4431 0.4784);stroke-opacity:1;" stroke-width="0.75" stroke-linecap="round"/>
<path d="M9 8.5C9 8.77614 8.77614 9 8.5 9C8.22386 9 8 8.77614 8 8.5C8 8.22386 8.22386 8 8.5 8C8.77614 8 9 8.22386 9 8.5Z" fill="#71717A" style="fill:#71717A;fill:color(display-p3 0.4431 0.4431 0.4784);fill-opacity:1;"/>
<path d="M9 6.5C9 6.77614 8.77614 7 8.5 7C8.22386 7 8 6.77614 8 6.5C8 6.22386 8.22386 6 8.5 6C8.77614 6 9 6.22386 9 6.5Z" fill="#71717A" style="fill:#71717A;fill:color(display-p3 0.4431 0.4431 0.4784);fill-opacity:1;"/>
<path d="M6.5 8.5C6.5 8.77614 6.27614 9 6 9C5.72386 9 5.5 8.77614 5.5 8.5C5.5 8.22386 5.72386 8 6 8C6.27614 8 6.5 8.22386 6.5 8.5Z" fill="#71717A" style="fill:#71717A;fill:color(display-p3 0.4431 0.4431 0.4784);fill-opacity:1;"/>
<path d="M6.5 6.5C6.5 6.77614 6.27614 7 6 7C5.72386 7 5.5 6.77614 5.5 6.5C5.5 6.22386 5.72386 6 6 6C6.27614 6 6.5 6.22386 6.5 6.5Z" fill="#71717A" style="fill:#71717A;fill:color(display-p3 0.4431 0.4431 0.4784);fill-opacity:1;"/>
<path d="M4 8.5C4 8.77614 3.77614 9 3.5 9C3.22386 9 3 8.77614 3 8.5C3 8.22386 3.22386 8 3.5 8C3.77614 8 4 8.22386 4 8.5Z" fill="#71717A" style="fill:#71717A;fill:color(display-p3 0.4431 0.4431 0.4784);fill-opacity:1;"/>
<path d="M4 6.5C4 6.77614 3.77614 7 3.5 7C3.22386 7 3 6.77614 3 6.5C3 6.22386 3.22386 6 3.5 6C3.77614 6 4 6.22386 4 6.5Z" fill="#71717A" style="fill:#71717A;fill:color(display-p3 0.4431 0.4431 0.4784);fill-opacity:1;"/>
</g>
<defs>
<clipPath id="clip0_117_27762">
<rect width="12" height="12" fill="white" style="fill:white;fill-opacity:1;"/>
</clipPath>
</defs>
</svg>
