<svg width="12" height="12" viewBox="0 0 12 12" fill="none" xmlns="http://www.w3.org/2000/svg">
<path d="M1 6C1 4.11438 1 3.17157 1.58579 2.58579C2.17157 2 3.11438 2 5 2H7C8.88562 2 9.82843 2 10.4142 2.58579C11 3.17157 11 4.11438 11 6C11 7.88562 11 8.82843 10.4142 9.41421C9.82843 10 8.88562 10 7 10H5C3.11438 10 2.17157 10 1.58579 9.41421C1 8.82843 1 7.88562 1 6Z" stroke="#71717A" style="stroke:#71717A;stroke:color(display-p3 0.4431 0.4431 0.4784);stroke-opacity:1;" stroke-width="0.75"/>
<path opacity="0.5" d="M5 8H3" stroke="#71717A" style="stroke:#71717A;stroke:color(display-p3 0.4431 0.4431 0.4784);stroke-opacity:1;" stroke-width="0.75" stroke-linecap="round"/>
<path opacity="0.5" d="M7 8H6.25" stroke="#71717A" style="stroke:#71717A;stroke:color(display-p3 0.4431 0.4431 0.4784);stroke-opacity:1;" stroke-width="0.75" stroke-linecap="round"/>
<path opacity="0.5" d="M1 5L11 5" stroke="#71717A" style="stroke:#71717A;stroke:color(display-p3 0.4431 0.4431 0.4784);stroke-opacity:1;" stroke-width="0.75" stroke-linecap="round"/>
</svg>
