<svg width="20" height="20" viewBox="0 0 20 20" fill="none" xmlns="http://www.w3.org/2000/svg">
<path d="M1.66797 11.6667C1.66797 8.52397 1.66797 6.95262 2.64428 5.97631C3.62059 5 5.19194 5 8.33464 5H11.668C14.8107 5 16.382 5 17.3583 5.97631C18.3346 6.95262 18.3346 8.52397 18.3346 11.6667C18.3346 14.8094 18.3346 16.3807 17.3583 17.357C16.382 18.3333 14.8107 18.3333 11.668 18.3333H8.33463C5.19194 18.3333 3.62059 18.3333 2.64428 17.357C1.66797 16.3807 1.66797 14.8094 1.66797 11.6667Z" stroke="var(--Text-placeholder, #71717A)" style="stroke:#71717A;stroke:color(display-p3 0.4431 0.4431 0.4784);stroke-opacity:1;"/>
<path opacity="0.5" d="M13.3346 4.99984C13.3346 3.42849 13.3346 2.64281 12.8465 2.15466C12.3583 1.6665 11.5727 1.6665 10.0013 1.6665C8.42995 1.6665 7.64428 1.6665 7.15612 2.15466C6.66797 2.64281 6.66797 3.42849 6.66797 4.99984" stroke="var(--Text-placeholder, #71717A)" style="stroke:#71717A;stroke:color(display-p3 0.4431 0.4431 0.4784);stroke-opacity:1;"/>
<path opacity="0.5" d="M9.9987 14.4446C10.9192 14.4446 11.6654 13.8228 11.6654 13.0557C11.6654 12.2887 10.9192 11.6668 9.9987 11.6668C9.07822 11.6668 8.33203 11.045 8.33203 10.2779C8.33203 9.51088 9.07822 8.88905 9.9987 8.88905M9.9987 14.4446C9.07822 14.4446 8.33203 13.8228 8.33203 13.0557M9.9987 14.4446V15.0002M9.9987 8.3335V8.88905M9.9987 8.88905C10.9192 8.88905 11.6654 9.51088 11.6654 10.2779" stroke="var(--Text-placeholder, #71717A)" style="stroke:#71717A;stroke:color(display-p3 0.4431 0.4431 0.4784);stroke-opacity:1;" stroke-linecap="round"/>
</svg>
