<svg width="24" height="24" viewBox="0 0 24 24" fill="none" xmlns="http://www.w3.org/2000/svg">
<path d="M3.46447 20.5355C4.92893 22 7.28595 22 12 22C16.714 22 19.0711 22 20.5355 20.5355C22 19.0711 22 16.714 22 12C22 7.28595 22 4.92893 20.5355 3.46447C19.0711 2 16.714 2 12 2C7.28595 2 4.92893 2 3.46447 3.46447C2 4.92893 2 7.28595 2 12C2 16.714 2 19.0711 3.46447 20.5355Z" fill="url(#paint0_linear_117_27824)"/>
<path d="M14.5229 7.20342C15.7909 7.26776 16.7992 8.31618 16.7992 9.6002V14.4002L16.796 14.5238C16.7317 15.7919 15.6832 16.8002 14.3992 16.8002H9.59922C8.27374 16.8002 7.19922 15.7257 7.19922 14.4002V9.6002C7.19922 8.27471 8.27374 7.2002 9.59922 7.2002H14.3992L14.5229 7.20342ZM9.59922 8.1002C8.77079 8.1002 8.09922 8.77177 8.09922 9.6002V14.4002C8.09922 15.2286 8.77079 15.9002 9.59922 15.9002H14.3992C15.2276 15.9002 15.8992 15.2286 15.8992 14.4002V9.6002C15.8992 8.77177 15.2276 8.1002 14.3992 8.1002H9.59922ZM11.8492 13.8002C12.0977 13.8002 12.2992 14.0017 12.2992 14.2502C12.2992 14.4987 12.0977 14.7002 11.8492 14.7002H9.74922C9.50069 14.7002 9.29922 14.4987 9.29922 14.2502C9.29922 14.0017 9.50069 13.8002 9.74922 13.8002H11.8492ZM13.0492 12.0002C13.2977 12.0002 13.4992 12.2017 13.4992 12.4502C13.4992 12.6987 13.2977 12.9002 13.0492 12.9002H9.74922C9.50069 12.9002 9.29922 12.6987 9.29922 12.4502C9.29922 12.2017 9.50069 12.0002 9.74922 12.0002H13.0492Z" fill="white" style="fill:white;fill-opacity:1;"/>
<defs>
<linearGradient id="paint0_linear_117_27824" x1="-0.0192887" y1="17.4576" x2="21.9118" y2="17.4576" gradientUnits="userSpaceOnUse">
<stop stop-color="#ED7039" style="stop-color:#ED7039;stop-color:color(display-p3 0.9294 0.4392 0.2235);stop-opacity:1;"/>
<stop offset="0.99" stop-color="#EC7193" style="stop-color:#EC7193;stop-color:color(display-p3 0.9255 0.4431 0.5765);stop-opacity:1;"/>
</linearGradient>
</defs>
</svg>
