<svg width="33" height="6" viewBox="0 0 33 6" fill="none" xmlns="http://www.w3.org/2000/svg">
<path d="M27.3333 2.6665C27.3333 4.13926 28.5272 5.33317 30 5.33317C31.4728 5.33317 32.6667 4.13926 32.6667 2.6665C32.6667 1.19374 31.4728 -0.00016284 30 -0.00016284C28.5272 -0.00016284 27.3333 1.19374 27.3333 2.6665ZM0 2.6665V3.1665H1.875V2.6665V2.1665H0V2.6665ZM5.625 2.6665V3.1665H9.375V2.6665V2.1665H5.625V2.6665ZM13.125 2.6665V3.1665H16.875V2.6665V2.1665H13.125V2.6665ZM20.625 2.6665V3.1665H24.375V2.6665V2.1665H20.625V2.6665ZM28.125 2.6665V3.1665H30V2.6665V2.1665H28.125V2.6665Z" fill="#FC7C49" style="fill:#FC7C49;fill:color(display-p3 0.9882 0.4863 0.2863);fill-opacity:1;"/>
</svg>
