<svg width="27" height="32" viewBox="0 0 27 32" fill="none" xmlns="http://www.w3.org/2000/svg">
<g clip-path="url(#clip0_117_27283)">
<path d="M23.0293 7.36C23.0293 11.3237 19.3108 16 13.6847 16H8.26533L7.99931 17.6512L6.73501 25.6H0L4.0517 0H14.9635C18.6378 0 21.5286 2.01458 22.5934 4.81422C22.9005 5.62821 23.0484 6.49197 23.0293 7.36Z" fill="#002991" style="fill:#002991;fill:color(display-p3 0.0000 0.1608 0.5686);fill-opacity:1;"/>
<path d="M26.9122 14.7199C26.5527 16.8684 25.4277 18.821 23.7385 20.2282C22.0493 21.6353 19.9061 22.4051 17.6927 22.3999H13.9294L12.3629 31.9999H5.66406L6.73608 25.5999L8.00111 17.6511L8.2664 15.9999H13.6858C19.3047 15.9999 23.0304 11.3236 23.0304 7.35986C25.7954 8.7636 27.4074 11.6002 26.9122 14.7199Z" fill="#60CDFF" style="fill:#60CDFF;fill:color(display-p3 0.3765 0.8039 1.0000);fill-opacity:1;"/>
<path d="M23.0296 7.3599C21.8701 6.76328 20.4641 6.3999 18.9338 6.3999H9.79667L8.26562 15.9999H13.685C19.3039 15.9999 23.0296 11.3236 23.0296 7.3599Z" fill="#008CFF" style="fill:#008CFF;fill:color(display-p3 0.0000 0.5490 1.0000);fill-opacity:1;"/>
</g>
<defs>
<clipPath id="clip0_117_27283">
<rect width="27" height="32" fill="white" style="fill:white;fill-opacity:1;"/>
</clipPath>
</defs>
</svg>
