<svg width="59" height="24" viewBox="0 0 59 24" fill="none" xmlns="http://www.w3.org/2000/svg">
<path d="M10.7804 3.0942C10.0889 3.90485 8.98255 4.54424 7.87617 4.4529C7.73788 3.3568 8.27954 2.1922 8.9134 1.47288C9.60489 0.639391 10.815 0.0456708 11.7946 0C11.9098 1.14177 11.4604 2.2607 10.7804 3.0942ZM11.7831 4.66984C10.1811 4.5785 8.80968 5.57184 8.04905 5.57184C7.27689 5.57184 6.11289 4.71551 4.84516 4.73834C3.19712 4.76118 1.66433 5.68601 0.823023 7.1589C-0.905691 10.1047 0.373557 14.4662 2.04465 16.8639C2.86291 18.0514 3.84251 19.353 5.13328 19.3073C6.35491 19.2617 6.83895 18.5195 8.31411 18.5195C9.80081 18.5195 10.2272 19.3073 11.518 19.2845C12.8549 19.2617 13.6962 18.0971 14.5144 16.9096C15.4479 15.5623 15.8283 14.2493 15.8513 14.1808C15.8283 14.1579 13.2698 13.1874 13.2467 10.2645C13.2237 7.82112 15.2635 6.65652 15.3557 6.58801C14.2033 4.89819 12.4054 4.71551 11.7831 4.66984ZM21.0374 1.35871V19.1589H23.8264V13.0733H27.6872C31.2138 13.0733 33.6916 10.6755 33.6916 7.20457C33.6916 3.73359 31.2599 1.35871 27.7794 1.35871H21.0374ZM23.8264 3.68792H27.0418C29.462 3.68792 30.845 4.9667 30.845 7.21598C30.845 9.46527 29.462 10.7555 27.0303 10.7555H23.8264V3.68792ZM38.7856 19.2959C40.5373 19.2959 42.1623 18.4167 42.8999 17.0238H42.9575V19.1589H45.5391V10.2988C45.5391 7.72978 43.4646 6.07421 40.2723 6.07421C37.3104 6.07421 35.1207 7.75262 35.04 10.059H37.5524C37.7599 8.96289 38.7856 8.24358 40.1916 8.24358C41.8973 8.24358 42.8538 9.0314 42.8538 10.4814V11.4634L39.3733 11.6689C36.1349 11.863 34.3831 13.176 34.3831 15.4596C34.3831 17.7659 36.1925 19.2959 38.7856 19.2959ZM39.5347 17.1836C38.048 17.1836 37.103 16.4757 37.103 15.3911C37.103 14.2721 38.0134 13.6213 39.7537 13.5186L42.8538 13.3245V14.3292C42.8538 15.9962 41.4247 17.1836 39.5347 17.1836ZM48.985 24C51.7048 24 52.9841 22.9724 54.102 19.8554L59 6.24548H56.1649L52.8804 16.7612H52.8227L49.5382 6.24548H46.6224L51.3476 19.2046L51.094 19.9924C50.6676 21.3283 49.9761 21.8421 48.743 21.8421C48.524 21.8421 48.0976 21.8192 47.9247 21.7964V23.9315C48.0861 23.9772 48.7775 24 48.985 24Z" fill="black" style="fill:black;fill-opacity:1;"/>
</svg>
