<svg width="42" height="19" viewBox="0 0 42 19" fill="none" xmlns="http://www.w3.org/2000/svg">
<path fill-rule="evenodd" clip-rule="evenodd" d="M38.7453 13.1428L39.5938 15.4252C39.6819 15.6806 39.778 15.9838 39.842 16.2152H39.858C39.9301 15.9838 40.0101 15.6885 40.1061 15.4091L40.8746 13.1428H41.619L40.5623 15.8959C40.0581 17.2207 39.7139 17.899 39.2337 18.314C38.9684 18.5477 38.7032 18.6725 38.5149 18.732C38.4572 18.6287 38.1931 18.1783 38.1931 18.1783C38.3692 18.1226 38.6013 18.0108 38.8094 17.8353C39.0015 17.6835 39.2416 17.4122 39.4017 17.0531C39.4338 16.9813 39.4578 16.9254 39.4578 16.8855C39.4578 16.8457 39.4418 16.7897 39.4097 16.7021L37.9769 13.1428H38.7453ZM22.5227 13.0549C23.7073 13.0549 23.9956 13.8609 23.9956 14.635V16.0796C23.9956 16.4146 24.0115 16.7419 24.0596 17.0053H23.4192L23.3631 16.5184H23.3391C23.123 16.8217 22.7068 17.0931 22.1545 17.0931C21.37 17.0931 20.9697 16.5423 20.9697 15.9837C20.9697 15.0501 21.8022 14.5394 23.2991 14.5473V14.4674C23.2991 14.1483 23.211 13.5737 22.4186 13.5737C22.0927 13.5737 21.7537 13.6651 21.4905 13.8126C21.4248 13.7001 21.2499 13.3982 21.2499 13.3982C21.5701 13.1906 22.0343 13.0549 22.5227 13.0549ZM35.7042 13.0549C36.8888 13.0549 37.1771 13.8609 37.1771 14.635V16.0796C37.1771 16.4146 37.193 16.7419 37.2411 17.0053H36.6007L36.5447 16.5184H36.5207C36.3045 16.8217 35.8884 17.0931 35.336 17.0931C34.5516 17.0931 34.1513 16.5423 34.1513 15.9837C34.1513 15.0501 34.9837 14.5394 36.4807 14.5473V14.4674C36.4807 14.1483 36.3925 13.5737 35.6001 13.5737C35.2742 13.5737 34.9352 13.6651 34.672 13.8126C34.6063 13.7001 34.4315 13.3982 34.4315 13.3982C34.7517 13.1906 35.2159 13.0549 35.7042 13.0549ZM14.2314 11.5387C14.9039 11.5387 15.3282 11.6823 15.5122 11.7781C15.5122 11.7781 15.2994 12.1469 15.2123 12.2874C14.9607 12.1895 14.6337 12.1213 14.2554 12.1213C12.9907 12.1213 12.1503 12.9272 12.1503 14.3398C12.1503 15.6565 12.9107 16.5025 14.2234 16.5025C14.5817 16.5025 14.9457 16.4398 15.219 16.3387C15.2824 16.449 15.5042 16.8297 15.5042 16.8297C15.248 16.9574 14.7357 17.0851 14.0794 17.0851C12.5585 17.0851 11.4139 16.1274 11.4139 14.3637C11.4139 12.6799 12.5585 11.5387 14.2314 11.5387ZM8.99728 13.0549C10.262 13.0549 10.5982 14.1642 10.5982 14.8744C10.5982 15.018 10.5822 15.1298 10.5742 15.2017H7.85255C7.86861 16.1513 8.47697 16.5423 9.1814 16.5423C9.59679 16.5423 9.87643 16.4828 10.1098 16.3994C10.1745 16.5057 10.3741 16.8457 10.3741 16.8457C10.1259 16.9574 9.70164 17.0851 9.08528 17.0851C7.89261 17.0851 7.18025 16.3031 7.18025 15.1378C7.18025 13.9726 7.86861 13.0549 8.99728 13.0549ZM26.1881 12.0335V13.1428H27.1967V13.6775H26.1881V15.7603C26.1881 16.2391 26.3242 16.5104 26.7165 16.5104C26.7741 16.5104 26.827 16.5081 26.8752 16.5041C26.9579 16.6428 27.1566 16.9894 27.1566 16.9894C27.0205 17.0451 26.8045 17.0851 26.5324 17.0851C26.2042 17.0851 25.9401 16.9814 25.7719 16.7897C25.5718 16.5823 25.4998 16.2391 25.4998 15.7842V13.6775H24.8994V13.1428H25.4998V12.0335H26.1881ZM31.5263 11.5866C32.2147 11.5866 32.719 11.7462 33.0392 12.0335C33.3354 12.2888 33.5114 12.6799 33.5114 13.1587C33.5114 13.6456 33.3674 14.0286 33.0952 14.3079C32.727 14.6989 32.1267 14.8984 31.4463 14.8984C31.2382 14.8984 31.0461 14.8903 30.8859 14.8505V17.0053H30.1896V11.6903C30.5258 11.6344 30.966 11.5866 31.5263 11.5866ZM0.985594 11.6265L1.62596 14.3478C1.78608 15.018 1.93014 15.6885 2.02626 16.2073H2.0422C2.13026 15.6726 2.29838 15.0342 2.4825 14.3398L3.20287 11.6265H3.93123L4.58765 14.3557C4.73971 14.9941 4.88384 15.6326 4.96384 16.1993H4.9799C5.0919 15.6087 5.24408 15.01 5.4122 14.3398L6.12456 11.6265H6.83693L5.30808 17.0053H4.57959L3.89929 14.2042C3.73117 13.5179 3.61917 12.9912 3.54705 12.4484H3.53105C3.43505 12.9833 3.31493 13.5099 3.11487 14.2042L2.34644 17.0053H1.61796L0.249229 11.6265H0.985594ZM17.2965 11.3392V13.7493H17.3125C17.4245 13.5498 17.6007 13.3743 17.8167 13.2545C18.025 13.1348 18.273 13.055 18.5373 13.055C19.0575 13.055 19.89 13.3743 19.89 14.7069V17.0052H19.1856V14.7868C19.1856 14.1643 18.9535 13.6376 18.2891 13.6376C17.8327 13.6376 17.4726 13.9567 17.3445 14.3398C17.3045 14.4356 17.2965 14.5394 17.2965 14.675V17.0052H16.5921V11.3392H17.2965ZM21.6742 15.9039C21.6742 16.3588 21.9783 16.5744 22.3386 16.5744C22.8428 16.5744 23.163 16.255 23.275 15.928C23.2991 15.8561 23.3151 15.7762 23.3151 15.7045V15.0342C22.5466 15.018 21.6742 15.1537 21.6742 15.9039ZM34.8557 15.9039C34.8557 16.3588 35.1599 16.5744 35.5201 16.5744C36.0244 16.5744 36.3446 16.255 36.4566 15.928C36.4807 15.8561 36.4967 15.7762 36.4967 15.7045V15.0342C35.7282 15.018 34.8557 15.1537 34.8557 15.9039ZM8.94121 13.5577C8.22879 13.5577 7.91661 14.2121 7.86055 14.6989H9.91782C9.92582 14.252 9.7337 13.5577 8.94121 13.5577ZM31.5424 12.1373C31.2382 12.1373 31.006 12.1611 30.8859 12.193V14.284C31.0381 14.3238 31.2302 14.3398 31.4623 14.3398C32.3028 14.3398 32.8151 13.9328 32.8151 13.1906C32.8151 12.4804 32.3108 12.1373 31.5424 12.1373ZM26.8023 0.011142V1.42437H30.9944V2.15857H26.8023V3.69295H30.186C30.186 3.69295 29.7517 5.89749 27.2157 7.75362C28.2415 8.29235 29.5931 8.67392 31.241 8.93108C31.241 8.93108 30.9738 9.40359 30.7461 9.76903C28.9438 9.4567 27.5351 8.90903 26.4316 8.2674C25.3199 8.92522 23.8814 9.49809 22.022 9.82075C21.8923 9.63029 21.5399 9.00661 21.5399 9.00661C23.2252 8.74371 24.6135 8.31839 25.65 7.76359C23.1013 5.94123 22.6108 3.69295 22.6108 3.69295H25.9848V2.15857H21.6307V1.42437H25.9848V0.011142H26.8023ZM1.96854 2.71148L2.62212 3.05752C2.312 3.79347 2.02242 4.2942 1.94327 4.45142V9.79003H1.20685V5.60435C0.785515 6.16816 0.538121 6.46332 0.414849 6.60254C0.328182 6.45275 0 5.88604 0 5.88604C0.790727 5.05353 1.4877 3.91009 1.96854 2.71148ZM34.3657 0.0405439L35.2243 0.230755L35.1977 0.300363C34.85 1.20653 34.5244 1.97795 34.23 2.59335V9.79003H33.4125V4.14296C33.1314 4.60103 32.8044 5.06924 32.4373 5.53982L31.9844 4.75251C32.9474 3.44628 33.7577 1.85861 34.3474 0.0954683L34.3657 0.0405439ZM12.8669 0.0386103L13.6409 0.23148C13.6409 0.23148 13.148 1.77982 12.7711 2.59426L12.773 9.79003H11.9555V4.17196C11.628 4.78725 11.4086 5.19142 11.1307 5.55341L10.6883 4.78936C11.835 3.34604 12.8669 0.0386103 12.8669 0.0386103ZM7.6615 0L8.39792 0.147009L8.38071 0.21287C8.22895 0.793051 8.06101 1.36308 7.88095 1.90888H10.0838V2.60278H9.55307C9.41592 4.57347 9.06616 6.09988 8.51319 7.14103C8.95174 7.99214 9.79768 8.79039 10.0362 9.00598C9.98271 9.10713 9.61459 9.73601 9.61459 9.73601C9.61459 9.73601 8.39034 8.4858 8.11307 7.88109C7.80174 8.40266 7.22695 9.07891 6.4478 9.7722L6.05132 9.0823C6.05132 9.0823 7.11707 8.20054 7.72065 7.13674C7.34501 6.18024 7.09574 5.15365 6.97883 4.08133C6.84992 4.30804 6.77931 4.42973 6.64968 4.62362C6.64968 4.62362 6.3058 4.02779 6.23598 3.91637C6.85404 2.83227 7.3178 1.55498 7.64786 0.0616314L7.6615 0ZM40.3442 0.0832267V2.39341L41.763 2.39344V3.16807L40.3442 3.16804V8.19827C40.3442 8.99894 39.6908 9.65048 38.8876 9.65048H37.9352V8.80214H38.8876C39.2217 8.80214 39.4936 8.5312 39.4936 8.19827V3.16804L34.9515 3.16807V2.39344L39.4936 2.39341V0.0832267H40.3442ZM19.982 6.22933V9.60867H14.2235V6.22933H19.982ZM5.8313 5.82556V7.69161C5.96869 7.57541 6.39063 7.20556 6.53233 7.07982L6.87136 7.66532L5.31724 8.97324C5.31724 8.97324 4.98851 8.40732 4.92215 8.30019C5.0136 8.19904 5.13548 7.98937 5.13548 7.5901L5.1353 6.5194H3.7253C3.7253 8.11559 3.66106 8.6936 2.59306 9.52587C2.59306 9.52587 2.33536 9.07288 2.22106 8.88345C3.13815 8.16091 3.0293 7.17378 3.0293 5.82556H5.8313ZM19.205 6.96353H15.041V8.91477H19.205V6.96353ZM29.0415 4.41646H23.7777C24.0789 5.04135 24.8257 6.24806 26.4346 7.29694C28.0362 6.2312 28.7602 5.01694 29.0415 4.41646ZM36.6084 4.36632L38.0911 6.71605L37.3168 7.13738L35.9259 4.76892L36.6084 4.36632ZM8.85707 2.60278H7.64538C7.63319 2.6516 7.51859 2.93819 7.49331 2.99378C7.6441 4.43903 7.86756 5.54665 8.15816 6.28991C8.51816 5.42846 8.75319 4.18955 8.85707 2.60278ZM20.063 4.61423V5.30807H14.1425V4.61423H20.063ZM6.19582 4.25078V4.94462H2.86739V4.25078H6.19582ZM20.063 2.99912V3.69296H14.1425V2.99912H20.063ZM4.94029 0.172665V2.71647H5.69235V0.899432H6.34781V3.36994H2.79708V0.939855H3.49302V2.71647H4.24429V0.172665H4.94029ZM2.00684 0.00394562L2.64927 0.423462C2.16242 1.44866 1.40442 2.50799 0.516962 3.31663L0.129084 2.64685C0.833144 1.96962 1.49939 1.01585 2.00684 0.00394562ZM17.0987 0.0386224L17.6764 1.34363L20.63 1.34366V2.07785H13.6161V1.34366L16.8567 1.34363L16.4362 0.325752L17.0987 0.0386224Z" fill="#4D4D4D" style="fill:#4D4D4D;fill:color(display-p3 0.3020 0.3020 0.3020);fill-opacity:1;"/>
</svg>
