<svg width="23" height="20" viewBox="0 0 23 20" fill="none" xmlns="http://www.w3.org/2000/svg">
<path fill-rule="evenodd" clip-rule="evenodd" d="M8.26127 12.639C8.15873 12.6905 8.04333 12.7204 7.92061 12.7204C7.63661 12.7204 7.38988 12.5647 7.26006 12.3341L7.21048 12.2258L5.14279 7.7023C5.12048 7.65299 5.10667 7.5974 5.10667 7.5432C5.10667 7.3348 5.27618 7.1658 5.48527 7.1658C5.57018 7.1658 5.64861 7.19396 5.7117 7.24072L8.15176 8.97275C8.33 9.089 8.54297 9.15722 8.77206 9.15722C8.90867 9.15722 9.03897 9.13172 9.1603 9.08779L20.6349 3.99619C18.5781 1.5794 15.1907 0 11.3574 0C5.08467 0 0 4.22459 0 9.43625C0 12.2794 1.52982 14.8388 3.92424 16.5687C4.11636 16.7054 4.24212 16.9301 4.24212 17.1836C4.24212 17.2674 4.22418 17.344 4.20218 17.424C4.01091 18.1352 3.70491 19.2742 3.69055 19.3275C3.66673 19.4169 3.62945 19.51 3.62945 19.6034C3.62945 19.8118 3.79891 19.9807 4.0083 19.9807C4.09024 19.9807 4.15751 19.9503 4.22679 19.9105L6.71321 18.4793C6.9003 18.3718 7.09824 18.305 7.31648 18.305C7.43254 18.305 7.54467 18.3229 7.65012 18.3551C8.81018 18.6877 10.0616 18.8725 11.3574 18.8725C17.6299 18.8725 22.7152 14.6476 22.7152 9.43625C22.7152 7.8577 22.2461 6.37118 21.4215 5.06344L8.34412 12.5912L8.26127 12.639Z" fill="#1AAD19" style="fill:#1AAD19;fill:color(display-p3 0.1020 0.6784 0.0980);fill-opacity:1;"/>
</svg>
