<svg width="7" height="11" viewBox="0 0 7 11" fill="none" xmlns="http://www.w3.org/2000/svg">
<path d="M0 9.88345V0.37296C0 0.27972 0.0468334 0.18648 0.0936681 0.09324C0.187338 -9.03101e-08 0.28101 0 0.37468 0H1.45188C1.54555 0 1.63922 0.0466199 1.73289 0.09324C1.77972 0.18648 1.82656 0.27972 1.82656 0.37296V3.63636C2.10757 3.2634 2.43541 2.98368 2.85692 2.7972C3.27843 2.61072 3.69995 2.51748 4.1683 2.51748C5.76068 2.51748 6.69738 3.63636 6.69738 5.26806V9.88345C6.69738 9.97669 6.65054 10.0699 6.6037 10.1632C6.51003 10.2564 6.41637 10.2564 6.3227 10.2564H5.24549C5.15183 10.2564 5.05816 10.2098 4.96449 10.1632C4.87082 10.0699 4.87082 9.97669 4.87082 9.88345V5.68764C4.87082 4.8951 4.58981 4.14918 3.55944 4.14918C2.57591 4.14918 1.82656 4.84848 1.82656 5.96736V9.88345C1.82656 9.97669 1.77972 10.0699 1.73289 10.1632C1.63922 10.2564 1.54555 10.2564 1.45188 10.2564H0.37468C0.327845 10.2564 0.281009 10.2564 0.234174 10.2098C0.187339 10.2098 0.140503 10.1632 0.0936681 10.1165C0.0468334 10.0699 0.0468348 10.0233 0 9.97669C0 9.97669 0 9.93007 0 9.88345Z" fill="black" style="fill:black;fill-opacity:1;"/>
</svg>
