<svg width="8" height="11" viewBox="0 0 8 11" fill="none" xmlns="http://www.w3.org/2000/svg">
<path d="M1.82656 0.512821V1.11888C2.10757 0.745921 2.43541 0.466201 2.85693 0.27972C3.27844 0.0932403 3.69995 0 4.1683 0C6.22903 0 7.58724 1.72494 7.58724 3.9627C7.58724 6.20047 6.22903 7.92541 4.1683 7.92541C3.69995 7.92541 3.27844 7.83217 2.85693 7.64569C2.43541 7.45921 2.10757 7.13287 1.82656 6.75991V9.83683C1.82656 9.93007 1.77973 10.0233 1.73289 10.1165C1.63922 10.2098 1.54555 10.2098 1.45188 10.2098H0.37468C0.28101 10.2098 0.187345 10.1632 0.0936753 10.1165C5.71574e-06 10.0233 0 9.93007 0 9.83683V0.512821C0 0.419581 0.0468405 0.32634 0.0936753 0.2331C0.14051 0.13986 0.28101 0.139861 0.37468 0.139861H1.45188C1.49872 0.139861 1.54555 0.13986 1.59239 0.18648C1.63922 0.18648 1.68606 0.2331 1.73289 0.27972C1.77973 0.32634 1.77973 0.37296 1.82656 0.41958C1.82656 0.41958 1.8734 0.466201 1.82656 0.512821ZM3.79362 6.29371C5.05816 6.29371 5.66701 5.22144 5.66701 3.91608C5.66701 2.61072 5.05816 1.53846 3.79362 1.53846C2.52908 1.53846 1.82656 2.5641 1.82656 3.91608C1.82656 5.22144 2.52908 6.29371 3.79362 6.29371Z" fill="black" style="fill:black;fill-opacity:1;"/>
</svg>
