<svg width="8" height="11" viewBox="0 0 8 11" fill="none" xmlns="http://www.w3.org/2000/svg">
<path d="M1.82655 0.512821V1.11888C2.10756 0.745921 2.4354 0.466201 2.85692 0.27972C3.27843 0.0932403 3.69995 0 4.16829 0C6.22902 0 7.58723 1.72494 7.58723 3.9627C7.58723 6.20047 6.22902 7.92541 4.16829 7.92541C3.69995 7.92541 3.27843 7.83217 2.85692 7.64569C2.4354 7.45921 2.10756 7.13287 1.82655 6.75991V9.83683C1.82655 9.93007 1.77972 10.0233 1.73289 10.1165C1.68605 10.2098 1.54554 10.2098 1.45187 10.2098H0.374673C0.281003 10.2098 0.187338 10.1632 0.0936682 10.1165C-1.43068e-06 10.0233 0 9.93007 0 9.83683V0.512821C0 0.419581 0.0468334 0.32634 0.0936682 0.2331C0.140503 0.13986 0.281003 0.139861 0.374673 0.139861H1.45187C1.49871 0.139861 1.54555 0.13986 1.59238 0.18648C1.63921 0.18648 1.68605 0.2331 1.73289 0.27972C1.77972 0.32634 1.77972 0.37296 1.82655 0.41958C1.82655 0.41958 1.82655 0.466201 1.82655 0.512821ZM3.79361 6.29371C5.05815 6.29371 5.66701 5.22144 5.66701 3.91608C5.66701 2.61072 5.05815 1.53846 3.79361 1.53846C2.52907 1.53846 1.82655 2.5641 1.82655 3.91608C1.82655 5.22144 2.48224 6.29371 3.79361 6.29371Z" fill="black" style="fill:black;fill-opacity:1;"/>
</svg>
