<svg width="26" height="15" viewBox="0 0 26 15" fill="none" xmlns="http://www.w3.org/2000/svg">
<path d="M32.1271 0H28.6418C28.3228 0 28.0658 0.25608 28.0658 0.574433V11.5165H30.5199V7.60272H32.1271C34.5018 7.60272 36.6539 6.12509 36.6539 3.62314C36.6539 1.1212 34.5018 0 32.1271 0ZM30.5199 6.42614V1.17653C30.5199 1.17653 31.2767 1.18 32.1271 1.18C33.3319 1.18 34.658 2.09014 34.658 3.65081C34.658 5.21153 33.3283 6.42614 32.1271 6.42614H30.5199ZM40.8335 2.89298C38.9764 2.89298 38.0215 3.34629 38.0215 3.34629L38.2473 4.03148C38.2473 4.03148 38.9483 3.70966 40.3159 3.70966C41.8401 3.70966 42.1489 4.44672 42.1489 5.45373L42.1279 5.90362C41.8018 5.80674 41.0383 5.68214 40.257 5.68214C39.0942 5.68214 37.1782 6.395 37.1782 8.72739C37.1782 10.9456 38.8684 11.6688 40.066 11.6688C41.0553 11.6688 41.6594 11.3643 42.1453 11.0632V11.52H44.5963V5.45373C44.6066 3.53663 42.6942 2.89298 40.8335 2.89298ZM40.9375 10.5857C39.8719 10.5857 39.108 9.80361 39.108 8.64434C39.108 7.48506 40.1321 6.80681 41.0624 6.80681C41.5309 6.80681 41.9789 6.93483 42.1525 7.08366V10.0493C41.854 10.3123 41.5033 10.5857 40.9375 10.5857ZM50.3377 12.5616C49.5916 14.2054 48.3663 14.4165 47.8175 14.4822C47.2414 14.548 46.6235 14.5203 46.6235 14.5203V13.1776C47.7171 13.1776 48.3106 13.2641 48.9562 11.9872L49.3935 10.8798L45.3634 2.88951H47.9357L50.5773 8.20139L52.9136 2.88951H54.5869C54.5905 2.89298 51.0842 10.9213 50.3377 12.5616ZM4.06149 0H0.576273C0.256879 0 0 0.25608 0 0.574433V11.5165H2.45426V7.60272H4.06149C6.43589 7.60272 8.58811 6.12509 8.58811 3.62314C8.59155 1.1212 6.43932 0 4.06149 0ZM2.4577 6.42614V1.17653C2.4577 1.17653 3.21446 1.18 4.06493 1.18C5.26951 1.18 6.59554 2.09014 6.59554 3.65081C6.59554 5.21153 5.26602 6.42614 4.06493 6.42614H2.4577ZM12.7711 2.89298C10.9139 2.89298 9.95926 3.34629 9.95926 3.34629L10.1849 4.03148C10.1849 4.03148 10.8826 3.70966 12.2538 3.70966C13.7777 3.70966 14.0867 4.44672 14.0867 5.45373L14.0659 5.90362C13.7396 5.80674 12.9759 5.68214 12.1948 5.68214C11.0354 5.68214 9.11575 6.395 9.11575 8.72739C9.11575 10.9456 10.8063 11.6688 12.0039 11.6688C12.9932 11.6688 13.5938 11.3643 14.0832 11.0632V11.52H16.534V5.45373C16.5409 3.53663 14.6282 2.89298 12.7711 2.89298ZM12.8752 10.5857C11.8095 10.5857 11.0458 9.80361 11.0458 8.64434C11.0458 7.48506 12.0699 6.80681 13.0001 6.80681C13.4688 6.80681 13.9166 6.93483 14.0901 7.08366V10.0493C13.7881 10.3123 13.4376 10.5857 12.8752 10.5857ZM22.2722 12.5616C21.5257 14.2054 20.3004 14.4165 19.7519 14.4822C19.1757 14.548 18.5578 14.5203 18.5578 14.5203V13.1776C19.6512 13.1776 20.2448 13.2641 20.8903 11.9872L21.3281 10.8798L17.2977 2.88951H19.8699L22.5114 8.20139L24.8477 2.88951H26.521C26.5246 2.89298 23.0183 10.9213 22.2722 12.5616Z" fill="#3F3A39" style="fill:#3F3A39;fill:color(display-p3 0.2471 0.2275 0.2235);fill-opacity:1;"/>
</svg>
