<svg width="50" height="24" viewBox="0 0 50 24" fill="none" xmlns="http://www.w3.org/2000/svg">
<g clip-path="url(#clip0_117_27928)">
<path d="M23.625 12.4092V18.2675H21.75V3.7793H26.625C27.8125 3.7793 28.9375 4.22024 29.8125 5.03914C30.6875 5.79505 31.125 6.9289 31.125 8.12575C31.125 9.3226 30.6875 10.3935 29.8125 11.2124C28.9375 12.0313 27.875 12.4722 26.625 12.4722L23.625 12.4092ZM23.625 5.54308V10.5824H26.75C27.4375 10.5824 28.125 10.3305 28.5625 9.82654C29.5625 8.88166 29.5625 7.30686 28.625 6.36197L28.5625 6.29898C28.0625 5.79505 27.4375 5.48008 26.75 5.54308H23.625Z" fill="#5F6368" style="fill:#5F6368;fill:color(display-p3 0.3725 0.3882 0.4078);fill-opacity:1;"/>
<path d="M35.4375 8.06299C36.8125 8.06299 37.875 8.44094 38.6875 9.19685C39.5 9.95275 39.875 10.9606 39.875 12.2205V18.2677H38.125V16.8819H38.0625C37.3125 18.0157 36.25 18.5827 35 18.5827C33.9375 18.5827 33 18.2677 32.25 17.6378C31.5625 17.0079 31.125 16.126 31.125 15.1811C31.125 14.1732 31.5 13.3543 32.25 12.7244C33 12.0945 34.0625 11.8425 35.3125 11.8425C36.4375 11.8425 37.3125 12.0315 38 12.4724V12.0315C38 11.4016 37.75 10.7716 37.25 10.3937C36.75 9.95275 36.125 9.70078 35.4375 9.70078C34.375 9.70078 33.5625 10.1417 33 11.0236L31.375 10.0157C32.375 8.69291 33.6875 8.06299 35.4375 8.06299ZM33.0625 15.2441C33.0625 15.748 33.3125 16.189 33.6875 16.4409C34.125 16.7559 34.625 16.9449 35.125 16.9449C35.875 16.9449 36.625 16.6299 37.1875 16.063C37.8125 15.4961 38.125 14.8031 38.125 14.0472C37.5625 13.6063 36.75 13.3543 35.6875 13.3543C34.9375 13.3543 34.3125 13.5433 33.8125 13.9213C33.3125 14.2362 33.0625 14.6772 33.0625 15.2441Z" fill="#5F6368" style="fill:#5F6368;fill:color(display-p3 0.3725 0.3882 0.4078);fill-opacity:1;"/>
<path d="M50 8.37793L43.8125 22.6771H41.9375L44.25 17.7008L40.1875 8.44092H42.1875L45.125 15.559H45.1875L48.0625 8.44092H50V8.37793Z" fill="#5F6368" style="fill:#5F6368;fill:color(display-p3 0.3725 0.3882 0.4078);fill-opacity:1;"/>
<path d="M16.1875 11.1495C16.1875 10.5826 16.125 10.0157 16.0625 9.44873H8.25V12.6613H12.6875C12.5 13.6692 11.9375 14.6141 11.0625 15.181V17.2598H13.75C15.3125 15.8109 16.1875 13.6692 16.1875 11.1495Z" fill="#4285F4" style="fill:#4285F4;fill:color(display-p3 0.2588 0.5216 0.9569);fill-opacity:1;"/>
<path d="M8.25 19.2758C10.5 19.2758 12.375 18.5199 13.75 17.2601L11.0625 15.1813C10.3125 15.6853 9.375 16.0002 8.25 16.0002C6.125 16.0002 4.25 14.5514 3.625 12.5356H0.875V14.6774C2.3125 17.512 5.125 19.2758 8.25 19.2758Z" fill="#34A853" style="fill:#34A853;fill:color(display-p3 0.2039 0.6588 0.3255);fill-opacity:1;"/>
<path d="M3.625 12.5355C3.25 11.5276 3.25 10.3938 3.625 9.32289V7.18115H0.875C-0.3125 9.51186 -0.3125 12.2835 0.875 14.6772L3.625 12.5355Z" fill="#FBBC04" style="fill:#FBBC04;fill:color(display-p3 0.9843 0.7373 0.0157);fill-opacity:1;"/>
<path d="M8.25 5.92107C9.4375 5.92107 10.5625 6.36201 11.4375 7.18091L13.8125 4.78721C12.3125 3.40138 10.3125 2.58249 8.3125 2.64548C5.1875 2.64548 2.3125 4.40926 0.9375 7.2439L3.6875 9.38564C4.25 7.36989 6.125 5.92107 8.25 5.92107Z" fill="#EA4335" style="fill:#EA4335;fill:color(display-p3 0.9176 0.2627 0.2078);fill-opacity:1;"/>
</g>
<defs>
<clipPath id="clip0_117_27928">
<rect width="50" height="24" fill="white" style="fill:white;fill-opacity:1;"/>
</clipPath>
</defs>
</svg>
