<svg width="20" height="20" viewBox="0 0 20 20" fill="none" xmlns="http://www.w3.org/2000/svg">
<path fill-rule="evenodd" clip-rule="evenodd" d="M16.2542 12.56C19.0827 13.52 19.76 13.56 19.76 13.56V3.2C19.76 1.44 18.3258 0 16.6127 0H3.14725C1.43419 0 0 1.44 0 3.2V16.8C0 18.56 1.43419 20 3.14725 20H16.5729C18.3258 20 19.7201 18.56 19.7201 16.8V16.68C19.7201 16.68 14.5809 14.52 11.9914 13.24C10.2385 15.4 8.00757 16.72 5.69693 16.72C1.7529 16.72 0.398386 13.24 2.2708 10.92C2.66919 10.4 3.38628 9.96 4.46193 9.68C6.13515 9.28 8.80434 9.96 11.3142 10.76C11.7524 9.92 12.1508 9 12.4297 8H4.70096V7.2H8.68482V5.8H3.86435V5H8.68482V3C8.68482 3 8.68482 2.64 9.04337 2.64H10.9955V5H15.7761V5.8H10.9955V7.2H14.8997C14.5411 8.76 13.9435 10.16 13.2663 11.4C14.4216 11.88 15.4574 12.28 16.2542 12.56Z" fill="#1677FF" style="fill:#1677FF;fill:color(display-p3 0.0863 0.4667 1.0000);fill-opacity:1;"/>
</svg>
