<svg width="11" height="15" viewBox="0 0 11 15" fill="none" xmlns="http://www.w3.org/2000/svg">
<path fill-rule="evenodd" clip-rule="evenodd" d="M4.22289 9.04C3.86435 9.04 3.54564 9 3.14725 8.88V3.12C3.78467 2.68 4.34241 2.44 5.01967 2.44C6.17499 2.44 7.13111 3.36 7.13111 5.36C7.09128 7.92 5.73676 9.04 4.22289 9.04ZM6.21482 0C5.0595 0 4.18306 0.44 3.14725 1.28V0.24H0V14.28H3.14725V10.8C3.74483 10.96 4.30257 11.04 4.97983 11.04C7.76853 11.04 10.2784 8.96 10.2784 5.28C10.2784 1.96 8.44579 0 6.21482 0Z" fill="black" style="fill:black;fill-opacity:1;"/>
</svg>
