<svg width="10" height="11" viewBox="0 0 10 11" fill="none" xmlns="http://www.w3.org/2000/svg">
<path d="M7.49357 10.0699L6.69738 7.78555H2.76326L1.96706 10.0699C1.92022 10.1632 1.8734 10.2098 1.82656 10.2564C1.77973 10.303 1.68606 10.303 1.59239 10.303H0.37468C0.327845 10.303 0.234178 10.303 0.187343 10.2564C0.140509 10.2098 0.0936724 10.2098 0.0468376 10.1166C2.85787e-06 10.0699 0 10.0233 0 9.93007C0 9.88345 0 9.79021 0 9.74359L3.55945 0.2331C3.60628 0.18648 3.65312 0.0932398 3.69995 0.0466198C3.74679 -2.67457e-07 3.84046 0 3.93413 0H5.66701C5.76068 0 5.80752 0.0466198 5.90119 0.0466198C5.94802 0.0932398 5.99486 0.13986 6.04169 0.2331L9.5543 9.74359C9.5543 9.79021 9.60114 9.88345 9.5543 9.93007C9.5543 9.97669 9.50746 10.0699 9.50746 10.1166C9.46063 10.1632 9.41379 10.2098 9.36696 10.2564C9.32012 10.303 9.27329 10.303 9.17962 10.303H7.82141C7.72774 10.303 7.6809 10.2564 7.58723 10.2098C7.5404 10.2098 7.49357 10.1632 7.49357 10.0699ZM4.77715 1.72494L3.27843 6.20047H6.22903L4.77715 1.72494Z" fill="black" style="fill:black;fill-opacity:1;"/>
</svg>
