<svg width="20" height="20" viewBox="0 0 20 20" fill="none" xmlns="http://www.w3.org/2000/svg">
<path fill-rule="evenodd" clip-rule="evenodd" d="M4.63664 0C2.06073 0 0 2.05128 0 4.61538V15.3846C0 17.9487 2.06073 20 4.63664 20H15.3618C17.9377 20 19.9985 17.9487 19.9985 15.3846V4.61538C19.9985 2.05128 17.9377 0 15.3618 0H4.63664ZM13.2542 7.45921C12.5049 6.80653 11.5214 6.48019 10.5378 6.48019C9.6948 6.48019 8.89861 6.75991 8.89861 7.50583C8.89861 8.20513 9.64797 8.48485 10.5378 8.81119C10.6315 8.85781 10.7252 8.85781 10.8188 8.90443C12.5986 9.51049 14.0973 10.2564 14.0973 11.9814C14.0973 13.8928 12.5986 15.1515 10.21 15.338L9.97581 16.3636C9.92898 16.5501 9.78847 16.69 9.5543 16.69H8.05558C7.91508 16.69 7.82141 16.6434 7.72774 16.5501C7.63407 16.4569 7.63407 16.317 7.63407 16.2238L7.86824 15.1515C6.97838 14.9184 6.13536 14.4522 5.43284 13.7995C5.33917 13.7063 5.29233 13.6131 5.29233 13.5198C5.29233 13.4266 5.33917 13.2867 5.43284 13.2401L6.27586 12.4009C6.41637 12.2611 6.69737 12.2611 6.83788 12.4009C7.58724 13.1469 8.66444 13.5198 9.6948 13.5198C10.772 13.5198 11.5214 13.0536 11.5214 12.3077C11.5214 11.655 10.9125 11.4219 9.74164 11.0023C9.60113 10.9557 9.50746 10.9091 9.36696 10.8625C7.86824 10.3496 6.4632 9.55711 6.4632 7.83217C6.4632 5.78089 8.14925 4.80186 10.21 4.70862L10.4442 3.68298C10.4442 3.35664 10.6315 3.2634 10.8188 3.2634H12.3175C12.4581 3.2634 12.5517 3.31002 12.6454 3.40326C12.7391 3.4965 12.7391 3.63636 12.7391 3.7296L12.5049 4.8951C13.2542 5.1282 14.0036 5.54779 14.6125 6.06061C14.7061 6.15385 14.753 6.24709 14.753 6.34033C14.753 6.43357 14.7061 6.57343 14.6125 6.62005L13.8163 7.41259C13.6758 7.59907 13.3947 7.59907 13.2542 7.45921Z" fill="#00D54B" style="fill:#00D54B;fill:color(display-p3 0.0000 0.8353 0.2941);fill-opacity:1;"/>
</svg>
