<svg width="70" height="31" viewBox="0 0 70 31" fill="none" xmlns="http://www.w3.org/2000/svg">
<path d="M17.1221 9.87793C18.0053 9.87795 18.7217 10.5943 18.7217 11.4775V13.8291C18.7217 14.7123 18.0053 15.4287 17.1221 15.4287H10.5371C7.78356 15.4287 5.551 17.6606 5.55078 20.4141C5.55078 23.1677 7.78343 25.4004 10.5371 25.4004H17.1221C18.0053 25.4004 18.7217 26.1168 18.7217 27V29.3516C18.7217 30.2348 18.0053 30.9512 17.1221 30.9512H10.5371C4.71801 30.9512 0 26.2332 0 20.4141C0.000214106 14.5951 4.71814 9.87793 10.5371 9.87793H17.1221ZM68.8633 6.11523C69.4868 6.11523 69.9922 6.62067 69.9922 7.24414V29.8223C69.992 30.4456 69.4867 30.9512 68.8633 30.9512H65.1006C64.4772 30.9512 63.9718 30.4456 63.9717 29.8223V7.24414C63.9717 6.62067 64.4771 6.11523 65.1006 6.11523H68.8633ZM51.9551 9.87793C56.729 9.87818 60.585 13.6348 60.585 18.251V29.8223C60.5848 30.4455 60.0793 30.9511 59.4561 30.9512H56.3613C55.738 30.9511 55.2326 30.4456 55.2324 29.8223V19.6826L55.2256 19.4199C55.0849 16.7238 52.7913 14.5929 49.999 14.5928H47.6865V29.8223C47.6864 30.4456 47.181 30.9511 46.5576 30.9512H43.4629C42.8396 30.9511 42.3341 30.4455 42.334 29.8223V11.4775C42.334 10.5943 43.0503 9.87793 43.9336 9.87793H51.9551ZM37.3486 9.87793C37.9719 9.87817 38.4775 10.3836 38.4775 11.0068V29.8223C38.4774 30.4455 37.9718 30.9509 37.3486 30.9512H33.585C32.9617 30.951 32.4562 30.4455 32.4561 29.8223V11.0068C32.4561 10.3835 32.9616 9.87805 33.585 9.87793H37.3486ZM27.4707 0C28.0939 0.000216124 28.5995 0.505631 28.5996 1.12891V29.8223C28.5995 30.4455 28.0939 30.951 27.4707 30.9512H23.707C23.0838 30.951 22.5783 30.4455 22.5781 29.8223V1.12891C22.5782 0.505586 23.0837 0.000143722 23.707 0H27.4707ZM37.1133 0.94043C37.7365 0.940578 38.2419 1.44617 38.2422 2.06934V5.59766C38.2422 6.22102 37.7366 6.72641 37.1133 6.72656H33.585C32.9616 6.72644 32.4561 6.22104 32.4561 5.59766V2.06934C32.4563 1.44615 32.9617 0.940554 33.585 0.94043H37.1133Z" fill="var(-----, #111622)" style="fill:#111622;fill:color(display-p3 0.0685 0.0857 0.1317);fill-opacity:1;"/>
</svg>
