<svg width="13" height="20" viewBox="0 0 13 20" fill="none" xmlns="http://www.w3.org/2000/svg">
<path d="M9.87793 2.3629e-10C11.2083 3.67258e-10 11.8738 -0.000216368 12.2871 0.413086C12.7003 0.826402 12.7002 1.49193 12.7002 2.82227V3.7627C12.7002 5.09295 12.7003 5.75855 12.2871 6.17188C11.8738 6.58518 11.2083 6.58496 9.87793 6.58496H8.9375C8.80445 6.58496 8.67802 6.58489 8.55783 6.58437C7.98624 6.5819 7.4298 6.81472 7.05772 7.24864C6.72401 7.63783 6.57266 8.1516 6.58121 8.6642C6.58491 8.88591 6.58496 9.13236 6.58496 9.40723V10.3477C6.58496 10.6556 6.58407 10.9279 6.57809 11.1697C6.56863 11.5525 6.65451 11.9353 6.85514 12.2614C7.21316 12.8433 7.87821 13.1731 8.56142 13.1704C8.68052 13.17 8.80575 13.1699 8.9375 13.1699H9.87793C11.2084 13.1699 11.8738 13.1707 12.2871 13.584C12.7002 13.9973 12.7002 14.6622 12.7002 15.9922V16.9336C12.7002 18.2639 12.7004 18.9295 12.2871 19.3428C11.8738 19.7559 11.2081 19.7559 9.87793 19.7559H8.9375C7.60721 19.7559 6.94164 19.756 6.52832 19.3428C6.11503 18.9295 6.11523 18.2639 6.11523 16.9336V15.9922C6.11523 15.7602 6.11533 15.5484 6.11764 15.3547C6.12435 14.7935 5.94543 14.2331 5.56624 13.8194C5.17827 13.3961 4.62027 13.1684 4.04606 13.1697C3.95509 13.1699 3.86069 13.1699 3.7627 13.1699H2.82227C1.49184 13.1699 0.826396 13.1701 0.413086 12.7568C-3.60032e-05 12.3435 2.30625e-10 11.6779 2.30625e-10 10.3477V9.40723C4.28183e-10 8.07686 -0.00021469 7.41135 0.413086 6.99805C0.8264 6.5848 1.49191 6.58496 2.82227 6.58496H3.7627C3.85601 6.58496 3.94605 6.58499 4.03296 6.58517C4.77935 6.58676 5.50317 6.20732 5.86879 5.55661C6.0473 5.2389 6.1257 4.87541 6.11932 4.51104C6.11542 4.28794 6.11523 4.03972 6.11523 3.7627V2.82227C6.11523 1.49184 6.11501 0.826396 6.52832 0.413086C6.94164 -7.12358e-05 7.60724 2.3629e-10 8.9375 2.3629e-10H9.87793Z" fill="var(-----, #111622)" style="fill:#111622;fill:color(display-p3 0.0685 0.0857 0.1317);fill-opacity:1;"/>
</svg>
