<svg width="10" height="12" viewBox="0 0 10 12" fill="none" xmlns="http://www.w3.org/2000/svg">
<path fill-rule="evenodd" clip-rule="evenodd" d="M6.13515 8.28C5.29853 8.72 4.82047 8.92 4.26273 8.92C3.5058 8.92 3.02774 8.44 3.02774 7.64C3.02774 7.36 3.06758 7.04 3.30661 6.8C3.66515 6.44 4.42209 6.16 6.09531 5.76L6.13515 8.28ZM9.24256 8.2V3.76C9.24256 1.32 7.80837 0 5.29854 0C3.70499 0 2.58951 0.28 0.557738 0.88L1.11548 3.32C2.94806 2.48 3.78467 2.12 4.62128 2.12C5.65709 2.12 6.09531 2.84 6.09531 4V4.08C2.50983 4.76 1.39435 5.12 0.717097 5.84C0.199194 6.36 0 7.08 0 7.96C0 10 1.59354 11.12 3.06757 11.12C4.18305 11.12 5.05951 10.72 6.2945 9.8L6.4937 10.92H9.64095L9.24256 8.2Z" fill="black" style="fill:black;fill-opacity:1;"/>
</svg>
