<svg width="10" height="11" viewBox="0 0 10 11" fill="none" xmlns="http://www.w3.org/2000/svg">
<path d="M7.96192 3.0303C7.86825 3.07692 7.77457 3.07692 7.6809 3.07692C7.58723 3.07692 7.49357 2.98368 7.44673 2.93706C7.16572 2.5641 6.79105 2.23776 6.36953 2.00466C5.94802 1.77156 5.47967 1.67832 4.96449 1.67832C3.0911 1.67832 1.92023 3.17016 1.92023 5.26806C1.92023 7.36597 3.0911 8.90443 4.96449 8.90443C5.43284 8.90443 5.94802 8.81119 6.36953 8.57809C6.79105 8.34499 7.16572 8.01865 7.44673 7.59907C7.49357 7.50583 7.58723 7.45921 7.6809 7.45921C7.77457 7.45921 7.86825 7.45921 7.96192 7.50583L8.85177 8.01865C8.89861 8.06527 8.94545 8.06527 8.99228 8.11189C9.03911 8.15851 9.03911 8.20513 9.08595 8.25175C9.08595 8.29837 9.08595 8.34499 9.08595 8.39161C9.08595 8.43823 9.03911 8.48485 9.03911 8.53147C8.6176 9.18415 8.00875 9.69697 7.30623 10.0699C6.60371 10.4429 5.80751 10.5828 5.05816 10.5828C2.06073 10.5828 0 8.39161 0 5.26806C0 2.14452 2.06073 0 5.01132 0C5.76068 0 6.55687 0.13986 7.25939 0.4662C7.96192 0.792541 8.57077 1.30536 8.99228 1.95804C9.03911 2.00466 9.03911 2.05128 9.03911 2.0979C9.03911 2.14452 9.03911 2.19114 9.03911 2.23776C9.03911 2.28438 8.99228 2.331 8.99228 2.37762C8.94545 2.42424 8.94545 2.47086 8.89861 2.47086L7.96192 3.0303Z" fill="black" style="fill:black;fill-opacity:1;"/>
</svg>
