<svg width="7" height="8" viewBox="0 0 7 8" fill="none" xmlns="http://www.w3.org/2000/svg">
<path d="M4.82399 7.41259V6.99301C4.35564 7.59907 3.69995 7.97203 2.62275 7.97203C1.0772 7.97203 0 7.13287 0 5.64103C0 3.77622 1.63922 3.44988 2.66959 3.31002C3.74679 3.17016 4.68348 3.07692 4.68348 2.37762C4.68348 1.72494 3.93412 1.58508 3.32527 1.58508C2.62275 1.58508 1.92023 1.77156 1.26454 2.0979C1.21771 2.14452 1.17087 2.14452 1.12404 2.14452C1.0772 2.14452 1.03036 2.14452 0.98353 2.14452C0.936695 2.14452 0.889863 2.0979 0.843028 2.05128C0.796193 2.00466 0.796191 1.95804 0.749356 1.91142L0.421514 1.25874C0.421514 1.11888 0.421514 1.02564 0.421514 0.932401C0.468349 0.83916 0.515184 0.74592 0.608854 0.6993C1.49871 0.2331 2.48224 0 3.51261 0C5.29233 0 6.55687 0.745921 6.55687 2.51748V7.41259C6.55687 7.50583 6.51004 7.59907 6.4632 7.69231C6.36953 7.78555 6.27586 7.78555 6.18219 7.78555H5.19866C5.15183 7.78555 5.10499 7.78555 5.05816 7.73893C5.01132 7.73893 4.96449 7.69231 4.91765 7.64569C4.87082 7.59907 4.87082 7.55245 4.82399 7.50583C4.82399 7.50583 4.82399 7.45921 4.82399 7.41259ZM4.68348 4.00932C4.35564 4.28904 3.69995 4.33566 3.04426 4.47552C2.38857 4.61538 1.77972 4.75524 1.77972 5.50117C1.77972 6.15385 2.24807 6.48019 2.99743 6.48019C3.88729 6.48019 4.68348 6.01399 4.68348 4.84848V4.00932Z" fill="black" style="fill:black;fill-opacity:1;"/>
</svg>
