<svg width="7" height="8" viewBox="0 0 7 8" fill="none" xmlns="http://www.w3.org/2000/svg">
<path d="M0.655688 5.8275C0.702523 5.73426 0.796192 5.68764 0.889862 5.68764C0.983531 5.68764 1.0772 5.68765 1.17087 5.78089C1.77972 6.24709 2.57592 6.48019 3.37211 6.48019C4.1683 6.48019 4.77715 6.20047 4.77715 5.5944C4.77715 5.03496 4.21513 4.8951 2.90376 4.662C1.49872 4.4289 0.140506 3.9627 0.140506 2.37762C0.140506 0.6993 1.59238 0 3.2316 0C4.26197 0 5.29233 0.32634 6.08852 0.9324C6.13536 0.97902 6.18219 1.02564 6.18219 1.02564C6.22903 1.07226 6.22903 1.11888 6.22903 1.1655C6.22903 1.21212 6.22903 1.25874 6.22903 1.30536C6.22903 1.35198 6.18219 1.3986 6.13536 1.44522L5.66701 2.00466C5.62017 2.0979 5.5265 2.14452 5.43284 2.14452C5.33917 2.14452 5.2455 2.14452 5.15183 2.05128C4.58981 1.6317 3.88729 1.3986 3.13793 1.3986C2.43541 1.3986 1.82656 1.58508 1.82656 2.14452C1.82656 2.75058 2.66958 2.84382 3.51261 3.0303C5.33917 3.35664 6.4632 3.86946 6.4632 5.3613C6.4632 6.94639 5.19866 7.92541 3.18477 7.92541C2.06073 7.97203 0.983532 7.59907 0.140506 6.94639C0.093671 6.89977 0.0468341 6.85315 0.0468341 6.85315C-7.1534e-07 6.80653 0 6.75991 0 6.71329C0 6.66667 0 6.62005 0 6.57343C0 6.52681 0.0468369 6.48019 0.0936717 6.43357L0.655688 5.8275Z" fill="black" style="fill:black;fill-opacity:1;"/>
</svg>
