<svg width="20" height="20" viewBox="0 0 20 20" fill="none" xmlns="http://www.w3.org/2000/svg">
<path d="M3.82889 19.6072H2.90899C1.30868 19.6072 0 18.3026 0 16.7073V6.13545C2.61043 5.87248 5.04386 5.87942 7.17873 6.08359L3.82889 19.6072ZM15.6592 10.468C16.1209 8.5959 13.0904 6.86219 8.24097 6.20814L6.481 13.5098C10.5459 13.7036 15.1628 12.4821 15.6592 10.468ZM16.7596 0H2.90899C1.36075 0 0.0902673 1.22155 0.0069608 2.74419C11.6047 2.4189 17.2456 6.44002 16.3604 10.4507C15.562 14.06 11.8824 15.4443 5.90472 15.901L5.00915 19.6107H16.7596C18.3599 19.6107 19.6686 18.3061 19.6686 16.7108V2.89988C19.6686 1.30459 18.3599 0 16.7596 0Z" fill="#FF0033" style="fill:#FF0033;fill:color(display-p3 1.0000 0.0000 0.2000);fill-opacity:1;"/>
</svg>
