<svg width="20" height="20" viewBox="0 0 20 20" fill="none" xmlns="http://www.w3.org/2000/svg">
<path opacity="0.5" d="M1.66797 9.99984H18.3346M13.3346 9.99984C13.3346 11.0942 13.2484 12.1778 13.0809 13.1889C12.9134 14.1999 12.6679 15.1186 12.3583 15.8924C12.0488 16.6662 11.6813 17.28 11.2769 17.6988C10.8725 18.1176 10.439 18.3332 10.0013 18.3332C9.56356 18.3332 9.13011 18.1176 8.72569 17.6988C8.32127 17.28 7.95381 16.6662 7.64428 15.8924C7.33475 15.1186 7.08922 14.1999 6.9217 13.1889C6.75419 12.1778 6.66797 11.0942 6.66797 9.99984C6.66797 8.90549 6.75419 7.82185 6.9217 6.81081C7.08922 5.79976 7.33475 4.8811 7.64428 4.10728C7.95381 3.33346 8.32127 2.71963 8.72569 2.30084C9.13011 1.88205 9.56356 1.6665 10.0013 1.6665C10.439 1.6665 10.8725 1.88205 11.2769 2.30084C11.6813 2.71963 12.0488 3.33346 12.3583 4.10728C12.6679 4.8811 12.9134 5.79976 13.0809 6.81081C13.2484 7.82186 13.3346 8.90549 13.3346 9.99984Z" stroke="var(--Text-placeholder, #71717A)" style="stroke:#71717A;stroke:color(display-p3 0.4431 0.4431 0.4784);stroke-opacity:1;" stroke-linecap="round"/>
<path d="M18.3346 9.99984C18.3346 11.0942 18.1191 12.1778 17.7003 13.1889C17.2815 14.1999 16.6677 15.1186 15.8939 15.8924C15.12 16.6662 14.2014 17.28 13.1903 17.6988C12.1793 18.1176 11.0957 18.3332 10.0013 18.3332C8.90695 18.3332 7.82332 18.1176 6.81227 17.6988C5.80123 17.28 4.88257 16.6662 4.10875 15.8924C3.33492 15.1186 2.72109 14.1999 2.30231 13.1889C1.88352 12.1778 1.66797 11.0942 1.66797 9.99984C1.66797 8.90549 1.88352 7.82185 2.30231 6.81081C2.7211 5.79976 3.33492 4.8811 4.10875 4.10728C4.88257 3.33346 5.80123 2.71963 6.81227 2.30084C7.82332 1.88205 8.90695 1.6665 10.0013 1.6665C11.0957 1.6665 12.1793 1.88205 13.1903 2.30084C14.2014 2.71963 15.12 3.33346 15.8939 4.10728C16.6677 4.8811 17.2815 5.79976 17.7003 6.81081C18.1191 7.82186 18.3346 8.90549 18.3346 9.99984L18.3346 9.99984Z" stroke="var(--Text-placeholder, #71717A)" style="stroke:#71717A;stroke:color(display-p3 0.4431 0.4431 0.4784);stroke-opacity:1;"/>
</svg>
