<svg width="20" height="20" viewBox="0 0 20 20" fill="none" xmlns="http://www.w3.org/2000/svg">
<path fill-rule="evenodd" clip-rule="evenodd" d="M18.3346 9.99984C18.3346 14.6022 14.6037 18.3332 10.0013 18.3332C5.39893 18.3332 1.66797 14.6022 1.66797 9.99984C1.66797 5.39746 5.39893 1.6665 10.0013 1.6665C14.6037 1.6665 18.3346 5.39746 18.3346 9.99984Z" fill="var(--Surface-default, white)" style="fill: var(--Surface-default, white);fill-opacity:1;"/>
<path fill-rule="evenodd" clip-rule="evenodd" d="M10 4.375C10.3452 4.375 10.625 4.65482 10.625 5V5.26395C11.9837 5.50722 13.125 6.52801 13.125 7.91667C13.125 8.26184 12.8452 8.54167 12.5 8.54167C12.1548 8.54167 11.875 8.26184 11.875 7.91667C11.875 7.35128 11.4049 6.75283 10.625 6.53957V9.43061C11.9837 9.67389 13.125 10.6947 13.125 12.0833C13.125 13.472 11.9837 14.4928 10.625 14.7361V15C10.625 15.3452 10.3452 15.625 10 15.625C9.65482 15.625 9.375 15.3452 9.375 15V14.7361C8.01631 14.4928 6.875 13.472 6.875 12.0833C6.875 11.7382 7.15482 11.4583 7.5 11.4583C7.84518 11.4583 8.125 11.7382 8.125 12.0833C8.125 12.6487 8.59508 13.2472 9.375 13.4604V10.5694C8.01631 10.3261 6.875 9.30533 6.875 7.91667C6.875 6.52801 8.01631 5.50722 9.375 5.26395V5C9.375 4.65482 9.65482 4.375 10 4.375ZM9.375 6.53957C8.59508 6.75283 8.125 7.35128 8.125 7.91667C8.125 8.48205 8.59508 9.08051 9.375 9.29377V6.53957ZM11.875 12.0833C11.875 11.518 11.4049 10.9195 10.625 10.7062V13.4604C11.4049 13.2472 11.875 12.6487 11.875 12.0833Z" fill="url(#paint0_linear_117_27356)"/>
<defs>
<linearGradient id="paint0_linear_117_27356" x1="6.24397" y1="13.0699" x2="13.0974" y2="13.0699" gradientUnits="userSpaceOnUse">
<stop stop-color="#ED7039" style="stop-color:#ED7039;stop-color:color(display-p3 0.9294 0.4392 0.2235);stop-opacity:1;"/>
<stop offset="0.99" stop-color="#EC7193" style="stop-color:#EC7193;stop-color:color(display-p3 0.9255 0.4431 0.5765);stop-opacity:1;"/>
</linearGradient>
</defs>
</svg>
