<svg width="30" height="181" viewBox="0 0 30 181" fill="none" xmlns="http://www.w3.org/2000/svg">
<path d="M0 180.125C7.47556 180.125 13.5361 174.064 13.5361 166.589L13.5361 106.776C13.5363 97.8256 20.6787 90.5437 29.5752 90.3184L30 90.3125V89.8125C20.9071 89.8125 13.5363 82.4414 13.5361 73.3486L13.5361 13.5361C13.5361 6.06059 7.47555 0 0 0L0 0.5C7.19941 0.5 13.0361 6.33673 13.0361 13.5361L13.0361 73.3486C13.0363 81.7236 19.1051 88.6805 27.085 90.0625C19.1051 91.4445 13.0363 98.4014 13.0361 106.776L13.0361 166.589C13.0361 173.788 7.19942 179.625 0 179.625L0 180.125Z" fill="var(--Text-disable, #B8B8BC)" style="fill:#B8B8BC;fill:color(display-p3 0.7216 0.7216 0.7373);fill-opacity:1;"/>
</svg>
