<svg width="48" height="48" viewBox="0 0 48 48" fill="none" xmlns="http://www.w3.org/2000/svg">
<rect width="48" height="48" rx="24" fill="#006CFF" style="fill:#006CFF;fill:color(display-p3 0.0000 0.4235 1.0000);fill-opacity:1;"/>
<path d="M26.6713 24.2811C26.5659 24.0716 26.56 23.9349 26.6713 23.7124L31.0822 16.2319C31.3027 15.8382 31.0381 15.2695 30.5088 15.2695H20.7165C20.4959 15.2695 20.3089 15.3768 20.1872 15.5758L15.247 23.6687C15.1291 23.8689 15.1334 24.1253 15.247 24.3248L20.1872 32.4178C20.2959 32.6172 20.4769 32.7241 20.7165 32.7241H30.5088C30.994 32.7241 31.3027 32.199 31.0822 31.7616L26.6713 24.2811ZM28.8326 16.9319L25.6126 22.4001L22.3927 16.9319H28.8326ZM17.0113 24.0624L20.8047 17.763L24.5099 24.0624L20.8047 30.3618L17.0113 24.0624ZM22.4368 31.193L25.6567 25.7247L28.8767 31.193H22.4368Z" fill="white" style="fill:white;fill-opacity:1;"/>
</svg>
