<svg width="48" height="48" viewBox="0 0 48 48" fill="none" xmlns="http://www.w3.org/2000/svg">
<rect width="48" height="48" rx="24" fill="#00B846" style="fill:#00B846;fill:color(display-p3 0.0000 0.7216 0.2745);fill-opacity:1;"/>
<path d="M16.7375 22.2C14.725 22.4 13 23.6 13 25C13 27.5294 13.0763 30.5383 15.3957 31.5475C16.0582 31.8358 16.8122 32 17.6 32H35.1375C35.7125 32 36 31.8 36 31.4V19.4C36 17.4 33.9875 16 31.1125 16H14.15C13.575 16 13.2875 16.2 13.2875 16.6V19.2C13.2875 19.6 13.575 19.8 14.15 19.8H24.5C26.225 20 26.8 20.2 26.8 21.2V26.6C26.8 28 26.8 28 24.7875 28C23.35 28 22.775 27.6 22.775 26.6C22.775 24.0595 20.7134 21.9724 18.1761 22.0991C17.6528 22.1252 17.1576 22.1583 16.7375 22.2Z" fill="white" style="fill:white;fill-opacity:1;"/>
</svg>
