<svg width="48" height="48" viewBox="0 0 48 48" fill="none" xmlns="http://www.w3.org/2000/svg">
<rect width="48" height="48" rx="24" fill="#615CF6" style="fill:#615CF6;fill:color(display-p3 0.3804 0.3608 0.9647);fill-opacity:1;"/>
<path d="M24.3449 18.827C23.1979 18.827 22.5093 19.1713 22.5093 19.9758L22.5081 19.9781C22.5081 22.3916 30.8831 21.2428 31 27.7935C31 31.7013 27.9016 34 23.3113 34C21.2596 33.9787 19.2326 33.5488 17.3484 32.7353V27.5629C19.1792 28.5844 21.2186 29.1739 23.3113 29.2866C24.4595 29.2866 25.3773 28.9412 25.3773 27.9071C25.3773 25.2641 17 26.2958 17 20.2065C17 16.2987 19.9838 14 24.4595 14C26.3066 13.9983 28.1371 14.3493 29.853 15.034V20.2065C28.1406 19.3466 26.2599 18.8756 24.3449 18.827Z" fill="white" style="fill:white;fill-opacity:1;"/>
</svg>
