<svg width="37" height="12" viewBox="0 0 37 12" fill="none" xmlns="http://www.w3.org/2000/svg">
<path d="M24.1071 0C21.4834 0 19.1277 1.36941 19.1277 3.88235C19.1277 6.77647 23.289 6.97412 23.289 8.41412C23.289 9.02118 22.5837 9.57177 21.3988 9.57177C19.7061 9.57177 18.4365 8.80941 18.4365 8.80941L17.9005 11.3506C17.9005 11.3506 19.3534 12 21.3 12C24.1777 12 26.4346 10.5741 26.4346 8.00471C26.4346 4.95529 22.2592 4.75765 22.2592 3.41647C22.2592 2.93647 22.8376 2.41412 24.0225 2.41412C25.3626 2.41412 26.4628 2.96471 26.4628 2.96471L26.9989 0.508235C26.9848 0.508235 25.7857 0 24.1071 0ZM0.0705299 0.183529L0 0.550588C0 0.550588 1.10027 0.748235 2.10179 1.15765C3.38544 1.62353 3.47007 1.89176 3.69577 2.72471L6.05147 11.8024H9.21121L14.0496 0.183529H10.9039L7.7865 8.08941L6.51697 1.38353C6.40412 0.621177 5.81167 0.183529 5.07816 0.183529H0.0705299ZM15.3191 0.183529L12.8506 11.8024H15.8551L18.3096 0.183529H15.3191ZM32.0488 0.183529C31.3294 0.183529 30.9485 0.564706 30.6664 1.24235L26.2653 11.8024H29.411L30.0175 10.0376H33.8544L34.2211 11.8024H37L34.5879 0.183529H32.0488ZM32.4579 3.33176L33.3889 7.69412H30.8921L32.4579 3.33176Z" fill="#AAAAAA" style="fill:#AAAAAA;fill:color(display-p3 0.6667 0.6667 0.6667);fill-opacity:1;"/>
</svg>
