<svg width="26" height="16" viewBox="0 0 26 16" fill="none" xmlns="http://www.w3.org/2000/svg">
<g clip-path="url(#clip0_117_27383)">
<path d="M16.5144 1.71143H9.48438V14.2892H16.5144V1.71143Z" fill="#8D8D8D" style="fill:#8D8D8D;fill:color(display-p3 0.5513 0.5513 0.5513);fill-opacity:1;"/>
<path d="M9.92928 7.9999C9.92928 5.55545 11.0675 3.22212 12.9868 1.71101C9.50525 -1.02233 4.46147 -0.422326 1.71641 3.06656C-1.02866 6.53323 -0.426083 11.5555 3.07778 14.2888C6.00139 16.5777 10.0855 16.5777 13.0091 14.2888C11.0675 12.7777 9.92928 10.4443 9.92928 7.9999Z" fill="#AAAAAA" style="fill:#AAAAAA;fill:color(display-p3 0.6667 0.6667 0.6667);fill-opacity:1;"/>
<path d="M25.9967 8.00038C25.9967 12.4226 22.4035 16.0004 17.9623 16.0004C16.1546 16.0004 14.4138 15.4004 13.0078 14.2893C16.4894 11.5559 17.0919 6.53372 14.3469 3.04483C13.9452 2.55594 13.4988 2.08927 13.0078 1.7115C16.4894 -1.02184 21.5555 -0.421837 24.2782 3.06705C25.3941 4.46705 25.9967 6.20038 25.9967 8.00038Z" fill="#AAAAAA" style="fill:#AAAAAA;fill:color(display-p3 0.6667 0.6667 0.6667);fill-opacity:1;"/>
<path d="M25.2383 12.9556V12.689H25.3498V12.6445H25.082V12.689H25.1936V12.9556H25.2383ZM25.7516 12.9556V12.6445H25.6623L25.573 12.8668L25.4837 12.6445H25.3945V12.9556H25.4614V12.7112L25.5507 12.9112H25.6177L25.7069 12.7112V12.9556H25.7516Z" fill="#F79E1B" style="fill:#F79E1B;fill:color(display-p3 0.9686 0.6196 0.1059);fill-opacity:1;"/>
</g>
<defs>
<clipPath id="clip0_117_27383">
<rect width="26" height="16" fill="white" style="fill:white;fill-opacity:1;"/>
</clipPath>
</defs>
</svg>
