<svg width="23" height="16" viewBox="0 0 23 16" fill="none" xmlns="http://www.w3.org/2000/svg">
<path d="M16.5927 8.32338C17.1896 8.33596 17.7898 8.29782 18.3843 8.34319C18.9864 8.45211 19.1315 9.33593 18.5966 9.62539C18.2317 9.81608 17.7981 9.69642 17.4025 9.73005L16.5927 9.73005L16.5927 8.32338ZM18.7295 6.73122C18.8621 7.18512 18.4108 7.59266 17.96 7.53015L16.5927 7.53015C16.6023 7.10211 16.574 6.63751 16.6066 6.23201C17.1543 6.24696 17.7072 6.2015 18.2517 6.25578C18.4857 6.31279 18.6816 6.49932 18.7295 6.73122ZM22.0201 3.16126e-05C22.0455 0.866865 22.0238 1.77951 22.0311 2.66393C22.0294 6.25964 22.0347 9.85526 22.0282 13.4512C22.0042 14.7987 20.7726 15.9697 19.3925 15.9966C18.0112 16.002 16.6296 15.9974 15.248 15.9989L15.248 10.563C16.7533 10.5554 18.2593 10.5783 19.764 10.5516C20.462 10.5091 21.2266 10.0624 21.2591 9.31756C21.3413 8.56945 20.6139 8.052 19.9234 7.97028C19.6579 7.96359 19.6657 7.89524 19.9234 7.86542C20.582 7.72738 21.0992 7.06635 20.9054 6.40432C20.7403 5.70802 19.9467 5.43853 19.2866 5.43987C17.9406 5.431 16.5943 5.43863 15.2483 5.43605C15.257 4.42122 15.2302 3.4053 15.2628 2.39121C15.3694 1.06796 16.632 -0.0232974 17.9926 0.00037813C19.3353 0.00018001 20.6777 0.000180148 22.0201 0.000130619L22.0201 3.16126e-05Z" fill="#AAAAAA" style="fill:#AAAAAA;fill:color(display-p3 0.6667 0.6667 0.6667);fill-opacity:1;"/>
<path d="M0.0358022 2.52851C0.0701772 1.18307 1.30701 0.0217249 2.68528 0.00206127C4.06156 -0.00204975 5.43804 0.00146714 6.81431 0.000278406C6.81053 4.50186 6.82177 9.00393 6.80864 13.5053C6.75563 14.8344 5.53227 15.9736 4.16902 15.9971C2.79014 16.0019 1.41111 15.9978 0.0321758 15.9991L0.0321758 10.3799C1.37157 10.6867 2.77615 10.8173 4.14257 10.6138C4.95934 10.4864 5.85299 10.0974 6.12952 9.2757C6.33301 8.57281 6.21845 7.83308 6.24873 7.11167L6.24873 5.4363L3.88401 5.4363C3.87339 6.54434 3.90577 7.65432 3.8669 8.76103C3.80316 9.44128 3.10846 9.87348 2.44685 9.8504C1.62635 9.85882 0.000405256 9.27377 0.000405256 9.27377C-0.00368093 7.19775 0.0242077 4.59785 0.0358022 2.52871L0.0358022 2.52851Z" fill="#AAAAAA" style="fill:#AAAAAA;fill:color(display-p3 0.6667 0.6667 0.6667);fill-opacity:1;"/>
<path d="M7.69748 6.11231C7.573 6.13792 7.67245 5.70116 7.64063 5.53548C7.64911 4.48791 7.6229 3.4392 7.65508 2.39237C7.76142 1.06352 9.0337 -0.0304578 10.3999 0.000647346L14.4231 0.000647351C14.4193 4.50222 14.4305 9.00429 14.4174 13.5056C14.3643 14.8347 13.1409 15.9739 11.7776 15.9975C10.3987 16.0025 9.0196 15.9982 7.64058 15.9995L7.64058 9.8429C8.58238 10.5922 9.86242 10.7089 11.0358 10.7109C11.9203 10.7106 12.7997 10.5784 13.6587 10.3805L13.6587 9.25264C12.6907 9.7205 11.5527 10.0177 10.4795 9.74889C9.73095 9.5682 9.18754 8.86665 9.19965 8.1175C9.11292 7.33844 9.58385 6.51593 10.3733 6.28433C11.3536 5.98675 12.4219 6.21434 13.3407 6.60123C13.5376 6.70118 13.7374 6.82515 13.6587 6.50608L13.6587 5.61953C12.122 5.26499 10.4866 5.13453 8.94273 5.52022C8.49586 5.64246 8.06048 5.82786 7.69748 6.11241L7.69748 6.11231Z" fill="#AAAAAA" style="fill:#AAAAAA;fill:color(display-p3 0.6667 0.6667 0.6667);fill-opacity:1;"/>
</svg>
