<svg width="20" height="16" viewBox="0 0 20 16" fill="none" xmlns="http://www.w3.org/2000/svg">
<path d="M12.6732 0H12.7986L13.1982 0.00290888C13.2176 0.00195404 13.2371 0.00244013 13.2565 0.00436332C12.8424 4.10182 11.5021 7.13164 9.23582 9.09236L14.117 16H9.72145L4.3503 8.29673C7.70454 6.41309 9.48082 3.64945 9.68353 0.00581776L10.5994 0.00290888L11.8244 0H12.6732ZM3.52924 0.00436332V15.968H0V0.00436332H3.52924ZM17.6462 11.408C18.9471 11.408 20 12.4276 20 13.6873C20 14.9469 18.9471 15.968 17.6477 15.968C16.3483 15.968 15.2939 14.9469 15.2939 13.6873C15.2939 12.4276 16.3483 11.4065 17.6477 11.4065L17.6462 11.408Z" fill="#AAAAAA" style="fill:#AAAAAA;fill:color(display-p3 0.6667 0.6667 0.6667);fill-opacity:1;"/>
</svg>
