<svg width="130" height="112" viewBox="0 0 130 112" fill="none" xmlns="http://www.w3.org/2000/svg">
<path d="M8 96C12.4183 96 16 99.5817 16 104C16 108.418 12.4183 112 8 112C3.58172 112 0 108.418 0 104C0 99.5817 3.58172 96 8 96ZM122 96C126.418 96 130 99.5817 130 104C130 108.418 126.418 112 122 112H32C27.5817 112 24 108.418 24 104C24 99.5817 27.5817 96 32 96H122ZM8 64C12.4183 64 16 67.5817 16 72C16 76.4183 12.4183 80 8 80C3.58172 80 0 76.4183 0 72C0 67.5817 3.58172 64 8 64ZM122 64C126.418 64 130 67.5817 130 72C130 76.4183 126.418 80 122 80H32C27.5817 80 24 76.4183 24 72C24 67.5817 27.5817 64 32 64H122ZM8 32C12.4183 32 16 35.5817 16 40C16 44.4183 12.4183 48 8 48C3.58172 48 0 44.4183 0 40C0 35.5817 3.58172 32 8 32ZM122 32C126.418 32 130 35.5817 130 40C130 44.4183 126.418 48 122 48H32C27.5817 48 24 44.4183 24 40C24 35.5817 27.5817 32 32 32H122ZM40 0C44.4183 5.15405e-07 48 3.58172 48 8C48 12.4183 44.4183 16 40 16H8C3.58172 16 0 12.4183 0 8C0 3.58172 3.58172 1.28851e-07 8 0H40Z" fill="#E5E0D9" style="fill:#E5E0D9;fill:color(display-p3 0.8980 0.8784 0.8510);fill-opacity:1;"/>
</svg>
