<svg width="16" height="16" viewBox="0 0 16 16" fill="none" xmlns="http://www.w3.org/2000/svg">
<path d="M12.1667 9.33333V10.3C12.1667 11.4201 12.1667 11.9802 11.9487 12.408C11.7569 12.7843 11.451 13.0903 11.0746 13.282C10.6468 13.5 10.0868 13.5 8.96667 13.5H5.7C4.5799 13.5 4.01984 13.5 3.59202 13.282C3.21569 13.0903 2.90973 12.7843 2.71799 12.408C2.5 11.9802 2.5 11.4201 2.5 10.3V5.91667C2.5 5.83929 2.5 5.80061 2.50107 5.7679C2.53555 4.71467 3.38134 3.86888 4.43456 3.8344C4.46727 3.83333 4.50596 3.83333 4.58333 3.83333H6.16667M13.5 6.83333V2.5H9.16667M13.5 2.5L7.33333 8.66667" stroke="var(--Text-disable, #B8B8BC)" style="stroke:#B8B8BC;stroke:color(display-p3 0.7216 0.7216 0.7373);stroke-opacity:1;" stroke-width="1.5" stroke-linecap="round" stroke-linejoin="round"/>
</svg>
