<svg width="67" height="6" viewBox="0 0 67 6" fill="none" xmlns="http://www.w3.org/2000/svg">
<path d="M61.3333 2.6665C61.3333 4.13926 62.5272 5.33317 64 5.33317C65.4728 5.33317 66.6667 4.13926 66.6667 2.6665C66.6667 1.19374 65.4728 -0.00016284 64 -0.00016284C62.5272 -0.00016284 61.3333 1.19374 61.3333 2.6665ZM0 2.6665V3.1665H2V2.6665V2.1665H0V2.6665ZM6 2.6665V3.1665H10V2.6665V2.1665H6V2.6665ZM14 2.6665V3.1665H18V2.6665V2.1665H14V2.6665ZM22 2.6665V3.1665H26V2.6665V2.1665H22V2.6665ZM30 2.6665V3.1665H34V2.6665V2.1665H30V2.6665ZM38 2.6665V3.1665H42V2.6665V2.1665H38V2.6665ZM46 2.6665V3.1665H50V2.6665V2.1665H46V2.6665ZM54 2.6665V3.1665H58V2.6665V2.1665H54V2.6665ZM62 2.6665V3.1665H64V2.6665V2.1665H62V2.6665Z" fill="#FC7C49" style="fill:#FC7C49;fill:color(display-p3 0.9882 0.4863 0.2863);fill-opacity:1;"/>
</svg>
