<svg width="46" height="17" viewBox="0 0 46 17" fill="none" xmlns="http://www.w3.org/2000/svg">
<path d="M6.50293 2.58789C8.79279 2.58789 10.4691 3.71345 11.5313 5.96484L10.5381 6.39941C9.68544 6.77116 8.69641 6.64558 7.97363 6.05957C7.9192 6.01547 7.86038 5.97353 7.80176 5.93359C7.38278 5.65433 6.88816 5.51367 6.31836 5.51367C5.71513 5.51372 5.17666 5.68773 4.70117 6.03418C4.22564 6.38069 3.8566 6.85961 3.59473 7.4707C3.3308 8.07967 3.20122 8.77715 3.20117 9.5625C3.20117 10.3478 3.33296 11.0875 3.59473 11.7217C3.8566 12.3538 4.22562 12.8498 4.70117 13.209C5.17668 13.566 5.7151 13.747 6.31836 13.7471C6.77293 13.7471 7.18405 13.6441 7.55273 13.4404C8.67979 12.8167 9.98266 12.5997 11.1621 13.1162L11.5615 13.291C11.0587 14.3766 10.3576 15.2103 9.45898 15.792C8.56023 16.3759 7.51876 16.666 6.33301 16.666C5.1474 16.666 4.02678 16.3636 3.06738 15.7588C2.10789 15.1539 1.3551 14.3119 0.8125 13.2324C0.269887 12.1508 0 10.9279 0 9.56055C3.2944e-05 8.19348 0.274597 7.01544 0.821289 5.95703C1.36806 4.89857 2.13472 4.07289 3.11719 3.47852C4.09975 2.88624 5.2271 2.58789 6.50293 2.58789ZM29.8574 4.87305C30.9927 4.87314 31.8723 5.24078 32.4902 5.97363C33.1083 6.70875 33.4189 7.75466 33.4189 9.10938L33.4189 16.6328L33.0586 16.6328C31.3742 16.6328 30.0078 15.2629 30.0078 13.5742L30.0078 9.90527C30.0078 9.34882 29.8719 8.90974 29.5996 8.59473C29.3293 8.27761 28.9514 8.11816 28.4717 8.11816C27.9042 8.11826 27.4513 8.29453 27.1162 8.64941C26.7812 9.00432 26.6143 9.49175 26.6143 10.1133L26.6143 16.6309L26.2539 16.6309C24.5695 16.6309 23.2031 15.2609 23.2031 13.5723L23.2051 13.5762L23.2051 5.13965L26.6162 5.13965L26.6162 6.62012L26.71 6.62012C27.0389 6.0636 27.4691 5.63359 27.999 5.3291C28.529 5.02671 29.1494 4.87305 29.8574 4.87305ZM13.79 0C15.3277 0 16.5769 1.24945 16.5771 2.79297L16.5771 16.6318L15.9502 16.6318C14.4126 16.6317 13.1641 15.3824 13.1641 13.8389L13.1641 0L13.79 0ZM18.7979 5.13672C20.3355 5.13672 21.5847 6.38617 21.585 7.92969L21.585 16.6318L20.958 16.6318C19.4204 16.6317 18.1719 15.3815 18.1719 13.8379L18.1719 5.13672L18.7979 5.13672ZM38.3428 11.0811L41.0586 6.67871L41.0566 6.67676C41.4065 6.10975 42.0244 5.76563 42.6885 5.76563L45.2402 5.76563L42.6357 9.83398L45.5869 16.541L43.9043 16.541C42.7898 16.541 41.7763 15.896 41.3008 14.8857L40.4951 13.1768L39.1396 15.2959C38.6432 16.0729 37.786 16.5439 36.8643 16.5439L35.0078 16.5439L35.0078 0.0292969L38.3428 0.0292969L38.3428 11.0811ZM19.8662 0.0292969C20.4737 0.0293498 20.9747 0.210097 21.335 0.571289C21.6951 0.932481 21.875 1.41556 21.875 2.02441C21.875 2.63326 21.695 3.11843 21.335 3.47754C20.9747 3.83874 20.4841 4.01948 19.8662 4.01953C19.2482 4.01953 18.7789 3.83879 18.4248 3.47754C18.0708 3.1163 17.8945 2.63135 17.8945 2.02441C17.8946 1.4175 18.0708 0.93251 18.4248 0.571289C18.7789 0.21009 19.2587 0.0292969 19.8662 0.0292969Z" fill="white" style="fill:white;fill-opacity:1;"/>
</svg>
