<svg width="48" height="48" viewBox="0 0 48 48" fill="none" xmlns="http://www.w3.org/2000/svg">
<path d="M0 24C0 10.7452 10.7452 0 24 0C37.2548 0 48 10.7452 48 24C48 37.2548 37.2548 48 24 48C10.7452 48 0 37.2548 0 24Z" fill="url(#paint0_linear_117_27542)"/>
<path d="M35.1381 22.2884C35.5363 22.6927 35.8125 23.2098 35.9326 23.7759C36.0528 24.342 36.0116 24.9325 35.8143 25.4745L34.3127 29.7292C33.9186 30.8488 33.0209 31.7129 31.911 31.9368C31.3564 32.0525 30.7821 32.0088 30.2495 31.8103C29.7168 31.6118 29.2459 31.266 28.8868 30.8099L19.8865 19.5526C19.8643 19.5241 19.8353 19.5023 19.8024 19.4894C19.7695 19.4765 19.7339 19.473 19.6992 19.4792C19.6646 19.4853 19.6321 19.501 19.6052 19.5246C19.5783 19.5482 19.5579 19.5789 19.546 19.6134L16.6174 27.8817C16.5568 28.0521 16.72 28.2201 16.8786 28.1495L20.4717 26.6185C20.6743 26.5326 20.8917 26.4913 21.1103 26.4973C21.3288 26.5034 21.5439 26.5565 21.7418 26.6534C21.9398 26.7503 22.1164 26.8889 22.2606 27.0605C22.4047 27.2321 22.5133 27.433 22.5796 27.6505C22.7004 28.0636 22.6682 28.5089 22.4894 28.8983C22.3107 29.2878 21.9983 29.593 21.6143 29.7535L16.9182 31.7542C16.0508 32.1267 15.0529 32.0609 14.2694 31.5157C13.7354 31.1439 13.3371 30.5949 13.1391 29.9575C12.9411 29.3201 12.9548 28.6317 13.1782 28.0034L16.6384 18.2382C16.8327 17.6757 17.1664 17.177 17.6055 16.793C18.0446 16.4091 18.5734 16.1535 19.138 16.0525C19.6998 15.9475 20.2783 16.0006 20.8139 16.2064C21.3495 16.4122 21.8229 16.7631 22.1855 17.2232L27.3526 23.6855L32.1046 21.6604C32.6128 21.4387 33.1727 21.38 33.713 21.4918C34.2533 21.6037 34.7494 21.881 35.1381 22.2884ZM32.3984 25.5354C32.459 25.365 32.2981 25.1995 32.1372 25.2676L29.5117 26.3873L31.0856 28.3564C31.1079 28.3848 31.1371 28.4065 31.1702 28.4192C31.2032 28.432 31.2389 28.4353 31.2736 28.4288C31.3083 28.4224 31.3407 28.4064 31.3675 28.3826C31.3942 28.3587 31.4145 28.3278 31.426 28.2931L32.3984 25.5354Z" fill="white" style="fill:white;fill-opacity:1;"/>
<defs>
<linearGradient id="paint0_linear_117_27542" x1="48" y1="24" x2="0" y2="24" gradientUnits="userSpaceOnUse">
<stop stop-color="#EC8744" style="stop-color:#EC8744;stop-color:color(display-p3 0.9255 0.5294 0.2667);stop-opacity:1;"/>
<stop offset="1" stop-color="#FF4244" style="stop-color:#FF4244;stop-color:color(display-p3 1.0000 0.2588 0.2667);stop-opacity:1;"/>
</linearGradient>
</defs>
</svg>
