<svg width="44" height="16" viewBox="0 0 44 16" fill="none" xmlns="http://www.w3.org/2000/svg">
<path d="M6.27637 2.48438C8.48642 2.48438 10.1038 3.56519 11.1289 5.72656L10.1709 6.14453C9.34808 6.50131 8.39382 6.37978 7.69629 5.81738C7.64376 5.77505 7.58685 5.73462 7.53027 5.69629C7.12591 5.42816 6.64857 5.29299 6.09863 5.29297C5.51629 5.29297 4.99612 5.46027 4.53711 5.79297C4.07816 6.12566 3.72246 6.58616 3.46973 7.17285C3.21508 7.75748 3.08985 8.42673 3.08984 9.18066C3.08984 9.93476 3.21697 10.645 3.46973 11.2539C3.72239 11.8605 4.07838 12.3359 4.53711 12.6807C4.99612 13.0235 5.51629 13.1973 6.09863 13.1973C6.53714 13.1972 6.93337 13.0987 7.28906 12.9033C8.37695 12.3044 9.635 12.0967 10.7734 12.5928L11.1582 12.7598C10.673 13.8018 9.99701 14.6027 9.12988 15.1611C8.26244 15.7217 7.25674 16 6.1123 16C4.96794 15.9999 3.88596 15.7096 2.95996 15.1289C2.03398 14.5482 1.30784 13.7395 0.78418 12.7031C0.26057 11.6648 4.36139e-06 10.4913 0 9.17871C0 7.86607 0.265218 6.73499 0.792969 5.71875C1.32072 4.70252 2.06046 3.9095 3.00879 3.33887C3.95708 2.77033 5.04507 2.48438 6.27637 2.48438ZM13.3096 0C14.7937 6.57641e-05 15.999 1.19971 15.999 2.68164V15.9678H15.3945C13.9104 15.9678 12.7052 14.768 12.7051 13.2861V0H13.3096ZM18.1455 4.93164C19.6294 4.93187 20.8339 6.13147 20.834 7.61328V15.9668H20.2295C18.7455 15.9666 17.54 14.7671 17.54 13.2852V4.93164H18.1455ZM28.8125 4.67578C29.9084 4.67578 30.758 5.02873 31.3545 5.73242C31.9509 6.43815 32.25 7.44271 32.25 8.74316V15.9658H31.9023C30.2766 15.9658 28.958 14.6505 28.958 13.0293V9.50684C28.958 8.97257 28.8263 8.55144 28.5635 8.24902C28.3026 7.94458 27.9386 7.79102 27.4756 7.79102C26.928 7.79108 26.4914 7.96029 26.168 8.30078C25.8444 8.64153 25.6826 9.11019 25.6826 9.70703V15.9629H25.335C23.7092 15.9629 22.3906 14.6485 22.3906 13.0273L22.3926 13.0312V4.93164H25.6846V6.35352H25.7754C26.0928 5.81926 26.5071 5.40562 27.0186 5.11328C27.5301 4.82291 28.1291 4.67578 28.8125 4.67578ZM37.0078 10.6357L39.6279 6.40918L39.626 6.40723C39.9636 5.86286 40.5603 5.53232 41.2012 5.53223H43.6641L41.1504 9.43848L43.999 15.8809H42.376C41.3003 15.8809 40.3213 15.2609 39.8623 14.291L39.084 12.6494L37.7764 14.6826C37.2972 15.4287 36.4698 15.8799 35.5801 15.8799H33.7891V0.0253906H37.0078V10.6357ZM19.1729 0.0253906C19.7591 0.0254757 20.2421 0.199171 20.5898 0.545898C20.9376 0.892706 21.1113 1.35671 21.1113 1.94141C21.1113 2.52586 20.9374 2.99123 20.5898 3.33594C20.2421 3.68267 19.7691 3.85636 19.1729 3.85645C18.5764 3.85645 18.123 3.68275 17.7812 3.33594C17.4398 2.98922 17.2696 2.52385 17.2695 1.94141C17.2695 1.35872 17.4396 0.892706 17.7812 0.545898C18.123 0.199086 18.5865 0.0253906 19.1729 0.0253906Z" fill="white" style="fill:white;fill-opacity:1;"/>
</svg>
