<svg width="43" height="43" viewBox="0 0 43 43" fill="none" xmlns="http://www.w3.org/2000/svg">
<circle cx="21.5" cy="21.5" r="21.35" fill="white" stroke="var(--Text-placeholder, #71717A)" style="fill:white;fill-opacity:1;stroke:#71717A;stroke:color(display-p3 0.4431 0.4431 0.4784);stroke-opacity:1;" stroke-width="0.3"/>
<path d="M25.5917 17C23.6771 17 21.9581 18.0271 21.9581 19.9118C21.9581 22.0824 24.9947 22.2306 24.9947 23.3106C24.9947 23.7659 24.48 24.1788 23.6153 24.1788C22.3801 24.1788 21.4537 23.6071 21.4537 23.6071L21.0625 25.5129C21.0625 25.5129 22.1228 26 23.5433 26C25.6432 26 27.2901 24.9306 27.2901 23.0035C27.2901 20.7165 24.2432 20.5682 24.2432 19.5624C24.2432 19.2024 24.6653 18.8106 25.5299 18.8106C26.5078 18.8106 27.3107 19.2235 27.3107 19.2235L27.7019 17.3812C27.6916 17.3812 26.8166 17 25.5917 17ZM8.05147 17.1376L8 17.4129C8 17.4129 8.8029 17.5612 9.53374 17.8682C10.4705 18.2176 10.5322 18.4188 10.6969 19.0435L12.4159 25.8518H14.7217L18.2524 17.1376H15.9569L13.682 23.0671L12.7556 18.0376C12.6733 17.4659 12.2409 17.1376 11.7057 17.1376H8.05147ZM19.1788 17.1376L17.3774 25.8518H19.57L21.361 17.1376H19.1788ZM31.387 17.1376C30.862 17.1376 30.5841 17.4235 30.3782 17.9318L27.1666 25.8518H29.4621L29.9047 24.5282H32.7045L32.9722 25.8518H35L33.2398 17.1376H31.387ZM31.6855 19.4988L32.3649 22.7706H30.5429L31.6855 19.4988Z" fill="#1434CB" style="fill:#1434CB;fill:color(display-p3 0.0784 0.2039 0.7961);fill-opacity:1;"/>
</svg>
