<svg width="43" height="43" viewBox="0 0 43 43" fill="none" xmlns="http://www.w3.org/2000/svg">
<circle cx="21.5" cy="21.5" r="21.35" fill="white" stroke="var(--Text-placeholder, #71717A)" style="fill:white;fill-opacity:1;stroke:#71717A;stroke:color(display-p3 0.4431 0.4431 0.4784);stroke-opacity:1;" stroke-width="0.3"/>
<path d="M24.5183 14.7129H17.4883V27.2907H24.5183V14.7129Z" fill="#FF5F00" style="fill:#FF5F00;fill:color(display-p3 1.0000 0.3725 0.0000);fill-opacity:1;"/>
<path d="M17.9332 21.0019C17.9332 18.5574 19.0714 16.2241 20.9907 14.713C17.5092 11.9796 12.4654 12.5796 9.72031 16.0685C6.97525 19.5352 7.57782 24.5574 11.0817 27.2907C14.0053 29.5796 18.0894 29.5796 21.013 27.2907C19.0714 25.7796 17.9332 23.4463 17.9332 21.0019Z" fill="#EB001B" style="fill:#EB001B;fill:color(display-p3 0.9216 0.0000 0.1059);fill-opacity:1;"/>
<path d="M34.0006 21.0019C34.0006 25.4241 30.4074 29.0019 25.9662 29.0019C24.1585 29.0019 22.4177 28.4019 21.0117 27.2907C24.4933 24.5574 25.0958 19.5352 22.3508 16.0463C21.9491 15.5574 21.5027 15.0907 21.0117 14.713C24.4933 11.9796 29.5594 12.5796 32.2821 16.0685C33.398 17.4685 34.0006 19.2018 34.0006 21.0019Z" fill="#F79E1B" style="fill:#F79E1B;fill:color(display-p3 0.9686 0.6196 0.1059);fill-opacity:1;"/>
<path d="M33.2422 25.9576V25.6909H33.3537V25.6465H33.0859V25.6909H33.1975V25.9576H33.2422ZM33.7555 25.9576V25.6465H33.6662L33.5769 25.8687L33.4877 25.6465H33.3984V25.9576H33.4653V25.7132L33.5546 25.9132H33.6216L33.7108 25.7132V25.9576H33.7555Z" fill="#F79E1B" style="fill:#F79E1B;fill:color(display-p3 0.9686 0.6196 0.1059);fill-opacity:1;"/>
</svg>
