<svg width="62" height="20" viewBox="0 0 62 20" fill="none" xmlns="http://www.w3.org/2000/svg">
<path d="M40.3957 0C35.9992 0 32.0519 2.28235 32.0519 6.47059C32.0519 11.2941 39.0248 11.6235 39.0248 14.0235C39.0248 15.0353 37.8429 15.9529 35.8574 15.9529C33.021 15.9529 30.8936 14.6824 30.8936 14.6824L29.9954 18.9176C29.9954 18.9176 32.43 20 35.692 20C40.5139 20 44.2958 17.6235 44.2958 13.3412C44.2958 8.25882 37.2993 7.92941 37.2993 5.69412C37.2993 4.89412 38.2684 4.02353 40.2539 4.02353C42.4994 4.02353 44.3431 4.94118 44.3431 4.94118L45.2413 0.847059C45.2177 0.847059 43.2085 0 40.3957 0ZM0.118185 0.305882L0 0.917647C0 0.917647 1.84369 1.24706 3.52192 1.92941C5.67289 2.70588 5.81472 3.15294 6.19291 4.54118L10.1403 19.6706H15.435L23.5425 0.305882H18.2714L13.0477 13.4824L10.9203 2.30588C10.7312 1.03529 9.73847 0.305882 8.50934 0.305882H0.118185ZM25.6698 0.305882L21.5334 19.6706H26.5681L30.6809 0.305882H25.6698ZM53.7034 0.305882C52.4979 0.305882 51.8597 0.941176 51.387 2.07059L44.0122 19.6706H49.2833L50.2997 16.7294H56.7289L57.3435 19.6706H62L57.9581 0.305882H53.7034ZM54.3889 5.55294L55.9489 12.8235H51.7652L54.3889 5.55294Z" fill="#1434CB" style="fill:#1434CB;fill:color(display-p3 0.0784 0.2039 0.7961);fill-opacity:1;"/>
</svg>
