<svg width="48" height="48" viewBox="0 0 48 48" fill="none" xmlns="http://www.w3.org/2000/svg">
<circle cx="24" cy="24" r="23.85" fill="white" stroke="var(--Text-placeholder, #71717A)" style="fill:white;fill-opacity:1;stroke:#71717A;stroke:color(display-p3 0.4431 0.4431 0.4784);stroke-opacity:1;" stroke-width="0.3"/>
<path d="M14.4816 19.5471C14.13 19.9524 13.5674 20.2721 13.0048 20.2265C12.9345 19.6784 13.2099 19.0961 13.5322 18.7364C13.8838 18.3197 14.4991 18.0228 14.9973 18C15.0559 18.5709 14.8273 19.1304 14.4816 19.5471ZM14.9914 20.3349C14.1768 20.2892 13.4795 20.7859 13.0927 20.7859C12.7001 20.7859 12.1082 20.3578 11.4636 20.3692C10.6257 20.3806 9.84627 20.843 9.41849 21.5794C8.53948 23.0523 9.18994 25.2331 10.0397 26.432C10.4557 27.0257 10.9538 27.6765 11.6101 27.6537C12.2313 27.6308 12.4774 27.2598 13.2275 27.2598C13.9835 27.2598 14.2003 27.6537 14.8566 27.6422C15.5364 27.6308 15.9642 27.0485 16.3802 26.4548C16.8549 25.7812 17.0483 25.1246 17.06 25.0904C17.0483 25.079 15.7473 24.5937 15.7356 23.1323C15.7239 21.9106 16.7611 21.3283 16.808 21.294C16.222 20.4491 15.3078 20.3578 14.9914 20.3349ZM19.697 18.6794V27.5794H21.1151V24.5366H23.0783C24.8714 24.5366 26.1313 23.3378 26.1313 21.6023C26.1313 19.8668 24.8949 18.6794 23.1251 18.6794H19.697ZM21.1151 19.844H22.7501C23.9807 19.844 24.6839 20.4833 24.6839 21.608C24.6839 22.7326 23.9807 23.3777 22.7442 23.3777H21.1151V19.844ZM28.7215 27.648C29.6122 27.648 30.4385 27.2084 30.8135 26.5119H30.8428V27.5794H32.1555V23.1494C32.1555 21.8649 31.1007 21.0371 29.4774 21.0371C27.9714 21.0371 26.858 21.8763 26.817 23.0295H28.0945C28.1999 22.4814 28.7215 22.1218 29.4364 22.1218C30.3037 22.1218 30.7901 22.5157 30.7901 23.2407V23.7317L29.0203 23.8344C27.3737 23.9315 26.4829 24.588 26.4829 25.7298C26.4829 26.883 27.403 27.648 28.7215 27.648ZM29.1024 26.5918C28.3464 26.5918 27.8659 26.2379 27.8659 25.6955C27.8659 25.1361 28.3289 24.8107 29.2137 24.7593L30.7901 24.6622V25.1646C30.7901 25.9981 30.0634 26.5918 29.1024 26.5918ZM33.9076 30C35.2906 30 35.9411 29.4862 36.5095 27.9277L39 21.1227H37.5584L35.8883 26.3806H35.859L34.1889 21.1227H32.7063L35.1089 27.6023L34.98 27.9962C34.7632 28.6641 34.4116 28.921 33.7846 28.921C33.6732 28.921 33.4564 28.9096 33.3685 28.8982V29.9657C33.4505 29.9886 33.8021 30 33.9076 30Z" fill="black" style="fill:black;fill-opacity:1;"/>
</svg>
