<svg width="48" height="48" viewBox="0 0 48 48" fill="none" xmlns="http://www.w3.org/2000/svg">
<circle cx="24" cy="24" r="23.85" fill="white" stroke="var(--Text-placeholder, #71717A)" style="fill:white;fill-opacity:1;stroke:#71717A;stroke:color(display-p3 0.4431 0.4431 0.4784);stroke-opacity:1;" stroke-width="0.3"/>
<path fill-rule="evenodd" clip-rule="evenodd" d="M18.637 14C16.0609 14 14 16.0513 14 18.6154V29.3846C14 31.9487 16.0609 34 18.637 34H29.363C31.9391 34 34 31.9487 34 29.3846V18.6154C34 16.0513 31.9391 14 29.363 14H18.637ZM27.2553 21.4592C26.5059 20.8065 25.5222 20.4802 24.5386 20.4802C23.6955 20.4802 22.8993 20.7599 22.8993 21.5058C22.8993 22.2051 23.6487 22.4848 24.5386 22.8112C24.6323 22.8578 24.726 22.8578 24.8197 22.9044C26.5995 23.5105 28.0984 24.2564 28.0984 25.9814C28.0984 27.8928 26.5995 29.1515 24.2108 29.338L23.9766 30.3636C23.9297 30.5501 23.7892 30.69 23.555 30.69H22.0562C21.9157 30.69 21.822 30.6434 21.7283 30.5501C21.6347 30.4569 21.6347 30.317 21.6347 30.2238L21.8689 29.1515C20.9789 28.9184 20.1358 28.4522 19.4333 27.7995C19.3396 27.7063 19.2927 27.6131 19.2927 27.5198C19.2927 27.4266 19.3396 27.2867 19.4333 27.2401L20.2763 26.4009C20.4169 26.2611 20.6979 26.2611 20.8384 26.4009C21.5878 27.1469 22.6651 27.5198 23.6955 27.5198C24.7728 27.5198 25.5222 27.0536 25.5222 26.3077C25.5222 25.655 24.9133 25.4219 23.7424 25.0023C23.6019 24.9557 23.5082 24.9091 23.3677 24.8625C21.8689 24.3496 20.4637 23.5571 20.4637 21.8322C20.4637 19.7809 22.1499 18.8019 24.2108 18.7086L24.445 17.683C24.445 17.3566 24.6323 17.2634 24.8197 17.2634H26.3185C26.459 17.2634 26.5527 17.31 26.6464 17.4033C26.74 17.4965 26.74 17.6364 26.74 17.7296L26.5059 18.8951C27.2553 19.1282 28.0047 19.5478 28.6136 20.0606C28.7073 20.1538 28.7541 20.2471 28.7541 20.3403C28.7541 20.4336 28.7073 20.5734 28.6136 20.62L27.8173 21.4126C27.6768 21.5991 27.3958 21.5991 27.2553 21.4592Z" fill="#00D54B" style="fill:#00D54B;fill:color(display-p3 0.0000 0.8353 0.2941);fill-opacity:1;"/>
</svg>
