<svg width="48" height="48" viewBox="0 0 48 48" fill="none" xmlns="http://www.w3.org/2000/svg">
<circle cx="24" cy="24" r="23.85" fill="white" stroke="var(--Text-placeholder, #71717A)" style="fill:white;fill-opacity:1;stroke:#71717A;stroke:color(display-p3 0.4431 0.4431 0.4784);stroke-opacity:1;" stroke-width="0.3"/>
<path d="M17.7372 33.9965H16.8018C15.1745 33.9965 13.8438 32.666 13.8438 31.039V20.2573C16.4982 19.9891 18.9726 19.9961 21.1434 20.2044L17.7372 33.9965ZM29.7668 24.6758C30.2362 22.7665 27.1547 20.9984 22.2236 20.3314L20.4339 27.778C24.5674 27.9756 29.262 26.7298 29.7668 24.6758ZM30.8857 14H16.8018C15.2274 14 13.9355 15.2458 13.8508 16.7987C25.644 16.4669 31.3799 20.5679 30.4798 24.6582C29.668 28.3392 25.9263 29.7508 19.848 30.2167L18.9373 34H30.8857C32.513 34 33.8438 32.6695 33.8438 31.0426V16.9574C33.8438 15.3305 32.513 14 30.8857 14Z" fill="#FF0033" style="fill:#FF0033;fill:color(display-p3 1.0000 0.0000 0.2000);fill-opacity:1;"/>
</svg>
