<svg width="48" height="48" viewBox="0 0 48 48" fill="none" xmlns="http://www.w3.org/2000/svg">
<path d="M33.227 4.72861C32.7264 3.91344 31.5765 3.88092 31.0407 4.66922C29.7434 6.57933 28.2621 8.8527 26.6041 10.9911C25.0497 12.9956 23.3333 14.8917 21.4554 16.2695L21.0777 16.5381C19.8225 17.5289 17.5167 19.1247 14.9409 20.6406C12.3615 22.1586 9.4993 23.6037 7.14343 24.2783C6.18526 24.5527 5.56705 25.6321 5.95847 26.5046L12.8383 41.8393C12.9522 42.093 13.1214 42.2763 13.3368 42.3047C13.6346 42.3439 14.0398 42.3123 14.539 42.2129C15.0361 42.1139 15.6175 41.9492 16.264 41.7295C17.5573 41.29 19.1029 40.633 20.7449 39.8478C24.0288 38.2772 27.6872 36.1999 30.4655 34.3463C33.4242 32.3723 36.4979 29.478 38.8079 26.8575C39.9625 25.5475 40.924 24.3092 41.5831 23.2922C41.9128 22.7835 42.165 22.3328 42.3282 21.9588C42.494 21.5787 42.5579 21.2987 42.5381 21.1219C42.5305 21.0541 42.5011 20.9455 42.4456 20.7932C42.3909 20.6432 42.3139 20.4591 42.2163 20.2449C42.0211 19.8163 41.7467 19.2714 41.4119 18.6408C40.7422 17.3799 39.8349 15.7807 38.8472 14.086C36.872 10.6967 34.5775 6.92917 33.227 4.72861Z" fill="white" stroke="#3F3F46" style="fill:white;fill-opacity:1;stroke:#3F3F46;stroke:color(display-p3 0.2471 0.2471 0.2745);stroke-opacity:1;" stroke-width="0.3"/>
<path d="M30.4609 12.7964L36.0511 20.9365" stroke="#B8B8BC" style="stroke:#B8B8BC;stroke:color(display-p3 0.7216 0.7216 0.7373);stroke-opacity:1;" stroke-linecap="round"/>
<path d="M27.3867 15.8667L32.9769 24.0068" stroke="#B8B8BC" style="stroke:#B8B8BC;stroke:color(display-p3 0.7216 0.7216 0.7373);stroke-opacity:1;" stroke-linecap="round"/>
<path d="M23.3945 17.8628L28.9847 26.0029" stroke="#E6E6E6" style="stroke:#E6E6E6;stroke:color(display-p3 0.9020 0.9020 0.9020);stroke-opacity:1;" stroke-linecap="round"/>
<path d="M20.0195 19.8589L22.6044 23.8502" stroke="#E6E6E6" style="stroke:#E6E6E6;stroke:color(display-p3 0.9020 0.9020 0.9020);stroke-opacity:1;" stroke-linecap="round"/>
</svg>
