<svg width="48" height="48" viewBox="0 0 48 48" fill="none" xmlns="http://www.w3.org/2000/svg">
<path d="M14.4945 4.72861C14.995 3.91344 16.145 3.88092 16.6808 4.66922C17.9781 6.57933 19.4593 8.8527 21.1174 10.9911C22.6718 12.9956 24.3882 14.8917 26.2661 16.2695L26.6438 16.5381C27.899 17.5289 30.2048 19.1247 32.7806 20.6406C35.36 22.1586 38.2222 23.6037 40.5781 24.2783C41.5362 24.5527 42.1544 25.6321 41.763 26.5046L34.8832 41.8393C34.7693 42.093 34.6001 42.2763 34.3847 42.3047C34.0868 42.3439 33.6817 42.3123 33.1824 42.2129C32.6853 42.1139 32.104 41.9492 31.4575 41.7295C30.1642 41.29 28.6186 40.633 26.9766 39.8478C23.6926 38.2772 20.0343 36.1999 17.256 34.3463C14.2973 32.3723 11.2236 29.478 8.91363 26.8575C7.75895 25.5475 6.79749 24.3092 6.13837 23.2922C5.80864 22.7835 5.55644 22.3328 5.39328 21.9588C5.22746 21.5787 5.16364 21.2987 5.18336 21.1219C5.19097 21.0541 5.22037 20.9455 5.27589 20.7932C5.33059 20.6432 5.40756 20.4591 5.50515 20.2449C5.70043 19.8163 5.97474 19.2714 6.30962 18.6408C6.97927 17.3799 7.88662 15.7807 8.87427 14.086C10.8495 10.6967 13.144 6.92917 14.4945 4.72861Z" fill="white" stroke="#3F3F46" style="fill:white;fill-opacity:1;stroke:#3F3F46;stroke:color(display-p3 0.2471 0.2471 0.2745);stroke-opacity:1;" stroke-width="0.3"/>
<path d="M16.2606 14.7949L10.6704 22.935" stroke="#B8B8BC" style="stroke:#B8B8BC;stroke:color(display-p3 0.7216 0.7216 0.7373);stroke-opacity:1;" stroke-linecap="round"/>
<path d="M19.3348 17.8652L13.7446 26.0053" stroke="#B8B8BC" style="stroke:#B8B8BC;stroke:color(display-p3 0.7216 0.7216 0.7373);stroke-opacity:1;" stroke-linecap="round"/>
<path d="M22.3231 20.8608L16.7329 29.0009" stroke="#E6E6E6" style="stroke:#E6E6E6;stroke:color(display-p3 0.9020 0.9020 0.9020);stroke-opacity:1;" stroke-linecap="round"/>
<path d="M23.6981 26.854L21.1132 30.8454" stroke="#E6E6E6" style="stroke:#E6E6E6;stroke:color(display-p3 0.9020 0.9020 0.9020);stroke-opacity:1;" stroke-linecap="round"/>
</svg>
