<svg width="66" height="66" viewBox="0 0 66 66" fill="none" xmlns="http://www.w3.org/2000/svg">
<path d="M35.507 11.8386C36.3698 11.4255 37.3533 12.0223 37.3754 12.9752C37.4283 15.2836 37.4387 17.997 37.6707 20.6929C37.8883 23.2202 38.3008 25.7442 39.1303 27.9206L39.3017 28.3512C39.8183 29.8646 40.8888 32.4564 42.2295 35.1275C43.5721 37.8025 45.1918 40.5696 46.8044 42.4149C47.4602 43.1653 47.3936 44.4075 46.5913 44.9278L32.4903 54.0736C32.2569 54.2249 32.0153 54.287 31.819 54.1939C31.5475 54.0653 31.2244 53.8187 30.859 53.4643C30.4953 53.1114 30.0964 52.6576 29.6726 52.1221C28.8248 51.0511 27.8832 49.6604 26.9304 48.1098C25.0245 45.0083 23.0793 41.2781 21.7518 38.2133C20.3381 34.9496 19.3274 30.8504 18.8095 27.3957C18.5506 25.6688 18.4152 24.1069 18.4135 22.8951C18.4126 22.2888 18.4454 21.7734 18.5114 21.3707C18.5784 20.9615 18.6767 20.6917 18.7893 20.5539C18.8325 20.501 18.9161 20.4258 19.0454 20.328C19.1728 20.2317 19.3373 20.1189 19.5355 19.9919C19.9322 19.7379 20.4583 19.4291 21.0818 19.0812C22.3286 18.3857 23.9586 17.535 25.7079 16.6476C29.2064 14.8729 33.1783 12.9538 35.507 11.8386Z" fill="white" stroke="#3F3F46" style="fill:white;fill-opacity:1;stroke:#3F3F46;stroke:color(display-p3 0.2471 0.2471 0.2745);stroke-opacity:1;" stroke-width="0.3"/>
<path d="M31.5284 21.2526L22.4153 25.0555" stroke="#B8B8BC" style="stroke:#B8B8BC;stroke:color(display-p3 0.7216 0.7216 0.7373);stroke-opacity:1;" stroke-linecap="round"/>
<path d="M32.4425 25.4987L23.3294 29.3016" stroke="#B8B8BC" style="stroke:#B8B8BC;stroke:color(display-p3 0.7216 0.7216 0.7373);stroke-opacity:1;" stroke-linecap="round"/>
<path d="M33.3292 29.6384L24.2161 33.4413" stroke="#E6E6E6" style="stroke:#E6E6E6;stroke:color(display-p3 0.9020 0.9020 0.9020);stroke-opacity:1;" stroke-linecap="round"/>
<path d="M31.2316 35.4177L26.8943 37.3671" stroke="#E6E6E6" style="stroke:#E6E6E6;stroke:color(display-p3 0.9020 0.9020 0.9020);stroke-opacity:1;" stroke-linecap="round"/>
</svg>
