<svg width="14" height="17" viewBox="0 0 14 17" fill="none" xmlns="http://www.w3.org/2000/svg">
<path d="M10.2381 8.25C10.2369 7.00068 10.5212 5.76746 11.0693 4.64373C11.6174 3.51999 12.415 2.53518 13.4017 1.76385C12.1798 0.807228 10.7123 0.212318 9.16699 0.047118C7.62165 -0.118082 6.06083 0.153088 4.66292 0.829647C3.26501 1.50621 2.08642 2.56085 1.26185 3.87304C0.437277 5.18522 0 6.70199 0 8.25C0 9.79801 0.437277 11.3148 1.26185 12.627C2.08642 13.9391 3.26501 14.9938 4.66292 15.6704C6.06083 16.3469 7.62165 16.6181 9.16699 16.4529C10.7123 16.2877 12.1798 15.6928 13.4017 14.7362C12.415 13.9648 11.6174 12.98 11.0693 11.8563C10.5212 10.7325 10.237 9.49933 10.2381 8.25Z" fill="#EB001B" style="fill:#EB001B;fill:color(display-p3 0.9216 0.0000 0.1059);fill-opacity:1;"/>
</svg>
