<svg width="14" height="17" viewBox="0 0 14 17" fill="none" xmlns="http://www.w3.org/2000/svg">
<path d="M13.4013 8.25001C13.4014 9.79799 12.9641 11.3148 12.1396 12.6269C11.3151 13.9391 10.1365 14.9938 8.73865 15.6703C7.34077 16.3469 5.77997 16.6181 4.23466 16.4529C2.68935 16.2877 1.22189 15.6928 0 14.7362C0.985855 13.964 1.78284 12.9791 2.33085 11.8555C2.87887 10.732 3.16361 9.49913 3.16361 8.25001C3.16361 7.00088 2.87887 5.76805 2.33085 4.64449C1.78284 3.52093 0.985855 2.53596 0 1.76386C1.22189 0.807231 2.68935 0.212314 4.23466 0.047116C5.77997 -0.118082 7.34077 0.1531 8.73865 0.829666C10.1365 1.50623 11.3151 2.56089 12.1396 3.87307C12.9641 5.18525 13.4014 6.70202 13.4013 8.25001Z" fill="#F79E1B" style="fill:#F79E1B;fill:color(display-p3 0.9686 0.6196 0.1059);fill-opacity:1;"/>
</svg>
