<svg width="45" height="28" viewBox="0 0 45 28" fill="none" xmlns="http://www.w3.org/2000/svg">
<g clip-path="url(#clip0_117_27266)">
<path d="M28.5854 2.99414H16.418V25.0052H28.5854V2.99414Z" fill="#FF5F00" style="fill:#FF5F00;fill:color(display-p3 1.0000 0.3725 0.0000);fill-opacity:1;"/>
<path d="M17.1882 13.9993C17.1882 9.72155 19.1581 5.63822 22.48 2.99377C16.4542 -1.78956 7.72463 -0.739558 2.97356 5.366C-1.77752 11.4327 -0.734596 20.2216 5.32978 25.0049C10.3899 29.0104 17.4585 29.0104 22.5186 25.0049C19.1581 22.3604 17.1882 18.2771 17.1882 13.9993Z" fill="#EB001B" style="fill:#EB001B;fill:color(display-p3 0.9216 0.0000 0.1059);fill-opacity:1;"/>
<path d="M45.0002 13.9998C45.0002 21.7387 38.7813 27.9998 31.0946 27.9998C27.9659 27.9998 24.953 26.9498 22.5195 25.0054C28.5453 20.222 29.5882 11.4332 24.8371 5.3276C24.1419 4.47204 23.3693 3.65537 22.5195 2.99426C28.5453 -1.78907 37.3135 -0.73907 42.026 5.36649C43.9573 7.81649 45.0002 10.8498 45.0002 13.9998Z" fill="#F79E1B" style="fill:#F79E1B;fill:color(display-p3 0.9686 0.6196 0.1059);fill-opacity:1;"/>
<path d="M43.6884 22.6719V22.2052H43.8815V22.1274H43.418V22.2052H43.6111V22.6719H43.6884ZM44.5768 22.6719V22.1274H44.4223L44.2678 22.5163L44.1132 22.1274H43.9587V22.6719H44.0746V22.2441L44.2291 22.5941H44.345L44.4995 22.2441V22.6719H44.5768Z" fill="#F79E1B" style="fill:#F79E1B;fill:color(display-p3 0.9686 0.6196 0.1059);fill-opacity:1;"/>
</g>
<defs>
<clipPath id="clip0_117_27266">
<rect width="45" height="28" fill="white" style="fill:white;fill-opacity:1;"/>
</clipPath>
</defs>
</svg>
