<svg width="57" height="11" viewBox="0 0 57 11" fill="none" xmlns="http://www.w3.org/2000/svg">
<path d="M0.860801 10.12H0V0.281199H0.860801V10.12ZM7.14049 0.281199C7.89556 0.270448 8.64702 0.386857 9.36314 0.625509C9.98545 0.833784 10.5574 1.16887 11.0425 1.60943C11.5075 2.04174 11.8713 2.5708 12.1078 3.15899C12.6066 4.4747 12.6066 5.92643 12.1078 7.24214C11.8713 7.83037 11.5076 8.35947 11.0425 8.79181C10.5574 9.2324 9.98547 9.5675 9.36314 9.77573C8.64704 10.0144 7.89557 10.1308 7.14049 10.12H3.53486V0.281199H7.14049ZM4.39566 1.09637V9.30486H7.14049C7.78759 9.31628 8.43189 9.21763 9.04566 9.01314C9.56234 8.83883 10.0361 8.55742 10.4356 8.18746C10.8151 7.82654 11.1071 7.38429 11.2894 6.89425C11.675 5.79778 11.675 4.60335 11.2894 3.50688C11.1065 3.01614 10.8147 2.57291 10.4356 2.21032C10.0373 1.83874 9.56318 1.55707 9.04566 1.38452C8.43138 1.1825 7.78729 1.08509 7.14049 1.09638L4.39566 1.09637ZM22.4869 0.168742C22.9004 0.167605 23.3125 0.214776 23.7149 0.309285C24.1001 0.399418 24.4731 0.535066 24.826 0.713348C25.1649 0.884408 25.4803 1.09817 25.7645 1.34938C26.0422 1.59523 26.2833 1.87921 26.4806 2.19275L25.7609 2.67056C25.5917 2.41301 25.3889 2.17906 25.1576 1.97489C24.9241 1.76825 24.6657 1.59119 24.3885 1.44774C24.1023 1.30019 23.799 1.18809 23.4855 1.11395C23.1584 1.03609 22.8232 0.997174 22.4869 0.998023C21.9257 0.993113 21.3688 1.09568 20.8465 1.30015C20.3528 1.49386 19.9039 1.7856 19.5271 2.15762C19.1468 2.53713 18.847 2.9888 18.6452 3.48585C18.217 4.58927 18.217 5.81198 18.6452 6.9154C18.8469 7.41247 19.1468 7.86413 19.5271 8.24363C19.9039 8.61565 20.3528 8.90736 20.8465 9.10099C21.3688 9.3056 21.9257 9.40821 22.4869 9.40322C22.8218 9.40418 23.1557 9.36645 23.4819 9.29078C23.7944 9.21855 24.0967 9.10757 24.3815 8.96045C24.6588 8.8171 24.9171 8.64007 25.1507 8.43341C25.3831 8.22773 25.5861 7.99124 25.754 7.73058L26.4595 8.24363C26.254 8.55106 26.0085 8.82993 25.7292 9.0729C25.4459 9.31886 25.1331 9.52896 24.7979 9.69841C24.4496 9.87436 24.0812 10.0077 23.7007 10.0954C22.6275 10.3388 21.5056 10.2568 20.4795 9.85999C19.8805 9.62433 19.3348 9.2719 18.8743 8.82338C18.4162 8.37087 18.055 7.83056 17.8125 7.23509C17.2999 5.92802 17.2999 4.4767 17.8125 3.16963C18.0544 2.57281 18.4157 2.03121 18.8743 1.57777C19.3348 1.12928 19.8806 0.776852 20.4795 0.541145C21.1183 0.289126 21.8 0.162666 22.4869 0.168742ZM29.1266 4.65237C29.2527 4.44379 29.4083 4.25444 29.5888 4.0902C29.761 3.93379 29.9546 3.80247 30.1638 3.70012C30.3703 3.59957 30.5883 3.52409 30.8129 3.47531C31.0354 3.42644 31.2625 3.40168 31.4903 3.40146C31.877 3.39702 32.2615 3.46003 32.6264 3.58766C32.9547 3.70281 33.256 3.88335 33.5119 4.11828C33.7622 4.35285 33.9574 4.63962 34.0835 4.95807C34.2216 5.31065 34.2899 5.68653 34.2846 6.06496V10.12H33.4802V6.31103C33.4844 6.00536 33.4367 5.70118 33.3391 5.41137C33.2528 5.15723 33.1106 4.92553 32.9227 4.73326C32.7333 4.54437 32.5045 4.39922 32.2525 4.30805C31.9627 4.20527 31.6568 4.15529 31.3492 4.16047C31.0514 4.15815 30.7558 4.21178 30.4779 4.31858C30.2145 4.41941 29.9745 4.57245 29.7723 4.7684C29.5697 4.96651 29.4089 5.20306 29.2996 5.46407C29.1818 5.7456 29.1229 6.04812 29.1266 6.3531V10.12H28.3222V0H29.1266L29.1266 4.65237ZM39.0685 3.40147C39.4919 3.3977 39.9114 3.48272 40.2996 3.651C40.6715 3.81249 41.0056 4.04942 41.2804 4.34667C41.5642 4.65819 41.7857 5.02077 41.9331 5.41496C42.0968 5.84979 42.1804 6.31046 42.1801 6.77485C42.1801 6.83572 42.1789 6.89324 42.1767 6.94696C42.1742 7.00089 42.1707 7.05363 42.1661 7.10518H36.5989C36.6196 7.4602 36.7069 7.80821 36.8564 8.13116C36.9913 8.41955 37.182 8.67864 37.4175 8.89363C37.648 9.1023 37.9178 9.26354 38.2111 9.36808C38.5178 9.47717 38.8414 9.53186 39.1671 9.52966C39.597 9.53709 40.0234 9.45074 40.4162 9.27666C40.7855 9.10646 41.1221 8.87339 41.4109 8.58792L41.8414 9.13611C41.6456 9.33407 41.4292 9.51078 41.1959 9.66326C40.9854 9.79967 40.7606 9.91276 40.5254 10.0005C40.3008 10.084 40.0678 10.1429 39.8304 10.1762C39.5944 10.2091 39.3563 10.2255 39.1179 10.2254C38.659 10.2302 38.2035 10.1455 37.7772 9.9759C37.38 9.8176 37.0198 9.57958 36.7189 9.27666C36.4173 8.96884 36.182 8.60297 36.0273 8.20144C35.8581 7.75956 35.7743 7.2898 35.7804 6.81692C35.7755 6.34726 35.8605 5.88098 36.0309 5.44304C36.1873 5.04032 36.4223 4.67247 36.7223 4.36077C37.0185 4.057 37.3739 3.81666 37.7666 3.65448C38.1791 3.4838 38.6219 3.39775 39.0685 3.40147ZM39.0544 4.11124C38.7367 4.10735 38.4213 4.16587 38.1264 4.28345C37.8524 4.39459 37.6022 4.5568 37.3892 4.76136C37.1736 4.97057 36.9979 5.217 36.8706 5.4887C36.7332 5.7814 36.6462 6.09501 36.6131 6.41644H41.3617C41.3381 6.09279 41.2593 5.7755 41.1287 5.47818C41.0101 5.20685 40.8413 4.96012 40.6313 4.75084C40.4239 4.54574 40.1778 4.3836 39.9071 4.27382C39.6364 4.16403 39.3466 4.10877 39.0544 4.11124ZM46.8085 3.40147C47.279 3.39695 47.7457 3.48656 48.1809 3.66499C48.5931 3.83448 48.9611 4.09528 49.2569 4.42757L48.7348 4.96871C48.4841 4.71654 48.1886 4.51281 47.8634 4.36782C47.524 4.2214 47.1572 4.14832 46.7874 4.15342C46.4397 4.15055 46.0951 4.21871 45.7749 4.35371C45.4687 4.48267 45.1916 4.67147 44.9599 4.90895C44.7256 5.15157 44.542 5.43823 44.42 5.75222C44.1615 6.43867 44.1615 7.19518 44.42 7.88163C44.5396 8.19279 44.7214 8.47653 44.9543 8.71572C45.1871 8.9549 45.4663 9.14456 45.7749 9.27319C46.0951 9.40819 46.4397 9.47636 46.7874 9.47348C47.1628 9.47765 47.5347 9.40093 47.8776 9.24857C48.2034 9.10264 48.5008 8.90041 48.7559 8.65126L49.2569 9.19945C48.9584 9.5303 48.5896 9.79076 48.1773 9.96192C47.2976 10.3121 46.3167 10.3133 45.4361 9.96539C45.0328 9.80212 44.6671 9.5587 44.3614 9.25C44.0557 8.94129 43.8164 8.57376 43.6581 8.16987C43.324 7.29742 43.324 6.33304 43.6581 5.4606C43.8156 5.0558 44.0546 4.68738 44.3603 4.37799C44.6661 4.06859 45.0322 3.82477 45.4361 3.66151C45.8715 3.48448 46.3382 3.39606 46.8085 3.40147ZM51.6769 6.29694H52.7565L55.5506 3.50688H56.5666L53.4057 6.62726L56.623 10.12H55.6L52.7565 7.0208H51.6769V10.12H50.8725V0H51.6769V6.29694Z" fill="black" style="fill:black;fill-opacity:1;"/>
</svg>
