<svg width="10" height="3" viewBox="0 0 10 3" fill="none" xmlns="http://www.w3.org/2000/svg">
<path d="M1.09375 2.25016L1.86296 0.0358887H2.23763L1.27116 2.6464H1.00423L1.09375 2.25016ZM0.374674 0.0358887L1.13672 2.25016L1.23177 2.6464H0.964518L0 0.0358887H0.374674ZM4.26725 1.76782V2.04036H2.38118V1.84497L3.55013 0.0358887H3.82096L3.53027 0.559408L2.75749 1.76782H4.26725ZM3.90332 0.0358887V2.6464H3.57161V0.0358887H3.90332ZM4.60807 2.4707C4.60807 2.41452 4.62555 2.36697 4.66081 2.32812C4.69607 2.28928 4.74719 2.26986 4.81413 2.26986C4.88106 2.26986 4.93219 2.28928 4.96745 2.32812C5.00271 2.36697 5.02051 2.41452 5.02051 2.4707C5.02051 2.52569 5.00271 2.57226 4.96745 2.61051C4.93219 2.64876 4.88106 2.66789 4.81413 2.66789C4.74719 2.66789 4.69607 2.64876 4.66081 2.61051C4.62555 2.57226 4.60807 2.52569 4.60807 2.4707ZM7.17383 1.13314V1.53117C7.17383 1.74513 7.15446 1.92565 7.11621 2.07267C7.07796 2.2197 7.02322 2.33801 6.9515 2.42765C6.87978 2.5173 6.79339 2.58219 6.69238 2.62223C6.59138 2.66228 6.47729 2.68229 6.35059 2.68229C6.25018 2.68229 6.15778 2.66971 6.07292 2.64461C5.98805 2.61951 5.91161 2.57918 5.84408 2.5236C5.77654 2.46802 5.71904 2.39539 5.67122 2.30575C5.62341 2.2161 5.58695 2.10731 5.56185 1.97941C5.53675 1.85151 5.52409 1.7021 5.52409 1.53117V1.13314C5.52409 0.919178 5.54351 0.739847 5.58236 0.595215C5.6212 0.450583 5.67665 0.334356 5.74837 0.246501C5.82009 0.158645 5.90648 0.0956229 6.00749 0.057373C6.10849 0.0191233 6.2215 0 6.347 0C6.44861 0 6.54214 0.01228 6.6276 0.0367839C6.71307 0.0612877 6.78951 0.100129 6.85644 0.15332C6.92338 0.206512 6.98045 0.276972 7.02767 0.364827C7.07488 0.452683 7.11097 0.559984 7.13607 0.686686C7.16117 0.813389 7.17383 0.962209 7.17383 1.13314ZM6.84017 1.58496V1.07756C6.84017 0.960415 6.83341 0.857361 6.81966 0.768311C6.80592 0.67926 6.78574 0.602984 6.75944 0.539632C6.73314 0.476281 6.7002 0.424943 6.66016 0.385498C6.62011 0.346053 6.57381 0.31703 6.52181 0.298503C6.46981 0.279975 6.41155 0.270752 6.347 0.270752C6.26811 0.270752 6.19833 0.285331 6.13737 0.314616C6.07641 0.343901 6.02529 0.390262 5.98405 0.453613C5.94281 0.516965 5.91149 0.600003 5.88997 0.702799C5.86846 0.805596 5.85775 0.930532 5.85775 1.07756V1.58496C5.85775 1.7021 5.86451 1.80553 5.87825 1.89518C5.892 1.98483 5.91261 2.06222 5.9401 2.12736C5.9676 2.1925 6.00125 2.24601 6.04069 2.28784C6.08013 2.32968 6.12574 2.3604 6.17773 2.38013C6.22973 2.39985 6.28723 2.40975 6.35059 2.40975C6.43187 2.40975 6.50317 2.3942 6.56413 2.36312C6.62509 2.33204 6.67621 2.2833 6.71745 2.21696C6.75869 2.15062 6.78925 2.0652 6.80957 1.96061C6.82989 1.85602 6.84017 1.73079 6.84017 1.58496ZM7.63997 2.4707C7.63997 2.41452 7.65745 2.36697 7.69271 2.32812C7.72797 2.28928 7.77909 2.26986 7.84603 2.26986C7.91297 2.26986 7.96409 2.28928 7.99935 2.32812C8.03461 2.36697 8.05208 2.41452 8.05208 2.4707C8.05208 2.52569 8.03461 2.57226 7.99935 2.61051C7.96409 2.64876 7.91297 2.66789 7.84603 2.66789C7.77909 2.66789 7.72797 2.64876 7.69271 2.61051C7.65745 2.57226 7.63997 2.52569 7.63997 2.4707ZM9.6569 0.0214844V2.6464H9.32519V0.43571L8.65658 0.679525V0.380127L9.60482 0.0214844H9.6569Z" fill="#0C7473" style="fill:#0C7473;fill:color(display-p3 0.0471 0.4549 0.4510);fill-opacity:1;"/>
</svg>
