<svg width="39" height="3" viewBox="0 0 39 3" fill="none" xmlns="http://www.w3.org/2000/svg">
<path d="M1.58301 2.47249V2.75399H0.277669V2.47249H1.58301ZM0.346029 0.143473V2.75399H0V0.143473H0.346029ZM2.73242 2.78988C2.59735 2.78988 2.47526 2.7668 2.36589 2.72078C2.25651 2.67476 2.1626 2.60996 2.08431 2.52629C2.00602 2.44261 1.94581 2.34343 1.90397 2.22868C1.86214 2.11393 1.84115 1.9884 1.84115 1.85213V1.77686C1.84115 1.61907 1.86452 1.47829 1.91113 1.35457C1.95775 1.23086 2.02115 1.12594 2.10124 1.03988C2.18132 0.953814 2.2721 0.888709 2.3737 0.844482C2.4753 0.800256 2.58068 0.778158 2.68945 0.778158C2.82811 0.778158 2.94782 0.802041 3.04883 0.849853C3.14983 0.897666 3.23265 0.96434 3.2972 1.0498C3.36175 1.13527 3.40968 1.23565 3.44075 1.35099C3.47183 1.46634 3.4873 1.59217 3.4873 1.72843V1.8772H2.03841V1.60653H3.1556V1.58138C3.15082 1.49532 3.13302 1.41168 3.10254 1.3304C3.07206 1.24912 3.02408 1.18215 2.95833 1.12956C2.89259 1.07696 2.80301 1.0507 2.68945 1.0507C2.61415 1.0507 2.5448 1.06655 2.48145 1.09823C2.41809 1.1299 2.36378 1.17678 2.31836 1.23893C2.27294 1.30109 2.23767 1.37699 2.21256 1.46663C2.18746 1.55628 2.1748 1.65972 2.1748 1.77686V1.85213C2.1748 1.94417 2.18752 2.03056 2.21322 2.11125C2.23892 2.19193 2.27657 2.26269 2.32617 2.32365C2.37578 2.38461 2.43637 2.43246 2.50749 2.46712C2.57861 2.50179 2.65948 2.51912 2.75033 2.51912C2.86747 2.51912 2.96657 2.49524 3.04785 2.44743C3.12913 2.39962 3.20043 2.33562 3.26139 2.25553L3.46224 2.41512C3.4204 2.47847 3.36696 2.53882 3.30241 2.59619C3.23786 2.65357 3.15894 2.70022 3.0651 2.73608C2.97127 2.77194 2.86032 2.78988 2.73242 2.78988ZM4.44108 2.45459L4.97168 0.813965H5.31055L4.61328 2.75399H4.39095L4.44108 2.45459ZM3.99837 0.813965L4.54492 2.46354L4.58268 2.75399H4.36035L3.65755 0.813965H3.99837ZM6.41146 2.78988C6.27639 2.78988 6.15429 2.7668 6.04492 2.72078C5.93555 2.67476 5.84164 2.60996 5.76335 2.52629C5.68505 2.44261 5.62517 2.34343 5.58333 2.22868C5.5415 2.11393 5.52051 1.9884 5.52051 1.85213V1.77686C5.52051 1.61907 5.54388 1.47829 5.59049 1.35457C5.63711 1.23086 5.70019 1.12594 5.78027 1.03988C5.86036 0.953814 5.95146 0.888709 6.05306 0.844482C6.15466 0.800256 6.25972 0.778158 6.36849 0.778158C6.50714 0.778158 6.62686 0.802041 6.72786 0.849853C6.82887 0.897666 6.91169 0.96434 6.97624 1.0498C7.04078 1.13527 7.08871 1.23565 7.11979 1.35099C7.15087 1.46634 7.16634 1.59217 7.16634 1.72843V1.8772H5.71777V1.60653H6.83463V1.58138C6.82985 1.49532 6.81238 1.41168 6.7819 1.3304C6.75142 1.24912 6.70311 1.18215 6.63737 1.12956C6.57163 1.07696 6.48204 1.0507 6.36849 1.0507C6.29318 1.0507 6.22383 1.06655 6.16048 1.09823C6.09713 1.1299 6.04282 1.17678 5.9974 1.23893C5.95197 1.30109 5.9167 1.37699 5.8916 1.46663C5.8665 1.55628 5.85384 1.65972 5.85384 1.77686V1.85213C5.85384 1.94417 5.86688 2.03056 5.89258 2.11125C5.91828 2.19193 5.95593 2.26269 6.00553 2.32365C6.05514 2.38461 6.1154 2.43246 6.18652 2.46712C6.25764 2.50179 6.33852 2.51912 6.42936 2.51912C6.5465 2.51912 6.64593 2.49524 6.72721 2.44743C6.80849 2.39962 6.87947 2.33562 6.94043 2.25553L7.14128 2.41512C7.09944 2.47847 7.04632 2.53882 6.98177 2.59619C6.91722 2.65357 6.83797 2.70022 6.74414 2.73608C6.65031 2.77194 6.53936 2.78988 6.41146 2.78988ZM7.91406 0V2.75399H7.5804V0H7.91406ZM10.4118 0.129069V2.75399H10.0801V0.543294L9.41113 0.787109V0.487712L10.3597 0.129069H10.4118ZM13.7734 2.09416C13.7734 2.0332 13.7643 1.9791 13.7458 1.93188C13.7272 1.88467 13.6948 1.84196 13.6488 1.80371C13.6027 1.76546 13.5393 1.729 13.4587 1.69434C13.378 1.65967 13.2761 1.6244 13.153 1.58854C13.0239 1.55029 12.9074 1.50758 12.8034 1.46037C12.6994 1.41315 12.6106 1.35906 12.5365 1.2981C12.4623 1.23713 12.4053 1.16719 12.3659 1.0883C12.3264 1.00941 12.307 0.919228 12.307 0.817627C12.307 0.716026 12.3276 0.622195 12.3695 0.536133C12.4113 0.450071 12.4715 0.375066 12.5498 0.311117C12.6281 0.247168 12.7216 0.197236 12.8304 0.161377C12.9392 0.125518 13.0605 0.107585 13.1943 0.107585C13.3904 0.107585 13.5568 0.144938 13.6937 0.219645C13.8305 0.294352 13.9348 0.391753 14.0065 0.511881C14.0782 0.63201 14.1143 0.760219 14.1143 0.896484H13.7699C13.7699 0.798469 13.7489 0.711481 13.707 0.635579C13.6652 0.559677 13.6018 0.499927 13.5169 0.456299C13.4321 0.41267 13.3246 0.390869 13.1943 0.390869C13.0712 0.390869 12.9697 0.409397 12.8896 0.446452C12.8096 0.483506 12.7501 0.533735 12.7113 0.597087C12.6724 0.660438 12.653 0.732684 12.653 0.813965C12.653 0.868949 12.6645 0.91888 12.6878 0.963704C12.7111 1.00853 12.7476 1.05005 12.7972 1.0883C12.8468 1.12655 12.9102 1.16182 12.9873 1.19409C13.0644 1.22636 13.1567 1.25747 13.2643 1.28735C13.4125 1.32919 13.5402 1.37577 13.6478 1.42716C13.7554 1.47856 13.8441 1.53623 13.9141 1.60018C13.984 1.66413 14.0362 1.73646 14.0703 1.81714C14.1044 1.89782 14.1214 1.98897 14.1214 2.09058C14.1214 2.19696 14.0997 2.29317 14.0566 2.37923C14.0136 2.46529 13.9522 2.53881 13.8721 2.59977C13.792 2.66073 13.6961 2.70769 13.5843 2.74056C13.4725 2.77343 13.3481 2.78988 13.2106 2.78988C13.0899 2.78988 12.971 2.77313 12.8545 2.73966C12.7379 2.7062 12.6321 2.65597 12.5371 2.58903C12.4421 2.52209 12.3663 2.43935 12.3096 2.34074C12.2528 2.24213 12.2243 2.12768 12.2243 1.9974H12.5687C12.5687 2.08704 12.5858 2.16383 12.6204 2.22778C12.6551 2.29173 12.7027 2.34456 12.763 2.38639C12.8234 2.42823 12.8923 2.45904 12.9694 2.47876C13.0465 2.49848 13.1269 2.50838 13.2106 2.50838C13.3313 2.50838 13.4333 2.49164 13.5169 2.45817C13.6006 2.4247 13.6644 2.37685 13.708 2.3147C13.7516 2.25254 13.7734 2.17902 13.7734 2.09416ZM15.3171 2.78988C15.182 2.78988 15.0599 2.7668 14.9505 2.72078C14.8411 2.67476 14.7472 2.60996 14.6689 2.52629C14.5907 2.44261 14.5308 2.34343 14.4889 2.22868C14.4471 2.11393 14.4261 1.9884 14.4261 1.85213V1.77686C14.4261 1.61907 14.4495 1.47829 14.4961 1.35457C14.5427 1.23086 14.6061 1.12594 14.6862 1.03988C14.7663 0.953814 14.8571 0.888709 14.9587 0.844482C15.0603 0.800256 15.1653 0.778158 15.2741 0.778158C15.4127 0.778158 15.5328 0.802041 15.6338 0.849853C15.7348 0.897666 15.8173 0.96434 15.8818 1.0498C15.9464 1.13527 15.9943 1.23565 16.0254 1.35099C16.0565 1.46634 16.0719 1.59217 16.0719 1.72843V1.8772H14.6234V1.60653H15.7402V1.58138C15.7355 1.49532 15.718 1.41168 15.6875 1.3304C15.657 1.24912 15.6087 1.18215 15.543 1.12956C15.4772 1.07696 15.3876 1.0507 15.2741 1.0507C15.1988 1.0507 15.1294 1.06655 15.0661 1.09823C15.0027 1.1299 14.9484 1.17678 14.903 1.23893C14.8576 1.30109 14.8223 1.37699 14.7972 1.46663C14.7721 1.55628 14.7594 1.65972 14.7594 1.77686V1.85213C14.7594 1.94417 14.7725 2.03056 14.7982 2.11125C14.8239 2.19193 14.8615 2.26269 14.9111 2.32365C14.9607 2.38461 15.021 2.43246 15.0921 2.46712C15.1632 2.50179 15.2441 2.51912 15.335 2.51912C15.4521 2.51912 15.5515 2.49524 15.6328 2.44743C15.7141 2.39962 15.7851 2.33562 15.846 2.25553L16.0469 2.41512C16.005 2.47847 15.9519 2.53882 15.8874 2.59619C15.8228 2.65357 15.7436 2.70022 15.6497 2.73608C15.5559 2.77194 15.445 2.78988 15.3171 2.78988ZM16.791 1.11882V2.75399H16.4593V0.813965H16.7819L16.791 1.11882ZM17.3971 0.803223L17.3952 1.11165C17.3677 1.10568 17.3419 1.10181 17.3174 1.10002C17.2929 1.09822 17.2648 1.09733 17.2337 1.09733C17.1572 1.09733 17.0898 1.10923 17.0312 1.13314C16.9727 1.15704 16.9231 1.19053 16.8825 1.23356C16.8418 1.27659 16.8098 1.32771 16.7865 1.38688C16.7631 1.44605 16.7481 1.51086 16.7409 1.58138L16.6475 1.63517C16.6475 1.51803 16.6593 1.40805 16.6826 1.30526C16.7059 1.20246 16.742 1.11131 16.791 1.03182C16.84 0.952332 16.9026 0.890202 16.9785 0.845378C17.0544 0.800554 17.1448 0.778158 17.25 0.778158C17.2739 0.778158 17.3013 0.780835 17.3324 0.786214C17.3634 0.791593 17.3852 0.797246 17.3971 0.803223ZM18.3258 2.45459L18.8564 0.813965H19.1953L18.498 2.75399H18.2757L18.3258 2.45459ZM17.8828 0.813965L18.4297 2.46354L18.4674 2.75399H18.2451L17.5423 0.813965H17.8828ZM19.875 0.813965V2.75399H19.5413V0.813965H19.875ZM19.5163 0.299398C19.5163 0.245609 19.5329 0.200222 19.5658 0.163167C19.5986 0.126113 19.647 0.107585 19.7116 0.107585C19.7749 0.107585 19.8237 0.126113 19.8577 0.163167C19.8918 0.200222 19.9089 0.245609 19.9089 0.299398C19.9089 0.350796 19.8918 0.394777 19.8577 0.431234C19.8237 0.467691 19.7749 0.485921 19.7116 0.485921C19.647 0.485921 19.5986 0.467691 19.5658 0.431234C19.5329 0.394777 19.5163 0.350796 19.5163 0.299398ZM21.1839 2.51733C21.2628 2.51733 21.3354 2.50119 21.4023 2.46891C21.4693 2.43664 21.5244 2.39214 21.5674 2.33537C21.6104 2.27859 21.635 2.2137 21.6409 2.14079H21.9564C21.9504 2.25554 21.9119 2.36224 21.8408 2.46086C21.7697 2.55947 21.6769 2.63894 21.5622 2.6993C21.4474 2.75966 21.3214 2.78988 21.1839 2.78988C21.0381 2.78988 20.9109 2.76413 20.8027 2.71273C20.6946 2.66133 20.605 2.59087 20.5339 2.50122C20.4627 2.41157 20.4096 2.30844 20.3743 2.19189C20.3391 2.07535 20.3213 1.9519 20.3213 1.82161V1.74634C20.3213 1.61605 20.3391 1.4926 20.3743 1.37606C20.4096 1.25952 20.4627 1.15646 20.5339 1.06681C20.605 0.977165 20.6946 0.906623 20.8027 0.855225C20.9109 0.803826 21.0381 0.778158 21.1839 0.778158C21.3357 0.778158 21.4681 0.808884 21.5817 0.870443C21.6953 0.932001 21.7848 1.01572 21.8499 1.1215C21.9151 1.22729 21.9504 1.34708 21.9564 1.48096H21.6409C21.635 1.40087 21.6124 1.32854 21.5736 1.264C21.5347 1.19945 21.4824 1.14782 21.416 1.10897C21.3497 1.07012 21.2724 1.0507 21.1839 1.0507C21.0823 1.0507 20.9971 1.07072 20.9284 1.11076C20.8597 1.1508 20.805 1.2046 20.765 1.27214C20.7249 1.33967 20.6964 1.41438 20.679 1.49626C20.6617 1.57814 20.653 1.66147 20.653 1.74634V1.82161C20.653 1.90648 20.6613 1.9902 20.6781 2.07267C20.6948 2.15515 20.7233 2.22986 20.7633 2.29679C20.8034 2.36373 20.8577 2.41723 20.9264 2.45728C20.9952 2.49732 21.0811 2.51733 21.1839 2.51733ZM23.1344 2.78988C22.9994 2.78988 22.8773 2.7668 22.7679 2.72078C22.6585 2.67476 22.5646 2.60996 22.4863 2.52629C22.408 2.44261 22.3481 2.34343 22.3063 2.22868C22.2645 2.11393 22.2435 1.9884 22.2435 1.85213V1.77686C22.2435 1.61907 22.2669 1.47829 22.3135 1.35457C22.3601 1.23086 22.4232 1.12594 22.5033 1.03988C22.5833 0.953814 22.6744 0.888709 22.776 0.844482C22.8776 0.800256 22.9827 0.778158 23.0915 0.778158C23.2301 0.778158 23.3498 0.802041 23.4508 0.849853C23.5518 0.897666 23.6347 0.96434 23.6992 1.0498C23.7638 1.13527 23.8117 1.23565 23.8428 1.35099C23.8738 1.46634 23.8893 1.59217 23.8893 1.72843V1.8772H22.4408V1.60653H23.5576V1.58138C23.5528 1.49532 23.5354 1.41168 23.5049 1.3304C23.4744 1.24912 23.4261 1.18215 23.3603 1.12956C23.2946 1.07696 23.205 1.0507 23.0915 1.0507C23.0162 1.0507 22.9468 1.06655 22.8835 1.09823C22.8201 1.1299 22.7658 1.17678 22.7204 1.23893C22.675 1.30109 22.6397 1.37699 22.6146 1.46663C22.5895 1.55628 22.5768 1.65972 22.5768 1.77686V1.85213C22.5768 1.94417 22.5899 2.03056 22.6156 2.11125C22.6413 2.19193 22.6789 2.26269 22.7285 2.32365C22.7781 2.38461 22.8384 2.43246 22.9095 2.46712C22.9806 2.50179 23.0615 2.51912 23.1523 2.51912C23.2695 2.51912 23.3689 2.49524 23.4502 2.44743C23.5315 2.39962 23.6024 2.33562 23.6634 2.25553L23.8643 2.41512C23.8224 2.47847 23.7693 2.53882 23.7048 2.59619C23.6402 2.65357 23.561 2.70022 23.4671 2.73608C23.3733 2.77194 23.2623 2.78988 23.1344 2.78988ZM26.2005 1.73022H25.5029V1.44873H26.2005C26.3356 1.44873 26.445 1.42723 26.5286 1.3842C26.6123 1.34116 26.6734 1.28133 26.7122 1.20483C26.7511 1.12833 26.7705 1.04113 26.7705 0.943115C26.7705 0.853467 26.7511 0.769157 26.7122 0.690267C26.6734 0.611377 26.6123 0.547759 26.5286 0.499349C26.445 0.450939 26.3356 0.426758 26.2005 0.426758H25.5837V2.75399H25.2376V0.143473H26.2005C26.3977 0.143473 26.5646 0.177473 26.7008 0.245605C26.8371 0.313738 26.9402 0.407866 27.0107 0.527995C27.0813 0.648123 27.1165 0.78534 27.1165 0.939534C27.1165 1.10688 27.0813 1.24967 27.0107 1.368C26.9402 1.48634 26.8371 1.5763 26.7008 1.63786C26.5646 1.69942 26.3977 1.73022 26.2005 1.73022ZM27.8356 1.11882V2.75399H27.5039V0.813965H27.8268L27.8356 1.11882ZM28.4417 0.803223L28.4398 1.11165C28.4123 1.10568 28.3865 1.10181 28.362 1.10002C28.3375 1.09822 28.3097 1.09733 28.2786 1.09733C28.2021 1.09733 28.1344 1.10923 28.0758 1.13314C28.0173 1.15704 27.9677 1.19053 27.9271 1.23356C27.8864 1.27659 27.8544 1.32771 27.8311 1.38688C27.8077 1.44605 27.7927 1.51086 27.7855 1.58138L27.6921 1.63517C27.6921 1.51803 27.7039 1.40805 27.7272 1.30526C27.7505 1.20246 27.7866 1.11131 27.8356 1.03182C27.8846 0.952332 27.9472 0.890202 28.0231 0.845378C28.099 0.800554 28.1894 0.778158 28.2946 0.778158C28.3185 0.778158 28.3462 0.780835 28.3773 0.786214C28.4084 0.791593 28.4298 0.797246 28.4417 0.803223ZM28.6247 1.8055V1.76424C28.6247 1.62439 28.6449 1.4944 28.6855 1.37427C28.7262 1.25414 28.7848 1.1496 28.8613 1.06055C28.9378 0.971496 29.0302 0.902144 29.139 0.852539C29.2478 0.802934 29.3698 0.778158 29.5049 0.778158C29.6411 0.778158 29.764 0.802934 29.8734 0.852539C29.9827 0.902144 30.0759 0.971496 30.153 1.06055C30.2301 1.1496 30.2891 1.25414 30.3298 1.37427C30.3704 1.4944 30.3906 1.62439 30.3906 1.76424V1.8055C30.3906 1.94535 30.3704 2.07505 30.3298 2.19458C30.2891 2.31411 30.2301 2.41844 30.153 2.50749C30.0759 2.59654 29.9832 2.66581 29.875 2.71541C29.7668 2.76502 29.6447 2.78988 29.5085 2.78988C29.3722 2.78988 29.2497 2.76502 29.1409 2.71541C29.0322 2.66581 28.9391 2.59654 28.862 2.50749C28.7849 2.41844 28.7262 2.31411 28.6855 2.19458C28.6449 2.07505 28.6247 1.94535 28.6247 1.8055ZM28.9564 1.76424V1.8055C28.9564 1.90232 28.9675 1.99347 28.9902 2.07894C29.0129 2.1644 29.0474 2.24 29.0934 2.30575C29.1394 2.37149 29.1969 2.4232 29.2663 2.46086C29.3356 2.49851 29.4164 2.51733 29.5085 2.51733C29.5993 2.51733 29.679 2.49851 29.7477 2.46086C29.8165 2.4232 29.8735 2.37149 29.9189 2.30575C29.9644 2.24 29.9988 2.1644 30.0221 2.07894C30.0454 1.99347 30.057 1.90232 30.057 1.8055V1.76424C30.057 1.66862 30.0454 1.57814 30.0221 1.49268C29.9988 1.40721 29.9643 1.33123 29.9183 1.26489C29.8723 1.19855 29.8148 1.14632 29.7461 1.10807C29.6774 1.06982 29.5969 1.0507 29.5049 1.0507C29.414 1.0507 29.3344 1.06982 29.2656 1.10807C29.1969 1.14632 29.1394 1.19855 29.0934 1.26489C29.0474 1.33123 29.0129 1.40721 28.9902 1.49268C28.9675 1.57814 28.9564 1.66862 28.9564 1.76424ZM31.3695 2.45459L31.9004 0.813965H32.2393L31.5417 2.75399H31.3193L31.3695 2.45459ZM30.9268 0.813965L31.4736 2.46354L31.5111 2.75399H31.2887L30.5859 0.813965H30.9268ZM32.9186 0.813965V2.75399H32.5853V0.813965H32.9186ZM32.5602 0.299398C32.5602 0.245609 32.5765 0.200222 32.6094 0.163167C32.6422 0.126113 32.691 0.107585 32.7555 0.107585C32.8189 0.107585 32.8676 0.126113 32.9017 0.163167C32.9358 0.200222 32.9528 0.245609 32.9528 0.299398C32.9528 0.350796 32.9358 0.394777 32.9017 0.431234C32.8676 0.467691 32.8189 0.485921 32.7555 0.485921C32.691 0.485921 32.6422 0.467691 32.6094 0.431234C32.5765 0.394777 32.5602 0.350796 32.5602 0.299398ZM34.6742 2.37744V0H35.0075V2.75399H34.7028L34.6742 2.37744ZM33.3688 1.8055V1.76782C33.3688 1.6196 33.387 1.48485 33.4235 1.36353C33.46 1.2422 33.5119 1.13796 33.5794 1.0507C33.647 0.963442 33.7275 0.896173 33.8213 0.848958C33.9151 0.801744 34.0201 0.778158 34.1361 0.778158C34.258 0.778158 34.3646 0.799363 34.4561 0.841797C34.5475 0.88423 34.6252 0.945765 34.6891 1.02645C34.7531 1.10713 34.8038 1.20424 34.8408 1.31779C34.8779 1.43134 34.9036 1.55985 34.918 1.70329V1.86825C34.9048 2.01049 34.8794 2.1384 34.8418 2.25195C34.8041 2.36551 34.7531 2.46231 34.6891 2.5424C34.6252 2.62248 34.5474 2.6838 34.4554 2.72624C34.3634 2.76867 34.2556 2.78988 34.1325 2.78988C34.0189 2.78988 33.9151 2.76532 33.8213 2.71631C33.7275 2.6673 33.647 2.59863 33.5794 2.51017C33.5119 2.42172 33.46 2.31739 33.4235 2.19727C33.387 2.07714 33.3688 1.94655 33.3688 1.8055ZM33.7021 1.76782V1.8055C33.7021 1.90232 33.712 1.99318 33.7318 2.07804C33.7515 2.16291 33.7824 2.23762 33.8242 2.30216C33.8661 2.36671 33.9192 2.41724 33.9837 2.45369C34.0483 2.49015 34.1252 2.50838 34.2148 2.50838C34.3248 2.50838 34.4155 2.48501 34.4867 2.4384C34.5578 2.39178 34.6148 2.33024 34.6579 2.25374C34.7009 2.17724 34.7342 2.09421 34.7581 2.00456V1.57243C34.7438 1.50669 34.7232 1.44307 34.6963 1.38151C34.6694 1.31995 34.6349 1.26496 34.5924 1.21655C34.55 1.16814 34.4981 1.1296 34.4365 1.10091C34.375 1.07222 34.3024 1.05786 34.2187 1.05786C34.1279 1.05786 34.0498 1.07669 33.9847 1.11434C33.9196 1.15199 33.8661 1.20341 33.8242 1.26855C33.7824 1.3337 33.7515 1.409 33.7318 1.49447C33.712 1.57993 33.7021 1.671 33.7021 1.76782ZM36.3271 2.78988C36.1921 2.78988 36.07 2.7668 35.9606 2.72078C35.8512 2.67476 35.7573 2.60996 35.679 2.52629C35.6007 2.44261 35.5405 2.34343 35.4987 2.22868C35.4569 2.11393 35.4359 1.9884 35.4359 1.85213V1.77686C35.4359 1.61907 35.4592 1.47829 35.5059 1.35457C35.5525 1.23086 35.6159 1.12594 35.696 1.03988C35.776 0.953814 35.8668 0.888709 35.9684 0.844482C36.07 0.800256 36.1754 0.778158 36.2842 0.778158C36.4228 0.778158 36.5425 0.802041 36.6436 0.849853C36.7446 0.897666 36.8274 0.96434 36.8919 1.0498C36.9565 1.13527 37.0044 1.23565 37.0355 1.35099C37.0666 1.46634 37.082 1.59217 37.082 1.72843V1.8772H35.6331V1.60653H36.7503V1.58138C36.7455 1.49532 36.7277 1.41168 36.6973 1.3304C36.6668 1.24912 36.6188 1.18215 36.5531 1.12956C36.4873 1.07696 36.3977 1.0507 36.2842 1.0507C36.2089 1.0507 36.1395 1.06655 36.0762 1.09823C36.0128 1.1299 35.9585 1.17678 35.9131 1.23893C35.8677 1.30109 35.8324 1.37699 35.8073 1.46663C35.7822 1.55628 35.7695 1.65972 35.7695 1.77686V1.85213C35.7695 1.94417 35.7822 2.03056 35.8079 2.11125C35.8336 2.19193 35.8713 2.26269 35.9209 2.32365C35.9705 2.38461 36.0311 2.43246 36.1022 2.46712C36.1733 2.50179 36.2542 2.51912 36.3451 2.51912C36.4622 2.51912 36.5613 2.49524 36.6426 2.44743C36.7239 2.39962 36.7952 2.33562 36.8561 2.25553L37.057 2.41512C37.0151 2.47847 36.9617 2.53882 36.8971 2.59619C36.8326 2.65357 36.7537 2.70022 36.6598 2.73608C36.566 2.77194 36.455 2.78988 36.3271 2.78988ZM37.8008 1.11882V2.75399H37.4691V0.813965H37.792L37.8008 1.11882ZM38.4069 0.803223L38.4053 1.11165C38.3778 1.10568 38.3517 1.10181 38.3271 1.10002C38.3026 1.09822 38.2749 1.09733 38.2438 1.09733C38.1673 1.09733 38.0999 1.10923 38.0413 1.13314C37.9828 1.15704 37.9329 1.19053 37.8923 1.23356C37.8516 1.27659 37.8199 1.32771 37.7965 1.38688C37.7732 1.44605 37.7578 1.51086 37.7506 1.58138L37.6576 1.63517C37.6576 1.51803 37.6691 1.40805 37.6924 1.30526C37.7157 1.20246 37.7518 1.11131 37.8008 1.03182C37.8498 0.952332 37.9124 0.890202 37.9883 0.845378C38.0642 0.800554 38.1549 0.778158 38.2601 0.778158C38.284 0.778158 38.3114 0.780835 38.3424 0.786214C38.3735 0.791593 38.3949 0.797246 38.4069 0.803223Z" fill="#0C7473" style="fill:#0C7473;fill:color(display-p3 0.0471 0.4549 0.4510);fill-opacity:1;"/>
</svg>
