<svg width="14" height="16" viewBox="0 0 14 16" fill="none" xmlns="http://www.w3.org/2000/svg">
<g clip-path="url(#clip0_117_27717)">
<path d="M12.6118 5.45882C11.5451 6.11765 10.8863 7.24706 10.8863 8.50196C10.8863 9.91373 11.7333 11.2 13.0196 11.7333C12.7686 12.549 12.3922 13.302 11.9216 13.9922C11.2314 14.9647 10.5098 15.9686 9.44314 15.9686C8.37647 15.9686 8.06275 15.3412 6.80784 15.3412C5.58431 15.3412 5.1451 16 4.14118 16C3.13725 16 2.44706 15.0902 1.66275 13.9608C0.627451 12.3922 0.0313725 10.5725 0 8.65882C0 5.55294 2.00784 3.8902 4.01569 3.8902C5.08235 3.8902 5.96078 4.58039 6.61961 4.58039C7.24706 4.58039 8.25098 3.85882 9.44314 3.85882C10.698 3.82745 11.8902 4.42353 12.6118 5.45882ZM8.87843 2.54118C9.41176 1.91373 9.69412 1.12941 9.72549 0.313726C9.72549 0.219608 9.72549 0.0941177 9.69412 0C8.78431 0.0941177 7.93725 0.533333 7.34118 1.22353C6.80784 1.81961 6.49412 2.57255 6.46274 3.38824C6.46274 3.48235 6.46275 3.57647 6.49412 3.67059C6.55686 3.67059 6.65098 3.70196 6.71373 3.70196C7.56078 3.63922 8.3451 3.2 8.87843 2.54118Z" fill="black" style="fill:black;fill-opacity:1;"/>
</g>
<defs>
<clipPath id="clip0_117_27717">
<rect width="13.0196" height="16" fill="white" style="fill:white;fill-opacity:1;"/>
</clipPath>
</defs>
</svg>
